<?xml version="1.0" encoding="utf-8"?>
<!-- Generator: Adobe Illustrator 16.0.3, SVG Export Plug-In . SVG Version: 6.00 Build 0)  -->
<!DOCTYPE svg PUBLIC "-//W3C//DTD SVG 1.1//EN" "http://www.w3.org/Graphics/SVG/1.1/DTD/svg11.dtd">
<svg version="1.1" id="Layer_1" xmlns="http://www.w3.org/2000/svg" xmlns:xlink="http://www.w3.org/1999/xlink" x="0px" y="0px"
	 width="100px" height="100px" viewBox="0 0 100 100" enable-background="new 0 0 100 100" xml:space="preserve">
<g>
	<g>
		<g>
			<path fill="#00C6F2" d="M49.998,100C22.429,100,0,77.57,0,50.002C0,22.431,22.429,0,49.998,0C77.569,0,100,22.431,100,50.002
				C100,77.57,77.569,100,49.998,100z M49.998,0.842c-27.104,0-49.155,22.053-49.155,49.16c0,27.104,22.051,49.155,49.155,49.155
				c27.106,0,49.159-22.051,49.159-49.155C99.157,22.896,77.104,0.842,49.998,0.842z"/>
		</g>
		<g>
			<ellipse fill="#FF5A29" cx="50" cy="50.002" rx="45.857" ry="45.852"/>
		</g>
	</g>
	<g>
		<g>
			<path fill="#FFAA2C" d="M21.654,67.371c-0.718,0-1.462-0.085-2.213-0.251c-3.599-0.803-5.998-3.122-6.756-6.532
				c-0.348-1.572-0.18-3.15,0.501-4.693c0.872-1.964,1.734-3.926,2.597-5.887c1.988-4.521,4.043-9.198,6.164-13.768
				c1.399-3.015,3.697-5.243,6.693-6.509v-2.609c0-1.061,0.86-1.921,1.922-1.921h8.276c1.062,0,1.922,0.86,1.922,1.921v1.4
				c3.412-0.008,7.592-0.011,11.565-0.011c2.357,0,4.643,0.001,6.649,0.003v-1.392c0-1.061,0.859-1.921,1.922-1.921h8.276
				c1.062,0,1.922,0.86,1.922,1.921v2.612c3.21,1.369,5.614,3.843,7.158,7.372c1.744,3.991,3.519,7.971,5.294,11.95
				c0.974,2.184,1.948,4.369,2.917,6.554c1.077,2.43,1.001,5.085-0.21,7.284c-1.285,2.335-3.694,3.922-6.609,4.355
				c-0.507,0.075-1.011,0.113-1.5,0.113l0,0c-2.633,0-4.96-1.092-6.732-3.155c-2.532-2.958-5.08-5.992-7.465-8.843
				c-0.614,0.008-1.224,0.011-1.833,0.011l-2.732-0.005c-3.13,0-5.852-1.722-7.019-4.362c-0.799,0.008-1.595,0.012-2.391,0.012
				c-0.853,0-1.707-0.005-2.56-0.012c-1.174,2.69-3.793,4.339-7.024,4.357c-0.801,0.005-1.602,0.009-2.404,0.009
				c-0.717,0-1.435-0.003-2.151-0.012c-2.61,3.121-4.98,5.948-7.436,8.808C26.599,66.265,24.268,67.371,21.654,67.371z"/>
		</g>
		<g>
			<path fill="#25282D" d="M69.173,27.121v3.951c3.435,1.071,5.824,3.384,7.319,6.804c2.703,6.184,5.479,12.341,8.215,18.512
				c1.81,4.082-0.653,8.264-5.346,8.961c-0.416,0.063-0.821,0.093-1.217,0.093c-2.098,0-3.882-0.864-5.273-2.485
				c-2.558-2.987-5.086-5.999-7.606-9.012c-0.291-0.347-0.59-0.504-1.062-0.504c-0.012,0-0.023,0-0.035,0
				c-0.684,0.011-1.368,0.014-2.054,0.014c-0.864,0-1.729-0.005-2.596-0.005c-0.046,0-0.092,0-0.138,0c-0.001,0-0.002,0-0.003,0
				c-2.576,0-4.753-1.482-5.463-3.766c-0.134-0.431-0.32-0.604-0.815-0.604c-0.01,0-0.02,0-0.028,0
				c-1.033,0.013-2.066,0.019-3.099,0.019c-1.095,0-2.19-0.006-3.285-0.018c-0.007,0-0.013,0-0.02,0
				c-0.462,0-0.662,0.137-0.794,0.561c-0.726,2.35-2.821,3.788-5.496,3.804c-0.797,0.005-1.595,0.009-2.393,0.009
				c-0.797,0-1.596-0.004-2.393-0.015c-0.011,0-0.022,0-0.033,0c-0.444,0-0.733,0.135-1.011,0.466
				c-2.521,3.015-5.045,6.029-7.608,9.016c-1.421,1.653-3.209,2.53-5.285,2.53c-0.578,0-1.177-0.068-1.797-0.206
				c-2.881-0.642-4.696-2.374-5.297-5.074c-0.263-1.188-0.116-2.367,0.384-3.501c2.906-6.544,5.729-13.12,8.746-19.622
				c1.4-3.016,3.739-5.011,6.872-5.974v-3.953h8.276v3.326c3.674-0.011,8.727-0.016,13.482-0.016c3.153,0,6.175,0.002,8.576,0.006
				v-3.317H69.173 M69.173,23.278h-8.276c-1.943,0-3.55,1.441-3.808,3.313c-1.507-0.001-3.12-0.002-4.769-0.002
				c-3.265,0-6.67,0.002-9.674,0.008c-0.256-1.874-1.863-3.318-3.808-3.318h-8.276c-2.123,0-3.844,1.721-3.844,3.843v1.393
				c-2.87,1.507-5.094,3.858-6.514,6.917c-2.129,4.589-4.189,9.273-6.18,13.804c-0.861,1.96-1.723,3.92-2.592,5.876
				c-0.841,1.907-1.055,3.941-0.623,5.892c0.93,4.183,3.847,7.02,8.212,7.992c0.891,0.197,1.775,0.298,2.633,0.298
				c3.191,0,6.027-1.338,8.201-3.87c2.28-2.654,4.483-5.277,6.87-8.131c0.418,0.003,0.839,0.004,1.26,0.004
				c0.806,0,1.611-0.004,2.416-0.009c3.482-0.021,6.481-1.669,8.159-4.35c0.47,0.002,0.942,0.003,1.414,0.003
				c0.416,0,0.831-0.001,1.246-0.003c1.684,2.671,4.73,4.354,8.16,4.354h0.141l1.288,0.002l1.308,0.002c0.314,0,0.628,0,0.942-0.002
				c2.217,2.648,4.563,5.438,6.894,8.162c2.151,2.506,4.983,3.828,8.194,3.828c0.584,0,1.183-0.045,1.781-0.134
				c3.515-0.522,6.435-2.466,8.012-5.33c1.503-2.729,1.606-6.005,0.283-8.988c-0.969-2.187-1.943-4.372-2.918-6.558
				c-1.745-3.911-3.549-7.955-5.288-11.936c-1.561-3.566-3.908-6.186-6.998-7.818v-1.398C73.017,24.999,71.295,23.278,69.173,23.278
				L69.173,23.278z"/>
		</g>
	</g>
	<g>
		<g>
			<path fill="#F1F2F2" d="M59.422,55.141c-3.13,0-5.852-1.723-7.019-4.362c-0.797,0.008-1.593,0.011-2.391,0.011
				c-0.853,0-1.706-0.004-2.56-0.011c-1.174,2.689-3.793,4.337-7.024,4.357c-0.79,0.005-1.58,0.009-2.369,0.009
				c-0.818,0-1.637-0.005-2.455-0.016c-1.31-0.013-12.797-0.445-16.423-11.74c-0.145-0.451-0.118-0.939,0.075-1.372
				c0.899-2.007,1.803-4.011,2.729-6.007c1.4-3.014,3.697-5.242,6.692-6.509v-2.61c0-1.061,0.861-1.921,1.922-1.921h8.277
				c1.061,0,1.922,0.86,1.922,1.921v1.4c3.463-0.007,7.718-0.011,11.743-0.011c2.296,0,4.517,0.001,6.473,0.003v-1.393
				c0-1.061,0.86-1.921,1.922-1.921h8.275c1.062,0,1.922,0.86,1.922,1.921v2.613c3.211,1.368,5.616,3.843,7.16,7.374
				c0.506,1.158,1.019,2.313,1.53,3.468l0.655,1.478c0.174,0.392,0.211,0.83,0.106,1.245c-2.208,8.791-10.175,11.994-16.327,12.063
				c-0.706,0.011-1.393,0.015-2.078,0.015L59.422,55.141z"/>
		</g>
		<g>
			<g>
				<path fill="#25282D" d="M69.212,26.891v3.952c3.437,1.07,5.825,3.384,7.321,6.804c0.723,1.654,1.459,3.303,2.189,4.954
					c-2.668,10.624-14.023,10.603-14.514,10.611c-0.676,0.011-1.353,0.014-2.028,0.014c-0.919,0-1.839-0.006-2.759-0.006
					c-0.002,0-0.003,0-0.005,0c-2.577,0-4.752-1.482-5.461-3.765c-0.136-0.432-0.323-0.605-0.821-0.605c-0.009,0-0.017,0-0.025,0
					c-1.031,0.014-2.063,0.019-3.096,0.019c-1.095,0-2.191-0.006-3.286-0.017c-0.007,0-0.013,0-0.02,0
					c-0.463,0-0.662,0.135-0.794,0.56c-0.727,2.35-2.821,3.788-5.497,3.804c-0.786,0.005-1.572,0.009-2.357,0.009
					c-0.809,0-1.619-0.004-2.428-0.016c-0.463-0.006-11.274,0.016-14.62-10.406c0.895-2,1.796-3.996,2.718-5.984
					c1.401-3.017,3.739-5.011,6.87-5.975v-3.953h8.277v3.327c3.721-0.011,8.855-0.016,13.662-0.016c3.088,0,6.042,0.002,8.397,0.006
					v-3.317H69.212 M69.212,23.049h-8.275c-1.943,0-3.549,1.441-3.807,3.313c-1.453-0.001-3.004-0.002-4.591-0.002
					c-3.319,0-6.794,0.002-9.854,0.008c-0.255-1.875-1.863-3.318-3.808-3.318h-8.277c-2.123,0-3.844,1.72-3.844,3.842v1.394
					c-2.87,1.508-5.093,3.859-6.513,6.916c-1.001,2.159-1.947,4.261-2.74,6.033c-0.387,0.864-0.441,1.842-0.151,2.744
					c3.067,9.553,11.733,13.012,18.223,13.072c0.831,0.012,1.658,0.017,2.485,0.017c0.793,0,1.587-0.004,2.381-0.009
					c3.482-0.021,6.481-1.67,8.158-4.351c0.47,0.003,0.942,0.004,1.414,0.004c0.415,0,0.83-0.001,1.245-0.003
					c1.684,2.67,4.729,4.354,8.159,4.354l1.372,0.003l1.392,0.002c0.695,0,1.391-0.003,2.087-0.014
					c6.849-0.078,15.708-3.664,18.183-13.517c0.209-0.83,0.134-1.706-0.213-2.489l-0.655-1.479
					c-0.512-1.152-1.022-2.304-1.526-3.458c-1.561-3.568-3.908-6.188-7-7.819v-1.399C73.056,24.77,71.334,23.049,69.212,23.049
					L69.212,23.049z"/>
			</g>
		</g>
	</g>
	<g>
		<g>
			<path fill="#2E3035" d="M56.919,40.369H42.566c-0.531,0-0.961-0.43-0.961-0.961s0.43-0.96,0.961-0.96h14.353
				c0.53,0,0.961,0.43,0.961,0.96S57.449,40.369,56.919,40.369z"/>
		</g>
	</g>
	<g>
		<g>
			<g>
				<path fill="#2E3035" d="M35.148,31.14c-0.537,0-0.969,0.433-0.969,0.967l0.002,1.838l0.988,1.167l0.947-1.168l-0.002-1.837
					C36.114,31.573,35.683,31.14,35.148,31.14z"/>
			</g>
			<g>
				<path fill="#2E3035" d="M35.148,39.82c0.537,0,0.968-0.433,0.968-0.967l-0.002-1.838l-0.943-1.166l-0.992,1.166l0.002,1.837
					C34.181,39.387,34.613,39.82,35.148,39.82z"/>
			</g>
		</g>
		<g>
			<g>
				<path fill="#2E3035" d="M30.806,35.48c0,0.536,0.434,0.969,0.969,0.969l1.836-0.002l1.167-0.988l-1.167-0.947h-1.836
					C31.24,34.512,30.806,34.945,30.806,35.48z"/>
			</g>
			<g>
				<path fill="#2E3035" d="M39.489,35.479c0-0.535-0.432-0.967-0.966-0.967h-1.839l-1.168,0.944l1.168,0.993l1.839-0.002
					C39.058,36.446,39.489,36.014,39.489,35.479z"/>
			</g>
		</g>
	</g>
	<g>
		<path fill="#FF5A29" d="M22.3,64.012c-0.244,0-0.49-0.085-0.688-0.257c-0.437-0.38-0.482-1.043-0.101-1.479l5.215-5.979
			c0.38-0.438,1.042-0.48,1.479-0.102c0.437,0.38,0.482,1.043,0.101,1.479l-5.215,5.979C22.883,63.891,22.593,64.012,22.3,64.012z"
			/>
	</g>
	<g>
		<path fill="#FF5A29" d="M83.324,59.46c-0.396,0-0.774-0.225-0.952-0.608l-3.253-7.031c-0.243-0.525-0.015-1.148,0.512-1.39
			c0.526-0.242,1.148-0.014,1.392,0.511l3.253,7.033c0.243,0.524,0.014,1.146-0.512,1.39C83.621,59.43,83.472,59.46,83.324,59.46z"
			/>
	</g>
	<g>
		<g>
			<g>
				<g>
					<path fill="#2E3035" d="M66.077,32.248c0,0.613-0.498,1.109-1.112,1.109s-1.112-0.496-1.112-1.109
						c0-0.609,0.498-1.108,1.112-1.108S66.077,31.639,66.077,32.248z"/>
				</g>
			</g>
			<g>
				<g>
					<circle fill="#2E3035" cx="64.965" cy="38.712" r="1.112"/>
				</g>
			</g>
		</g>
		<g>
			<g>
				<g>
					<circle fill="#2E3035" cx="61.733" cy="35.48" r="1.112"/>
				</g>
			</g>
			<g>
				<g>
					<circle fill="#2E3035" cx="68.198" cy="35.48" r="1.112"/>
				</g>
			</g>
		</g>
	</g>
	<g>
		<g>
			<ellipse fill="#FF5A29" cx="64.965" cy="46.68" rx="4.041" ry="4.089"/>
			<path fill="#25282D" d="M64.965,51.729c-2.757,0-5.001-2.265-5.001-5.049c0-2.785,2.244-5.051,5.001-5.051
				c2.758,0,5.002,2.266,5.002,5.051C69.967,49.464,67.723,51.729,64.965,51.729z M64.965,43.55c-1.697,0-3.079,1.404-3.079,3.13
				c0,1.725,1.382,3.128,3.079,3.128c1.698,0,3.08-1.404,3.08-3.128C68.045,44.954,66.663,43.55,64.965,43.55z"/>
		</g>
		<g>
			<circle fill="#FFFFFF" cx="64.964" cy="46.68" r="1.111"/>
		</g>
	</g>
	<g>
		<g>
			<ellipse fill="#FF5A29" cx="35.149" cy="46.68" rx="4.04" ry="4.089"/>
			<path fill="#25282D" d="M35.148,51.729c-2.758,0-5-2.265-5-5.049c0-2.785,2.243-5.051,5-5.051c2.758,0,5.002,2.266,5.002,5.051
				C40.15,49.464,37.906,51.729,35.148,51.729z M35.148,43.55c-1.698,0-3.079,1.404-3.079,3.13c0,1.725,1.381,3.128,3.079,3.128
				c1.698,0,3.08-1.404,3.08-3.128C38.228,44.954,36.846,43.55,35.148,43.55z"/>
		</g>
		<g>
			<circle fill="#FFFFFF" cx="35.147" cy="46.68" r="1.111"/>
		</g>
	</g>
	<g>
		<path fill="#FF5A29" d="M78.864,63.967c-1.358,0-2.716-0.564-4.042-1.684c-0.442-0.373-0.498-1.034-0.125-1.477
			c0.373-0.441,1.035-0.498,1.478-0.125c1.029,0.869,2.024,1.27,2.956,1.176c1.226-0.115,1.996-1.025,2.003-1.034
			c0.364-0.449,1.024-0.52,1.474-0.155c0.451,0.365,0.52,1.024,0.155,1.474c-0.053,0.065-1.322,1.604-3.434,1.803
			C79.174,63.959,79.02,63.967,78.864,63.967z"/>
	</g>
</g>
</svg>
