<?xml version="1.0" encoding="utf-8"?>
<!-- Generator: Adobe Illustrator 16.0.3, SVG Export Plug-In . SVG Version: 6.00 Build 0)  -->
<!DOCTYPE svg PUBLIC "-//W3C//DTD SVG 1.1//EN" "http://www.w3.org/Graphics/SVG/1.1/DTD/svg11.dtd">
<svg version="1.1" id="Layer_1" xmlns="http://www.w3.org/2000/svg" xmlns:xlink="http://www.w3.org/1999/xlink" x="0px" y="0px"
	 width="36px" height="36px" viewBox="0 0 36 36" enable-background="new 0 0 36 36" xml:space="preserve">
<path fill-rule="evenodd" clip-rule="evenodd" fill="#FFFFFF" d="M17.981,0C27.961,0.045,36.062,8.159,36,18.05
	C35.937,28.03,27.852,36.049,17.9,36C7.944,35.951-0.049,27.855,0,17.867C0.048,8.033,8.177-0.044,17.981,0z M18.63,6.272
	c-1.684-0.043-3.357,0.402-4.882,1.37c-1.002,0.636-1.816,1.455-2.294,2.558c-0.66,1.521,0.332,2.905,1.986,2.771
	c0.686-0.055,1.208-0.428,1.601-0.986c0.645-0.916,1.434-1.628,2.609-1.734c0.51-0.046,1.028-0.067,1.537-0.032
	c0.811,0.056,1.53,0.353,1.84,1.168c0.324,0.851,0.352,1.728-0.351,2.419c-0.633,0.623-1.316,1.201-2.023,1.74
	c-1.529,1.167-2.553,2.637-2.794,4.567c-0.074,0.591-0.102,1.24,0.068,1.795c0.276,0.901,1.366,1.334,2.435,1.116
	c0.897-0.184,1.653-1.031,1.589-1.936c-0.09-1.286,0.479-2.214,1.431-2.963c0.552-0.434,1.137-0.824,1.711-1.229
	c1.781-1.253,2.682-2.905,2.399-5.133c-0.282-2.224-1.287-3.924-3.386-4.877C21.04,6.402,19.91,6.253,18.63,6.272z M20.216,27.508
	c0.167-1.689-1.191-2.472-2.394-2.471c-1.462,0.001-2.576,0.994-2.521,2.3c0.07,1.703,0.885,2.604,2.532,2.601
	C19.34,29.936,20.216,29.043,20.216,27.508z"/>
</svg>
