<?xml version="1.0" encoding="utf-8"?>
<!-- Generator: Adobe Illustrator 16.0.3, SVG Export Plug-In . SVG Version: 6.00 Build 0)  -->
<!DOCTYPE svg PUBLIC "-//W3C//DTD SVG 1.1//EN" "http://www.w3.org/Graphics/SVG/1.1/DTD/svg11.dtd">
<svg version="1.1" id="Layer_1" xmlns="http://www.w3.org/2000/svg" xmlns:xlink="http://www.w3.org/1999/xlink" x="0px" y="0px"
	 width="20px" height="20px" viewBox="0 0 20 20" enable-background="new 0 0 20 20" xml:space="preserve">
<path fill-rule="evenodd" clip-rule="evenodd" d="M2.828,8.523C2.992,7.288,3.04,6.088,3.325,4.95
	c0.776-3.099,3.566-5.143,6.582-4.935c3.154,0.217,5.607,2.479,6.053,5.678c-0.654,0-1.307,0.066-1.932-0.034
	c-0.242-0.039-0.498-0.421-0.622-0.703c-1.011-2.279-3.27-3.264-5.42-2.333c-1.04,0.45-1.826,1.211-2.134,2.272
	C5.518,6.041,5.403,7.25,5.169,8.566c1.063,0,1.862,0,2.66,0c2.947-0.001,5.894-0.006,8.841-0.001
	c1.191,0.002,1.478,0.284,1.48,1.467c0.008,2.857,0.006,5.716-0.002,8.573c-0.003,1.148-0.254,1.391-1.439,1.391
	c-4.763,0.005-9.525,0.005-14.288,0c-1.122-0.001-1.412-0.293-1.416-1.437C0.997,15.881,1.003,13.201,1,10.523
	C0.998,8.778,1.112,8.649,2.828,8.523z"/>
</svg>
