<?xml version="1.0" encoding="utf-8"?>
<!-- Generator: Adobe Illustrator 16.0.3, SVG Export Plug-In . SVG Version: 6.00 Build 0)  -->
<!DOCTYPE svg PUBLIC "-//W3C//DTD SVG 1.1//EN" "http://www.w3.org/Graphics/SVG/1.1/DTD/svg11.dtd">
<svg version="1.1" id="Layer_1" xmlns="http://www.w3.org/2000/svg" xmlns:xlink="http://www.w3.org/1999/xlink" x="0px" y="0px"
	 width="256px" height="256px" viewBox="0 0 256 256" enable-background="new 0 0 256 256" xml:space="preserve">
<g>
	<g>
		<g>
			<path fill="#00C6F2" d="M130.003,242.458c-63.79,0-115.686-51.917-115.686-115.731C14.317,62.915,66.213,11,130.003,11
				c63.792,0,115.692,51.915,115.692,115.726C245.695,190.541,193.795,242.458,130.003,242.458z M130.003,12.508
				c-62.958,0-114.178,51.238-114.178,114.218c0,62.983,51.22,114.223,114.178,114.223c62.961,0,114.183-51.24,114.183-114.223
				C244.186,63.747,192.964,12.508,130.003,12.508z"/>
		</g>
		<g>
			<path fill="#FF5A29" d="M236.313,126.726c0,58.734-47.595,106.339-106.31,106.339c-58.711,0-106.304-47.605-106.304-106.339
				c0-58.73,47.593-106.333,106.304-106.333C188.718,20.393,236.313,67.996,236.313,126.726z"/>
		</g>
		<g>
			<g>
				<path fill-rule="evenodd" clip-rule="evenodd" fill="#FF5A29" d="M241.235,53.139c0,10.83-8.779,19.614-19.61,19.614
					c-10.833,0-19.612-8.784-19.612-19.614c0-10.837,8.778-19.621,19.612-19.621C232.457,33.518,241.235,42.302,241.235,53.139z"/>
			</g>
			<g>
				<path fill-rule="evenodd" clip-rule="evenodd" fill="#2E3035" d="M250.036,52.516c0.9-0.369,1.803-0.742,2.707-1.103
					c0.333-0.128,0.603-0.283,0.832-0.487c0.385-0.336,0.985-1.085,0.699-2.388c-0.232-1.049-0.446-2.157-0.659-3.379
					c-0.213-1.274-1.113-2.036-2.407-2.03c-0.879,0.001-1.755-0.009-2.637-0.019c-0.877-0.003-1.755-0.012-2.639-0.01
					c-0.399-0.873-0.851-1.814-1.41-2.91c0.827-1.047,1.649-2.108,2.471-3.163l1.972-2.545l-5.03-5.798c0,0-5.124,2.925-6.291,3.599
					c-0.983-0.69-1.845-1.276-2.67-1.808c0.102-0.746,0.205-1.497,0.305-2.24c0.133-0.969,0.26-1.942,0.406-2.901
					c0.199-1.346-0.435-2.38-1.706-2.781c-1.013-0.324-2.098-0.693-3.312-1.146c-1.208-0.44-2.034,0.113-2.333,0.373
					c-0.217,0.187-0.404,0.419-0.567,0.704c-0.442,0.771-0.901,1.54-1.352,2.301c-0.444,0.761-0.896,1.518-1.337,2.284
					c-1.068-0.107-2.146-0.18-3.209-0.227c-0.314-0.796-0.643-1.578-0.966-2.374c-0.343-0.829-0.685-1.658-1.014-2.49
					c-0.491-1.229-1.542-1.798-2.819-1.514c-1.039,0.238-2.164,0.458-3.438,0.675c-0.503,0.083-0.909,0.269-1.241,0.558
					c-0.513,0.447-0.777,1.07-0.777,1.859c0.005,0.893-0.003,1.788-0.01,2.682c-0.007,0.862-0.014,1.718-0.011,2.589
					c-0.981,0.444-1.954,0.917-2.901,1.41c-1.09-0.865-2.188-1.715-3.287-2.566l-2.429-1.883l-5.795,5.032l1.397,2.439
					c0.746,1.285,1.479,2.571,2.201,3.86c-0.297,0.445-0.595,0.888-0.892,1.325c-0.301,0.444-0.596,0.886-0.893,1.326
					c-0.546-0.075-1.092-0.149-1.637-0.217c-1.176-0.154-2.35-0.307-3.523-0.484c-0.808-0.126-1.495,0.047-2.03,0.519
					c-0.352,0.304-0.602,0.704-0.771,1.236c-0.338,1.066-0.713,2.164-1.115,3.265c-0.437,1.179-0.04,2.268,1.058,2.906
					c0.669,0.383,1.335,0.773,2.001,1.172c0.855,0.506,1.711,1.009,2.58,1.508c-0.109,1.068-0.187,2.14-0.227,3.22
					c-0.754,0.3-1.501,0.608-2.252,0.921c-0.843,0.35-1.685,0.69-2.53,1.026c-0.347,0.139-0.626,0.305-0.863,0.504
					c-0.394,0.342-1.006,1.111-0.702,2.417c0.23,1.032,0.44,2.115,0.612,3.234c0.224,1.382,1.165,2.164,2.598,2.153
					c1.016-0.01,2.034,0,3.05,0.007c0.693,0.003,1.387,0.011,2.083,0.011c0.244,0.52,0.489,1.035,0.74,1.55
					c0.225,0.44,0.438,0.893,0.659,1.346c-0.879,1.158-1.769,2.297-2.66,3.435l-1.784,2.291l5.028,5.798l2.547-1.457
					c1.252-0.721,2.497-1.434,3.752-2.133c0.435,0.288,0.875,0.584,1.311,0.881c0.449,0.307,0.896,0.608,1.358,0.912
					c-0.069,0.48-0.132,0.954-0.196,1.432c-0.159,1.224-0.319,2.446-0.508,3.662c-0.213,1.404,0.432,2.441,1.777,2.861
					c0.988,0.3,2.047,0.673,3.24,1.117c1.166,0.426,1.956-0.042,2.327-0.357c0.215-0.19,0.4-0.418,0.57-0.721
					c0.428-0.742,0.858-1.474,1.29-2.207c0.463-0.789,0.931-1.578,1.384-2.372c1.129,0.102,2.179,0.175,3.222,0.23
					c0.301,0.759,0.612,1.512,0.929,2.265c0.343,0.839,0.699,1.687,1.032,2.531c0.513,1.304,1.58,1.879,2.92,1.563
					c1.144-0.266,2.295-0.47,3.365-0.659c0.489-0.086,0.903-0.272,1.233-0.555c0.517-0.456,0.78-1.075,0.777-1.868
					c-0.003-0.95,0.003-1.911,0.01-2.855c0.007-0.81,0.014-1.611,0.014-2.412c0.512-0.243,1.018-0.496,1.526-0.739
					c0.455-0.226,0.9-0.444,1.356-0.663c1.165,0.89,2.316,1.784,3.468,2.677l2.261,1.763l5.796-5.03c0,0-2.816-4.935-3.593-6.292
					c0.657-0.945,1.249-1.826,1.791-2.663c0.721,0.106,1.441,0.205,2.164,0.3c1.021,0.139,2.053,0.274,3.076,0.425
					c0.771,0.111,1.422-0.055,1.94-0.499c0.333-0.295,0.574-0.667,0.728-1.165c0.342-1.065,0.711-2.148,1.146-3.321
					c0.456-1.224,0.047-2.348-1.101-3.001c-0.796-0.451-1.59-0.921-2.379-1.387c-0.714-0.421-1.431-0.845-2.157-1.261
					c0.088-0.952,0.163-1.968,0.227-3.202C248.618,53.099,249.327,52.813,250.036,52.516z M232.771,65.848l-0.238,0.208
					c-3.336,2.896-7.655,4.303-12.172,3.957c-4.555-0.35-8.685-2.445-11.615-5.895c-5.972-7.04-5.186-17.689,1.788-23.782
					c3.43-2.975,7.846-4.411,12.43-4.054c4.604,0.375,8.758,2.514,11.704,6.039C240.512,49.315,239.661,59.864,232.771,65.848z"/>
				<path fill="#E6E7E8" d="M225.562,87.531c-1.689,0-3.096-1.007-3.76-2.695c-0.233-0.591-0.479-1.186-0.722-1.778l-0.301-0.732
					c-0.181-0.429-0.362-0.864-0.542-1.302c-0.386-0.025-0.776-0.053-1.173-0.084c-0.188,0.321-0.375,0.641-0.563,0.961
					l-0.302,0.512c-0.43,0.731-0.858,1.459-1.284,2.197c-0.242,0.434-0.542,0.81-0.905,1.131c-0.52,0.443-1.354,0.945-2.516,0.945
					c-0.487,0-0.983-0.092-1.475-0.272c-1.167-0.434-2.193-0.796-3.153-1.087c-2.15-0.67-3.269-2.466-2.931-4.69
					c0.188-1.208,0.346-2.417,0.504-3.627l0.056-0.418c-0.171-0.115-0.341-0.231-0.512-0.348c-0.151-0.104-0.303-0.206-0.455-0.309
					c-0.951,0.537-1.898,1.079-2.85,1.628l-3.731,2.134l-6.808-7.851l2.619-3.362c0.681-0.87,1.359-1.738,2.033-2.615
					c-0.066-0.132-0.132-0.266-0.199-0.397c-0.108-0.223-0.214-0.44-0.317-0.655l-3.157-0.018l-0.91,0.004
					c-2.283,0-3.893-1.356-4.246-3.542c-0.168-1.094-0.37-2.141-0.593-3.137c-0.362-1.559,0.085-3.031,1.232-4.026
					c0.401-0.336,0.83-0.589,1.333-0.791c0.839-0.334,1.674-0.671,2.509-1.018c0.43-0.179,0.858-0.356,1.287-0.532
					c0.023-0.395,0.051-0.789,0.083-1.182c-0.562-0.328-1.121-0.656-1.68-0.988c-0.663-0.397-1.319-0.782-1.979-1.16
					c-1.807-1.05-2.504-2.977-1.787-4.914c0.392-1.071,0.758-2.146,1.089-3.19c0.266-0.832,0.68-1.481,1.268-1.989
					c0.88-0.774,2.041-1.107,3.366-0.899c1.084,0.163,2.179,0.306,3.273,0.45l0.209,0.027c0.206,0.025,0.415,0.052,0.624,0.08
					l0.643-0.954c-0.557-0.985-1.12-1.969-1.69-2.952l-2.077-3.626l7.844-6.812l3.501,2.714c0.849,0.658,1.665,1.289,2.468,1.92
					c0.35-0.174,0.702-0.345,1.055-0.513c0.002-0.514,0.006-1.026,0.01-1.54l0.002-0.308c0.007-0.788,0.013-1.573,0.009-2.358
					c0-1.274,0.464-2.348,1.343-3.114c0.569-0.494,1.261-0.811,2.058-0.943c1.233-0.21,2.329-0.424,3.339-0.655
					c2.107-0.475,3.939,0.549,4.723,2.512c0.328,0.829,0.666,1.65,1.006,2.47l0.364,0.89c0.071,0.174,0.143,0.348,0.214,0.522
					c0.39,0.023,0.782,0.05,1.173,0.083l1.071-1.822c0.363-0.611,0.728-1.227,1.082-1.844c0.254-0.444,0.564-0.824,0.92-1.133
					c0.403-0.349,1.271-0.938,2.527-0.938c0.482,0,0.971,0.088,1.453,0.264c1.198,0.447,2.259,0.808,3.249,1.125
					c2.039,0.643,3.156,2.448,2.837,4.597c-0.107,0.707-0.204,1.414-0.299,2.123l-0.269,1.968c0.316,0.211,0.64,0.431,0.977,0.663
					c1.873-1.074,5.387-3.081,5.387-3.081l1.178-0.672l6.807,7.847l-3.425,4.419c-0.401,0.515-0.803,1.031-1.205,1.544
					c0.183,0.37,0.354,0.724,0.516,1.064l1.592,0.008c0.836,0.009,1.634,0.019,2.436,0.019h0.191c2.114,0,3.693,1.338,4.04,3.41
					c0.207,1.185,0.415,2.269,0.642,3.295c0.342,1.557-0.104,3.01-1.225,3.99c-0.357,0.32-0.796,0.58-1.325,0.785
					c-0.75,0.299-1.518,0.615-2.283,0.929l-0.39,0.161c-0.385,0.16-0.774,0.32-1.165,0.479c-0.025,0.406-0.053,0.791-0.082,1.16
					c0.385,0.225,0.768,0.45,1.149,0.676l0.159,0.093c0.766,0.453,1.535,0.908,2.307,1.345c1.857,1.058,2.577,3.026,1.834,5.016
					c-0.425,1.146-0.786,2.207-1.121,3.249c-0.233,0.754-0.641,1.397-1.206,1.897c-0.731,0.627-1.62,0.949-2.588,0.949l0,0
					c-0.22,0-0.448-0.017-0.683-0.05c-0.792-0.117-1.583-0.224-2.37-0.33l-0.694-0.094c-0.377-0.049-0.756-0.101-1.135-0.153
					c-0.208,0.314-0.423,0.634-0.647,0.961l3.75,6.569l-7.848,6.811l-3.67-2.861c-0.768-0.596-1.537-1.192-2.31-1.787
					c-0.143,0.069-0.284,0.14-0.427,0.21l-0.61,0.296c-0.002,0.455-0.007,0.91-0.01,1.369c-0.008,0.957-0.015,1.911-0.011,2.855
					c0.006,1.26-0.456,2.336-1.336,3.112c-0.572,0.492-1.252,0.804-2.038,0.943c-1.043,0.185-2.166,0.383-3.28,0.642
					C226.276,87.488,225.913,87.531,225.562,87.531z M217.248,77.462l1.059,0.095c1.107,0.101,2.138,0.172,3.16,0.227l1.058,0.056
					l0.391,0.984c0.297,0.749,0.604,1.491,0.916,2.232l0.305,0.742c0.25,0.607,0.502,1.217,0.742,1.826
					c0.235,0.601,0.527,0.601,0.684,0.601c0.096,0,0.202-0.014,0.317-0.041c1.181-0.274,2.362-0.484,3.458-0.678
					c0.194-0.035,0.344-0.096,0.444-0.182c0.059-0.052,0.202-0.179,0.201-0.606c-0.004-0.957,0.003-1.924,0.01-2.875
					c0.007-0.82,0.014-1.61,0.014-2.399v-1.045l2.466-1.185c0.439-0.218,0.891-0.439,1.354-0.662l0.913-0.438l0.804,0.614
					c1.054,0.805,2.097,1.614,3.139,2.421l1.531,1.193l3.745-3.25l-3.438-6.019l0.596-0.857c0.646-0.93,1.228-1.795,1.761-2.619
					l0.578-0.89l1.05,0.154c0.712,0.104,1.424,0.202,2.14,0.296l0.697,0.094c0.8,0.107,1.605,0.216,2.404,0.334
					c0.292,0.042,0.517-0.029,0.624-0.12c0.063-0.056,0.149-0.157,0.225-0.4c0.354-1.102,0.731-2.209,1.176-3.406
					c0.174-0.469,0.074-0.737-0.37-0.989c-0.786-0.446-1.574-0.911-2.356-1.375l0.684-1.515l-0.84,1.423
					c-0.671-0.395-1.345-0.793-2.028-1.184l-0.922-0.528l0.099-1.059c0.087-0.932,0.16-1.927,0.222-3.136l0.055-1.05l1.28-0.521
					c0.602-0.244,1.204-0.488,1.806-0.739l0.4-0.164c0.775-0.319,1.554-0.638,2.331-0.948c0.242-0.094,0.318-0.162,0.343-0.185
					c0.158-0.138,0.291-0.33,0.187-0.801c-0.237-1.069-0.455-2.201-0.673-3.45c-0.082-0.485-0.288-0.662-0.765-0.662l-0.208,0.001
					c-0.815,0-1.626-0.01-2.445-0.02l-2.634-0.01l-1.063,0.002l-0.443-0.968c-0.39-0.853-0.833-1.774-1.379-2.847l-0.48-0.943
					l0.656-0.832c0.616-0.779,1.229-1.567,1.841-2.354l1.762-2.271l-3.253-3.749c-1.583,0.905-4.295,2.454-5.104,2.921l-0.913,0.528
					l-0.864-0.606c-0.963-0.676-1.808-1.25-2.616-1.772l-0.885-0.57l0.551-4.04c0.099-0.726,0.198-1.45,0.306-2.167
					c0.092-0.618-0.149-0.824-0.569-0.957c-1.042-0.333-2.152-0.711-3.392-1.174c-0.322-0.12-0.605,0.012-0.674,0.073
					c-0.077,0.067-0.146,0.157-0.216,0.277c-0.362,0.632-0.736,1.262-1.107,1.887l-2.116,3.627l-1.065-0.107
					c-1.037-0.105-2.084-0.175-3.117-0.22l-1.072-0.047l-0.393-0.998c-0.194-0.492-0.395-0.978-0.595-1.466l-0.366-0.893
					c-0.342-0.825-0.687-1.662-1.02-2.502c-0.216-0.542-0.511-0.542-0.652-0.542c-0.083,0-0.174,0.011-0.271,0.033
					c-1.057,0.242-2.211,0.468-3.52,0.69c-0.255,0.042-0.365,0.116-0.434,0.176c-0.067,0.059-0.209,0.182-0.209,0.612
					c0.005,0.791-0.002,1.592-0.008,2.394l-0.002,0.302c-0.007,0.859-0.014,1.707-0.011,2.569l0.004,1.071l-0.975,0.441
					c-0.955,0.432-1.899,0.891-2.819,1.37l-0.951,0.495l-0.839-0.667c-1.065-0.846-2.138-1.675-3.211-2.507l-1.418-1.1l-3.745,3.252
					l0.722,1.261c0.746,1.285,1.483,2.578,2.208,3.875l0.494,0.881l-2.924,4.353l-1.02-0.139c-0.542-0.075-1.081-0.147-1.617-0.214
					l-0.22-0.028c-1.116-0.146-2.23-0.293-3.345-0.461c-0.382-0.061-0.579,0.024-0.692,0.125c-0.085,0.073-0.192,0.191-0.29,0.499
					c-0.344,1.085-0.727,2.206-1.137,3.329c-0.16,0.431-0.068,0.675,0.335,0.91c0.669,0.383,1.345,0.778,2.02,1.184
					c0.841,0.498,1.691,0.997,2.554,1.493l0.929,0.535l-0.109,1.066c-0.104,1.033-0.18,2.069-0.219,3.112l-0.04,1.077l-1.001,0.397
					c-0.746,0.297-1.485,0.603-2.228,0.912c-0.851,0.354-1.701,0.697-2.552,1.036c-0.173,0.069-0.304,0.144-0.413,0.235
					c-0.188,0.162-0.241,0.408-0.155,0.777c0.241,1.081,0.458,2.201,0.635,3.358c0.078,0.483,0.251,0.751,0.937,0.751l0.955-0.004
					l5.254,0.022l0.446,0.949c0.241,0.513,0.482,1.021,0.73,1.528c0.154,0.301,0.316,0.636,0.479,0.975l0.625,1.286l-0.614,0.81
					c-0.884,1.164-1.779,2.311-2.675,3.455l-0.947,1.215l3.249,3.745l1.368-0.782c1.253-0.723,2.506-1.439,3.769-2.142l0.877-0.488
					l0.838,0.554c0.441,0.292,0.888,0.593,1.329,0.893c0.443,0.303,0.883,0.6,1.336,0.897l0.877,0.577l-0.344,2.455
					c-0.16,1.232-0.321,2.467-0.512,3.697c-0.09,0.591,0.07,0.853,0.636,1.029c1.005,0.305,2.096,0.688,3.325,1.146
					c0.119,0.044,0.233,0.067,0.331,0.067c0.047,0,0.191,0,0.349-0.134c0.035-0.031,0.108-0.107,0.2-0.27
					c0.441-0.766,0.873-1.5,1.307-2.238l0.302-0.513c0.36-0.611,0.72-1.224,1.071-1.839L217.248,77.462z M221.704,71.717
					c-0.487,0-0.977-0.019-1.469-0.057c-5.002-0.385-9.53-2.684-12.749-6.473c-6.55-7.723-5.671-19.429,1.96-26.097
					c3.732-3.237,8.633-4.842,13.646-4.457c5.057,0.412,9.616,2.765,12.844,6.627c6.416,7.677,5.481,19.266-2.082,25.834
					l-0.232,0.204C230.338,70.15,226.107,71.717,221.704,71.717z M221.589,37.881c-3.678,0-7.221,1.314-9.973,3.703
					c-6.274,5.481-6.998,15.112-1.61,21.464c2.642,3.112,6.365,5,10.481,5.316c4.102,0.315,7.946-0.939,10.962-3.557l0.232-0.203
					c6.218-5.4,6.986-14.919,1.717-21.224c-2.655-3.177-6.409-5.112-10.57-5.452C222.418,37.897,222.003,37.881,221.589,37.881z"/>
			</g>
		</g>
		<g>
			<path fill-rule="evenodd" clip-rule="evenodd" fill="#F1F2F2" d="M134.279,197.363l-2.414-5.923
				c-1.099-2.679-2.199-5.368-3.267-8.063c-2.227-0.097-4.463-0.257-6.696-0.482c-0.898,1.573-1.805,3.114-2.715,4.664
				c-0.943,1.604-1.886,3.218-2.813,4.834c-0.818,1.417-1.938,2.277-3.331,2.551c-0.903,0.173-1.826,0.071-2.821-0.29
				c-2.525-0.937-4.781-1.705-6.894-2.371c-2.604-0.816-3.92-2.934-3.515-5.668c0.271-1.848,0.519-3.698,0.759-5.552
				c0.238-1.753,0.472-3.516,0.727-5.276c-1.878-1.205-3.731-2.458-5.559-3.761c-1.592,0.919-3.192,1.822-4.791,2.726
				c-1.607,0.905-3.221,1.821-4.82,2.745c-0.609,0.352-1.181,0.574-1.762,0.69c-0.813,0.158-2.873,0.3-4.591-1.767
				c-1.729-2.082-3.298-3.877-4.796-5.514c-1.878-2.041-1.942-4.586-0.179-6.788c1.259-1.583,2.504-3.199,3.749-4.813
				c0.957-1.24,1.916-2.485,2.887-3.723c-0.942-1.824-1.89-3.773-2.943-6.048c-2.809,0-15.093-0.05-15.093-0.05l-3.043-15.7
				l6.202-2.526c2.583-1.053,5.165-2.114,7.757-3.156c0.132-2.545,0.286-4.709,0.484-6.707c-1.601-0.921-3.18-1.845-4.76-2.774
				c-1.574-0.928-3.148-1.855-4.737-2.774c-2.332-1.333-3.164-3.634-2.225-6.166c0.888-2.426,1.649-4.643,2.324-6.771
				c0.839-2.653,2.707-3.398,3.752-3.591c0.619-0.123,1.274-0.128,2.001-0.021c2.006,0.298,4.022,0.567,6.039,0.837
				c1.578,0.205,3.159,0.426,4.74,0.642c1.394-2.152,2.585-3.914,3.744-5.533c-0.883-1.521-1.73-3.019-2.585-4.531
				c-0.945-1.658-1.883-3.326-2.849-4.968c-1.387-2.377-0.962-4.827,1.137-6.568c2.001-1.658,3.808-3.227,5.516-4.797
				c0.799-0.73,1.621-1.166,2.526-1.335c1.396-0.271,2.75,0.106,4.026,1.117c1.687,1.33,3.398,2.647,5.108,3.967
				c1.201,0.926,2.403,1.855,3.594,2.79c1.85-0.95,3.83-1.911,5.998-2.937c0.01-3.258,0.062-15.088,0.062-15.088l15.692-3.044
				l2.25,5.536c1.148,2.817,2.285,5.639,3.468,8.434c1.041,0.088,2.081,0.152,3.125,0.226c1.176,0.083,2.351,0.163,3.52,0.26
				c0.841-1.448,1.688-2.899,2.535-4.331c1.006-1.715,2.017-3.43,3-5.157c0.815-1.42,1.942-2.28,3.345-2.552
				c0.886-0.175,1.833-0.078,2.797,0.283c2.125,0.771,4.421,1.59,6.762,2.308c2.743,0.827,4.071,2.961,3.641,5.861
				c-0.277,1.876-0.52,3.755-0.767,5.644c-0.224,1.684-0.447,3.364-0.69,5.058c1.828,1.17,3.648,2.395,5.576,3.765
				c1.64-0.962,3.301-1.906,4.962-2.84c1.54-0.882,3.083-1.754,4.619-2.644c0.617-0.35,1.196-0.583,1.775-0.694
				c1.002-0.199,2.925-0.222,4.57,1.772c1.689,2.041,3.224,3.808,4.699,5.394c1.987,2.143,2.07,4.69,0.225,7.001
				c-1.605,2-3.171,4.035-4.733,6.067c-0.61,0.799-1.221,1.599-1.84,2.398c0.508,1.014,1.002,2.027,1.499,3.046
				c0.483,0.992,0.96,1.98,1.453,2.965c2.989,0.035,5.979,0.045,8.971,0.045l6.114,0.026l3.044,15.695l-5.595,2.276
				c-2.796,1.127-5.59,2.265-8.369,3.43c-0.087,1.037-0.154,2.079-0.224,3.116c-0.082,1.185-0.165,2.377-0.267,3.549
				c1.255,0.739,2.497,1.467,3.749,2.195c1.819,1.079,3.646,2.143,5.49,3.195c2.59,1.46,3.479,3.86,2.441,6.58
				c-0.851,2.197-1.604,4.387-2.244,6.479c-0.829,2.672-2.729,3.417-3.789,3.619c-0.636,0.12-1.319,0.13-2.089,0.012
				c-1.862-0.275-3.743-0.523-5.625-0.778c-1.68-0.22-3.357-0.44-5.028-0.676c-1.195,1.9-2.452,3.757-3.768,5.569
				c1.054,1.8,2.077,3.603,3.095,5.41c0.791,1.397,1.588,2.8,2.393,4.189c1.321,2.297,0.901,4.661-1.106,6.351
				c-1.881,1.567-3.704,3.159-5.42,4.732c-0.856,0.784-1.732,1.245-2.681,1.429c-1.45,0.286-2.861-0.114-4.201-1.179
				c-1.93-1.54-3.889-3.043-5.845-4.544c-0.912-0.702-1.817-1.394-2.726-2.094c-0.992,0.489-1.985,0.969-2.982,1.455
				c-1.002,0.485-2.004,0.978-3,1.469c-0.045,3.084-0.045,6.167-0.052,9.259l-0.01,5.866L134.279,197.363z"/>
			<path fill="#25282D" d="M134.277,200.803c-1.375,0-2.648-0.828-3.183-2.142l-2.414-5.923c-0.824-2.005-1.648-4.021-2.46-6.042
				c-0.815-0.05-1.629-0.108-2.438-0.175c-0.49,0.841-0.98,1.677-1.473,2.516l-0.156,0.265c-0.937,1.595-1.874,3.198-2.793,4.803
				c-1.325,2.294-3.278,3.748-5.651,4.215c-1.54,0.294-3.072,0.145-4.657-0.431c-2.361-0.875-4.563-1.632-6.755-2.323
				c-4.228-1.326-6.539-5.037-5.884-9.453c0.267-1.824,0.512-3.656,0.751-5.491l0.134-0.995c0.097-0.716,0.194-1.434,0.293-2.152
				c-0.682-0.453-1.36-0.912-2.034-1.376c-0.896,0.511-1.795,1.019-2.693,1.526l-0.22,0.124c-1.601,0.901-3.203,1.811-4.791,2.728
				c-0.931,0.539-1.849,0.893-2.809,1.085c-2.956,0.575-5.906-0.53-7.911-2.94c-1.611-1.94-3.144-3.703-4.688-5.391
				c-3.033-3.295-3.163-7.718-0.326-11.261c1.199-1.508,2.393-3.056,3.586-4.603l0.458-0.593c0.407-0.528,0.815-1.056,1.224-1.584
				c-0.353-0.711-0.711-1.449-1.077-2.218c-4.498-0.012-12.92-0.046-12.92-0.046c-1.642-0.007-3.051-1.174-3.363-2.786l-3.043-15.7
				c-0.313-1.612,0.558-3.221,2.079-3.84l8.424-3.433c1.174-0.479,2.348-0.958,3.523-1.437c0.054-0.861,0.111-1.676,0.173-2.455
				c-0.964-0.561-1.923-1.124-2.883-1.688c-1.568-0.924-3.135-1.847-4.715-2.762c-3.785-2.164-5.253-6.227-3.727-10.34
				c0.867-2.368,1.611-4.537,2.27-6.613c1.44-4.557,4.961-5.668,6.408-5.935c0.907-0.18,1.983-0.208,3.127-0.041
				c1.886,0.28,3.779,0.534,5.672,0.788l0.32,0.042c0.858,0.112,1.727,0.229,2.598,0.349c0.47-0.708,0.92-1.376,1.357-2.011
				c-0.506-0.886-1.005-1.769-1.507-2.657l-0.655-1.15c-0.715-1.259-1.432-2.52-2.165-3.766c-2.243-3.844-1.492-8.143,1.907-10.961
				c1.983-1.643,3.744-3.174,5.382-4.681c1.276-1.165,2.693-1.897,4.22-2.185c2.296-0.44,4.729,0.164,6.797,1.801
				c1.521,1.199,3.069,2.393,4.617,3.587l0.457,0.353c0.63,0.485,1.261,0.973,1.89,1.461c0.703-0.349,1.424-0.701,2.168-1.059
				c0.019-4.609,0.055-12.93,0.055-12.93c0.008-1.642,1.174-3.049,2.785-3.362l15.692-3.045c1.619-0.309,3.223,0.559,3.842,2.082
				l2.852,7.015c0.675,1.661,1.351,3.321,2.038,4.976c0.063,0.004,0.127,0.009,0.191,0.013l1.395,0.096
				c0.271,0.019,0.541,0.038,0.812,0.057c0.487-0.833,0.974-1.663,1.461-2.487l0.388-0.663c0.868-1.479,1.736-2.958,2.583-4.446
				c1.322-2.304,3.284-3.763,5.679-4.227c1.472-0.289,3.097-0.146,4.657,0.438c1.94,0.704,4.239,1.528,6.565,2.241
				c4.336,1.307,6.711,5.099,6.036,9.653c-0.258,1.737-0.484,3.48-0.712,5.229l-0.047,0.354c-0.129,0.977-0.259,1.95-0.392,2.923
				c0.683,0.454,1.362,0.911,2.04,1.377c1.031-0.592,2.067-1.179,3.103-1.762l1.683-0.961c0.968-0.551,1.935-1.103,2.9-1.662
				c0.99-0.562,1.915-0.916,2.852-1.095c0.489-0.097,1.015-0.149,1.54-0.149c2.428,0,4.676,1.104,6.331,3.11
				c1.682,2.031,3.176,3.747,4.564,5.241c3.173,3.421,3.323,7.823,0.396,11.49c-1.596,1.99-3.147,4.004-4.694,6.018
				c-0.178,0.232-0.355,0.465-0.534,0.699c0.187,0.38,0.373,0.762,0.558,1.145l0.339,0.694c0.057,0.119,0.115,0.238,0.172,0.355
				c2.272,0.019,4.544,0.024,6.819,0.024l6.128,0.026c1.641,0.007,3.05,1.173,3.362,2.785l3.045,15.695
				c0.313,1.613-0.558,3.222-2.081,3.841l-5.595,2.276c-2.139,0.862-4.269,1.728-6.391,2.606c-0.016,0.226-0.03,0.452-0.046,0.679
				l-0.02,0.304c-0.033,0.481-0.067,0.963-0.102,1.443c0.626,0.367,1.252,0.732,1.88,1.098c1.828,1.083,3.639,2.139,5.466,3.182
				c4.027,2.271,5.584,6.511,3.949,10.794c-0.802,2.069-1.529,4.17-2.168,6.258c-1,3.226-3.345,5.405-6.437,5.992
				c-1.043,0.198-2.122,0.207-3.252,0.033c-1.483-0.219-2.996-0.423-4.511-0.628l-1.054-0.142c-0.951-0.125-1.907-0.25-2.862-0.379
				c-0.454,0.688-0.917,1.373-1.387,2.05c0.676,1.177,1.343,2.355,2.007,3.535c0.782,1.381,1.574,2.774,2.372,4.153
				c2.153,3.742,1.417,7.941-1.867,10.707c-1.843,1.536-3.626,3.092-5.313,4.637c-1.313,1.201-2.776,1.964-4.35,2.269
				c-2.39,0.471-4.856-0.163-6.995-1.862c-1.89-1.508-3.802-2.977-5.712-4.442l-1.125-0.864l-1.07,0.521
				c-0.364,0.177-0.728,0.354-1.091,0.531c-0.017,1.959-0.021,3.917-0.024,5.879l-0.013,7.097c-0.003,1.646-1.17,3.058-2.786,3.371
				l-15.695,3.042C134.714,200.782,134.494,200.803,134.277,200.803z M121.901,179.456c0.115,0,0.231,0.006,0.346,0.017
				c2.134,0.216,4.322,0.373,6.501,0.468c1.354,0.059,2.548,0.909,3.048,2.169c1.063,2.682,2.157,5.358,3.251,8.024l1.351,3.314
				l10.141-1.965l0.008-4.266c0.005-2.693,0.01-5.382,0.05-8.071c0.018-1.292,0.759-2.464,1.917-3.035
				c1.003-0.495,2.012-0.99,3.021-1.479l2.961-1.444c1.177-0.581,2.582-0.44,3.621,0.361l2.724,2.093
				c2.028,1.557,3.974,3.052,5.892,4.581c0.531,0.424,0.972,0.576,1.39,0.493c0.212-0.041,0.536-0.144,1.025-0.591
				c1.763-1.616,3.628-3.244,5.54-4.836c0.729-0.614,0.818-1.139,0.326-1.994c-0.805-1.39-1.608-2.803-2.404-4.21
				c-1.012-1.795-2.025-3.582-3.07-5.365c-0.69-1.178-0.618-2.655,0.186-3.76c1.271-1.75,2.495-3.559,3.638-5.378
				c0.721-1.147,2.053-1.764,3.393-1.575c1.66,0.234,3.326,0.454,4.995,0.672l1.064,0.144c1.545,0.208,3.087,0.416,4.617,0.642
				c0.373,0.058,0.667,0.064,0.95,0.011c0.548-0.105,0.901-0.493,1.138-1.257c0.683-2.235,1.466-4.495,2.322-6.704
				c0.361-0.942,0.328-1.636-0.922-2.34c-1.876-1.071-3.72-2.146-5.556-3.233c-1.232-0.717-2.478-1.448-3.738-2.189
				c-1.144-0.673-1.798-1.943-1.683-3.264c0.101-1.151,0.182-2.324,0.263-3.486l0.019-0.297c0.064-0.955,0.128-1.915,0.208-2.87
				c0.107-1.277,0.916-2.39,2.098-2.885c2.794-1.171,5.602-2.315,8.414-3.448l2.966-1.207l-1.969-10.146l-3.289-0.014
				c-0.007,0-0.015,0-0.021,0c-2.984,0-5.979-0.01-8.975-0.046c-1.289-0.015-2.46-0.748-3.037-1.9
				c-0.382-0.766-0.756-1.534-1.13-2.303l-0.337-0.692c-0.492-1.012-0.98-2.012-1.482-3.014c-0.592-1.184-0.454-2.601,0.356-3.646
				c0.614-0.793,1.22-1.586,1.825-2.38c1.584-2.06,3.165-4.113,4.785-6.132c0.781-0.979,0.767-1.613-0.065-2.51
				c-1.477-1.588-3.056-3.401-4.826-5.54c-0.505-0.613-0.872-0.613-1.028-0.613c-0.084,0-0.16,0.009-0.221,0.021
				c-0.205,0.04-0.457,0.146-0.749,0.312c-0.952,0.551-1.932,1.111-2.913,1.67l-1.693,0.966c-1.667,0.938-3.31,1.871-4.932,2.823
				c-1.169,0.685-2.628,0.622-3.733-0.162c-1.811-1.287-3.59-2.488-5.439-3.672c-1.135-0.727-1.741-2.05-1.55-3.384
				c0.241-1.682,0.464-3.351,0.686-5.023l0.045-0.346c0.233-1.789,0.465-3.569,0.728-5.347c0.202-1.363-0.276-1.776-1.231-2.064
				c-2.496-0.765-4.892-1.624-6.943-2.367c-0.399-0.149-0.689-0.194-0.956-0.143c-0.197,0.039-0.582,0.114-1.028,0.891
				c-0.856,1.504-1.739,3.01-2.623,4.514l-0.393,0.67c-0.848,1.435-1.691,2.878-2.528,4.319c-0.667,1.148-1.917,1.812-3.26,1.7
				c-0.962-0.08-1.929-0.147-2.897-0.216l-1.377-0.095c-0.793-0.054-1.584-0.107-2.376-0.175c-1.272-0.108-2.379-0.912-2.877-2.087
				c-0.982-2.321-1.933-4.659-2.884-6.999l-1.788-4.395l-10.142,1.968c-0.017,3.709-0.043,10.017-0.05,12.26
				c-0.004,1.326-0.77,2.531-1.968,3.098c-2.131,1.009-4.079,1.954-5.897,2.888c-1.196,0.615-2.638,0.476-3.695-0.353
				c-1.184-0.928-2.377-1.852-3.571-2.771l-0.458-0.354c-1.566-1.209-3.133-2.418-4.679-3.637c-0.486-0.385-0.875-0.514-1.243-0.441
				c-0.196,0.037-0.45,0.123-0.861,0.499c-1.718,1.58-3.565,3.188-5.641,4.906c-0.804,0.667-0.901,1.259-0.36,2.186
				c0.744,1.265,1.477,2.556,2.21,3.846l0.655,1.152c0.855,1.511,1.696,2.998,2.572,4.507c0.679,1.169,0.61,2.628-0.178,3.728
				c-1.12,1.567-2.281,3.283-3.654,5.402c-0.725,1.12-2.026,1.718-3.351,1.539l-1.389-0.191c-1.11-0.152-2.221-0.304-3.33-0.448
				l-0.335-0.045c-1.925-0.258-3.851-0.517-5.767-0.801c-0.294-0.044-0.569-0.059-0.825-0.008c-0.55,0.101-0.908,0.508-1.144,1.254
				c-0.689,2.175-1.466,4.436-2.373,6.916c-0.358,0.963-0.167,1.5,0.701,1.998c1.612,0.932,3.194,1.864,4.776,2.796
				c1.568,0.923,3.139,1.841,4.729,2.756c1.172,0.674,1.84,1.974,1.707,3.32c-0.19,1.919-0.34,3.999-0.472,6.545
				c-0.069,1.337-0.909,2.514-2.152,3.013c-1.842,0.742-3.679,1.491-5.516,2.241l-5.813,2.37l1.968,10.152
				c3.8,0.015,10.307,0.039,12.254,0.039c1.34,0,2.56,0.779,3.122,1.996c1.036,2.239,1.95,4.118,2.877,5.914
				c0.617,1.196,0.48,2.642-0.35,3.701c-0.853,1.087-1.697,2.18-2.538,3.27l-0.456,0.591c-1.215,1.574-2.428,3.148-3.656,4.692
				c-0.818,1.022-0.584,1.666,0.017,2.318c1.626,1.777,3.231,3.623,4.911,5.646c0.588,0.707,1.078,0.627,1.289,0.587
				c0.115-0.023,0.335-0.083,0.695-0.291c1.61-0.931,3.236-1.853,4.854-2.764l0.216-0.122c1.517-0.856,3.034-1.714,4.543-2.585
				c1.166-0.675,2.62-0.604,3.716,0.178c1.769,1.259,3.593,2.493,5.421,3.667c1.135,0.728,1.74,2.053,1.547,3.388
				c-0.207,1.421-0.398,2.845-0.59,4.264l-0.132,0.98c-0.241,1.854-0.492,3.722-0.765,5.588c-0.159,1.067,0.151,1.577,1.14,1.887
				c2.307,0.727,4.616,1.521,7.062,2.428c0.377,0.136,0.694,0.188,0.976,0.136c0.152-0.03,0.547-0.108,1-0.893
				c0.927-1.617,1.876-3.243,2.826-4.857l0.154-0.263c0.852-1.449,1.699-2.892,2.539-4.363
				C119.531,180.111,120.677,179.456,121.901,179.456z"/>
		</g>
		<g>
			<g>
				<g>
					<path fill-rule="evenodd" clip-rule="evenodd" fill="#FFAA2C" d="M130.607,163.89c-18.104,0-33.515-12.979-36.645-30.865
						c-3.465-19.788,9.795-38.913,29.559-42.631c2.384-0.491,4.796-0.737,7.198-0.737c17.81,0,33.076,12.779,36.3,30.387
						c3.64,19.888-9.518,39.246-29.332,43.154C135.354,163.658,132.972,163.89,130.607,163.89z"/>
				</g>
				<g>
					<path fill="#25282D" d="M130.722,87.938v3.44l0,0c16.704,0,31.581,12.457,34.605,28.978
						c3.472,18.967-9.076,37.43-27.971,41.156c-2.224,0.438-4.494,0.661-6.748,0.661c-17.267,0-31.966-12.383-34.951-29.442
						c-3.303-18.866,9.338-37.099,28.24-40.656c2.241-0.461,4.536-0.695,6.823-0.695L130.722,87.938 M130.719,87.938
						c-2.488,0-5.006,0.25-7.517,0.767c-20.733,3.901-34.528,24.092-30.934,44.618c3.319,18.972,19.933,32.289,38.339,32.289
						c2.447,0,4.929-0.236,7.413-0.725c20.775-4.097,34.515-24.257,30.69-45.15C165.27,100.941,148.702,87.936,130.719,87.938
						L130.719,87.938z"/>
				</g>
			</g>
			<g>
				<path fill-rule="evenodd" clip-rule="evenodd" fill="#FFFFFF" d="M163.779,123.867c-0.269-1.713-0.533-1.953-2.042-1.72
					c-1.79,0.298-3.562,0.676-5.346,1.03c-0.78,0.15-0.997,0.68-0.928,1.401c0.484,4.95-0.506,9.585-2.807,13.956
					c-0.418,0.792-0.338,1.314,0.416,1.805c1.661,1.081,3.313,2.181,4.947,3.313c0.69,0.475,1.122,0.359,1.519-0.366
					C162.933,137.173,164.365,130.626,163.779,123.867z"/>
			</g>
			<g>
				<path fill-rule="evenodd" clip-rule="evenodd" fill="#FFFFFF" d="M158.782,119.767c0.87-0.167,1.739-0.364,2.618-0.496
					c1.168-0.187,1.432-0.85,1.115-1.902c-2.01-6.771-5.788-12.353-11.296-16.751c-0.659-0.522-1.087-0.432-1.536,0.258
					c-1.016,1.555-2.021,3.125-3.131,4.617c-0.728,0.964-0.551,1.548,0.341,2.297c3.054,2.575,5.321,5.765,6.847,9.448
					C155.172,120.729,155.151,120.73,158.782,119.767z"/>
			</g>
			<g>
				<path fill-rule="evenodd" clip-rule="evenodd" fill="#FFFFFF" d="M123.487,98.405c-0.007,0-0.011,0-0.016,0.001
					c-0.127-0.662-0.262-1.326-0.382-1.98c-0.324-1.777-0.669-2.02-2.394-1.382c-1.854,0.692-3.702,1.406-5.486,2.247
					c-4.201,1.989-7.553,5.04-10.504,8.579c-0.529,0.629-0.643,1.149,0.128,1.671c1.644,1.104,3.288,2.206,4.914,3.326
					c0.603,0.419,1.03,0.305,1.519-0.229c0.903-0.999,1.821-2.002,2.851-2.87c2.535-2.125,5.268-3.944,8.51-4.844
					c1.205-0.331,1.618-1.079,1.301-2.284C123.737,99.908,123.631,99.15,123.487,98.405z"/>
			</g>
			<g>
				<path fill-rule="evenodd" clip-rule="evenodd" fill="#FFFFFF" d="M101.586,130.823c0,0,0,0,0.003,0.009
					c0.787-0.152,1.567-0.341,2.363-0.451c1.119-0.163,1.626-0.771,1.522-1.902c-0.43-4.816,0.744-9.287,2.885-13.55
					c0.324-0.645,0.294-1.087-0.333-1.493c-1.654-1.091-3.289-2.191-4.929-3.315c-0.668-0.465-1.164-0.357-1.529,0.378
					c-0.5,1.028-1.056,2.027-1.518,3.069c-2.316,5.191-3.133,10.649-2.601,16.302c0.133,1.41,0.485,1.652,1.897,1.389
					C100.097,131.118,100.841,130.962,101.586,130.823z"/>
			</g>
			<g>
				<path fill-rule="evenodd" clip-rule="evenodd" fill="#FFFFFF" d="M126.549,97.833c-0.005,0.003-0.005,0.003-0.005,0.003
					c0.151,0.784,0.345,1.574,0.442,2.356c0.149,1.147,0.725,1.574,1.886,1.491c4.754-0.352,9.233,0.678,13.438,2.889
					c0.784,0.418,1.208,0.257,1.665-0.426c1.013-1.561,2.044-3.104,3.111-4.626c0.596-0.846,0.579-1.41-0.461-1.854
					c-1.786-0.751-3.488-1.725-5.309-2.358c-4.57-1.61-9.287-2.12-14.105-1.621c-0.949,0.097-1.365,0.576-1.167,1.531
					C126.216,96.094,126.379,96.959,126.549,97.833z"/>
			</g>
			<g>
				<path fill-rule="evenodd" clip-rule="evenodd" fill="#FFFFFF" d="M98.613,136.028c2.001,6.749,5.715,12.357,11.215,16.781
					c0.648,0.513,1.068,0.292,1.46-0.286c1.137-1.675,2.306-3.333,3.374-5.061c0.18-0.285,0.104-1.051-0.135-1.264
					c-3.811-3.216-6.488-7.176-8.009-11.926c-0.246-0.778-0.746-1.073-1.548-0.914c-1.782,0.349-3.565,0.688-5.346,1.023
					C98.675,134.555,98.318,135.087,98.613,136.028z"/>
			</g>
			<g>
				<path fill-rule="evenodd" clip-rule="evenodd" fill="#FFFFFF" d="M123.376,128.216c0.687,2.771,2.379,4.9,5.452,5.628
					c3.048,0.716,5.642-0.211,7.506-2.705c1.895-2.52,2.1-5.325,0.444-8.058c-0.608-1.004-0.546-1.682,0.097-2.59
					c1.73-2.436,3.352-4.96,5.058-7.416c0.524-0.759,0.527-1.288-0.33-1.732c-0.222-0.109-0.437-0.26-0.621-0.427
					c-0.863-0.754-1.463-0.634-2.102,0.368c-1.543,2.416-3.244,4.732-4.777,7.158c-0.657,1.039-1.336,1.333-2.575,1.158
					C126.622,118.905,122.466,123.228,123.376,128.216z"/>
			</g>
			<g>
				<path fill-rule="evenodd" clip-rule="evenodd" fill="#FF5A29" d="M163.779,123.867c0.586,6.759-0.846,13.306-4.241,19.419
					c-0.397,0.725-0.829,0.841-1.519,0.366c-1.633-1.132-3.286-2.233-4.947-3.313c-0.754-0.491-0.834-1.013-0.416-1.805
					c2.301-4.371,3.291-9.006,2.807-13.956c-0.069-0.721,0.147-1.25,0.928-1.401c1.784-0.354,3.556-0.732,5.346-1.03
					C163.247,121.915,163.51,122.154,163.779,123.867z"/>
			</g>
			<g>
				<path fill-rule="evenodd" clip-rule="evenodd" fill="#FF5A29" d="M158.782,119.767c-3.631,0.964-3.61,0.962-5.042-2.528
					c-1.526-3.683-3.793-6.873-6.847-9.448c-0.893-0.749-1.069-1.333-0.341-2.297c1.11-1.493,2.115-3.062,3.131-4.617
					c0.449-0.69,0.877-0.78,1.536-0.258c5.509,4.398,9.287,9.98,11.296,16.751c0.317,1.052,0.054,1.715-1.115,1.902
					C160.521,119.402,159.652,119.6,158.782,119.767z"/>
			</g>
			<g>
				<path fill-rule="evenodd" clip-rule="evenodd" fill="#FF5A29" d="M123.487,98.405c0.144,0.745,0.25,1.503,0.44,2.236
					c0.317,1.205-0.096,1.953-1.301,2.284c-3.242,0.9-5.975,2.719-8.51,4.844c-1.03,0.867-1.947,1.871-2.851,2.87
					c-0.489,0.534-0.916,0.648-1.519,0.229c-1.626-1.12-3.271-2.221-4.914-3.326c-0.771-0.522-0.657-1.042-0.128-1.671
					c2.951-3.539,6.303-6.59,10.504-8.579c1.784-0.841,3.633-1.555,5.486-2.247c1.725-0.638,2.07-0.396,2.394,1.382
					c0.12,0.654,0.255,1.318,0.382,1.98C123.477,98.405,123.48,98.405,123.487,98.405z"/>
			</g>
			<g>
				<path fill-rule="evenodd" clip-rule="evenodd" fill="#FF5A29" d="M101.586,130.823c-0.746,0.139-1.489,0.295-2.238,0.436
					c-1.412,0.263-1.764,0.021-1.897-1.389c-0.532-5.652,0.284-11.11,2.601-16.302c0.461-1.042,1.018-2.041,1.518-3.069
					c0.366-0.735,0.861-0.843,1.529-0.378c1.64,1.124,3.275,2.224,4.929,3.315c0.627,0.406,0.657,0.848,0.333,1.493
					c-2.142,4.264-3.315,8.734-2.885,13.55c0.104,1.131-0.404,1.739-1.522,1.902c-0.796,0.109-1.576,0.298-2.363,0.451
					C101.586,130.823,101.586,130.823,101.586,130.823z"/>
			</g>
			<g opacity="0.5">
				<path fill-rule="evenodd" clip-rule="evenodd" fill="#FFEAE4" d="M126.549,97.833c-0.17-0.874-0.333-1.739-0.506-2.615
					c-0.198-0.956,0.218-1.434,1.167-1.531c4.818-0.499,9.535,0.011,14.105,1.621c1.821,0.633,3.523,1.607,5.309,2.358
					c1.041,0.444,1.058,1.007,0.461,1.854c-1.066,1.522-2.098,3.065-3.111,4.626c-0.456,0.683-0.881,0.844-1.665,0.426
					c-4.205-2.21-8.683-3.24-13.438-2.889c-1.162,0.083-1.737-0.343-1.886-1.491c-0.097-0.782-0.292-1.573-0.444-2.356
					C126.542,97.836,126.544,97.836,126.549,97.833z"/>
			</g>
			<g>
				<path fill-rule="evenodd" clip-rule="evenodd" fill="#FF5A29" d="M98.613,136.028c-0.295-0.941,0.063-1.474,1.011-1.647
					c1.781-0.334,3.563-0.674,5.346-1.023c0.803-0.16,1.302,0.135,1.548,0.914c1.521,4.75,4.198,8.709,8.009,11.926
					c0.239,0.213,0.315,0.979,0.135,1.264c-1.068,1.729-2.237,3.386-3.374,5.061c-0.392,0.578-0.812,0.799-1.46,0.286
					C104.328,148.386,100.614,142.777,98.613,136.028z"/>
			</g>
			<g>
				<path fill-rule="evenodd" clip-rule="evenodd" fill="#2E3035" d="M123.376,128.216c-0.91-4.988,3.246-9.311,8.153-8.616
					c1.238,0.175,1.918-0.12,2.575-1.158c1.533-2.426,3.234-4.742,4.777-7.158c0.638-1.002,1.238-1.122,2.102-0.368
					c0.184,0.167,0.399,0.317,0.621,0.427c0.857,0.444,0.854,0.973,0.33,1.732c-1.706,2.456-3.327,4.98-5.058,7.416
					c-0.644,0.909-0.706,1.586-0.097,2.59c1.656,2.733,1.451,5.538-0.444,8.058c-1.864,2.493-4.458,3.421-7.506,2.705
					C125.755,133.116,124.063,130.986,123.376,128.216z M126.827,127.434c0.447,2.209,2.299,3.463,4.479,3.036
					c2.103-0.421,3.379-2.329,2.955-4.421c-0.428-2.155-2.325-3.4-4.538-2.958C127.714,123.479,126.424,125.416,126.827,127.434z"/>
			</g>
			<g>
				<path fill-rule="evenodd" clip-rule="evenodd" fill="#FFFFFF" d="M126.827,127.434c-0.402-2.018,0.888-3.955,2.896-4.343
					c2.212-0.442,4.109,0.803,4.538,2.958c0.425,2.093-0.852,4-2.955,4.421C129.125,130.896,127.274,129.643,126.827,127.434z
					 M132.28,126.468c-0.173-0.91-1.16-1.576-2.076-1.406c-0.933,0.184-1.612,1.167-1.356,2.083
					c0.277,0.985,0.988,1.455,1.991,1.358C131.754,128.412,132.451,127.385,132.28,126.468z"/>
			</g>
			<g>
				<path fill-rule="evenodd" clip-rule="evenodd" d="M132.28,126.468c0.171,0.917-0.525,1.944-1.441,2.034
					c-1.002,0.097-1.713-0.373-1.991-1.358c-0.256-0.916,0.423-1.898,1.356-2.083C131.12,124.892,132.106,125.558,132.28,126.468z"
					/>
			</g>
			<g>
				<path fill="#FFAA2C" d="M129.189,174.443c-4.337,0-8.684-0.607-12.937-1.833c-11.818-3.408-21.486-11.188-27.221-21.91
					c-0.489-0.914-0.145-2.051,0.769-2.539c0.916-0.49,2.05-0.144,2.54,0.769c5.253,9.82,14.115,16.95,24.952,20.075
					c10.859,3.13,22.409,1.87,32.524-3.55c0.914-0.487,2.051-0.144,2.541,0.768c0.489,0.914,0.146,2.05-0.768,2.541
					C144.562,172.527,136.893,174.443,129.189,174.443z"/>
			</g>
			<g>
				<path fill="#FFFFFF" d="M174.473,140.069c-0.16,0-0.324-0.021-0.487-0.065c-1-0.269-1.594-1.298-1.325-2.298
					c6.132-22.847-7.995-46.568-31.49-52.879c-1.001-0.269-1.594-1.298-1.325-2.298c0.268-1.002,1.298-1.601,2.298-1.326
					c25.494,6.848,40.809,32.632,34.141,57.476C176.06,139.517,175.302,140.069,174.473,140.069z"/>
			</g>
			<g opacity="0.8">
				<path fill="#FF5A29" d="M87.527,145.705c-0.731,0-1.426-0.43-1.729-1.146c-10.075-23.797,0.589-51.157,23.771-60.989
					c0.954-0.406,2.056,0.04,2.459,0.995c0.405,0.954-0.041,2.055-0.995,2.459c-21.278,9.025-31.049,34.179-21.781,56.072
					c0.404,0.955-0.042,2.056-0.996,2.459C88.019,145.657,87.771,145.705,87.527,145.705z"/>
			</g>
		</g>
	</g>
	<g>
		<g>
			<circle fill="#2E3035" cx="29.296" cy="202.393" r="29.296"/>
		</g>
		<g>
			<path fill="#E6E7E8" d="M19,219.36v-2.876l3.675-3.568c8.842-8.417,12.836-12.89,12.89-18.109c0-3.516-1.705-6.766-6.872-6.766
				c-3.143,0-5.752,1.599-7.35,2.931l-1.491-3.303c2.396-2.023,5.805-3.515,9.8-3.515c7.457,0,10.599,5.113,10.599,10.067
				c0,6.391-4.634,11.558-11.931,18.589l-2.77,2.556v0.108h15.553v3.887H19z"/>
		</g>
	</g>
</g>
</svg>
