<?xml version="1.0" encoding="utf-8"?>
<!-- Generator: Adobe Illustrator 16.0.3, SVG Export Plug-In . SVG Version: 6.00 Build 0)  -->
<!DOCTYPE svg PUBLIC "-//W3C//DTD SVG 1.1//EN" "http://www.w3.org/Graphics/SVG/1.1/DTD/svg11.dtd">
<svg version="1.1" id="Layer_1" xmlns="http://www.w3.org/2000/svg" xmlns:xlink="http://www.w3.org/1999/xlink" x="0px" y="0px"
	 width="22px" height="16px" viewBox="0 0 22 16" enable-background="new 0 0 22 16" xml:space="preserve">
<g id="Icons_with_numbers_4_">
	<g>
		<g id="Group_9_" transform="translate(-336.000000, 0.000000)">
			<path id="Shape_9_" d="M349.725,8.617l7.777,6.668c-0.281,0.267-0.664,0.43-1.087,0.43h-18.83c-0.424,0-0.808-0.162-1.089-0.428
				l7.779-6.67L347,11L349.725,8.617z M347,9.43l-10.502-9C336.779,0.163,337.162,0,337.585,0h18.83
				c0.424,0,0.808,0.162,1.089,0.427L347,9.43z M358,14.436l-7.59-6.454L358,1.375V14.436L358,14.436z M336,14.436V1.378l7.59,6.604
				L336,14.436L336,14.436z"/>
		</g>
	</g>
</g>
</svg>
