<?xml version="1.0" encoding="utf-8"?>
<!-- Generator: Adobe Illustrator 16.0.3, SVG Export Plug-In . SVG Version: 6.00 Build 0)  -->
<!DOCTYPE svg PUBLIC "-//W3C//DTD SVG 1.1//EN" "http://www.w3.org/Graphics/SVG/1.1/DTD/svg11.dtd">
<svg version="1.1" id="Layer_1" xmlns="http://www.w3.org/2000/svg" xmlns:xlink="http://www.w3.org/1999/xlink" x="0px" y="0px"
	 width="256px" height="256px" viewBox="0 0 256 256" enable-background="new 0 0 256 256" xml:space="preserve">
<g>
	<path fill="#FFAA2C" d="M48.385,76.258h11.092c0.611,0,1.107-0.496,1.107-1.107c0-0.609-0.498-1.108-1.108-1.108l-11.09,0.002
		c-0.612-0.002-1.111,0.489-1.111,1.106C47.274,75.763,47.771,76.26,48.385,76.258z"/>
	<g>
		<g>
			<path fill="#00C6F2" d="M136.196,247.075c-65.89,0-119.494-53.626-119.494-119.54C16.702,61.624,70.307,8,136.196,8
				c65.893,0,119.499,53.624,119.499,119.535C255.695,193.449,202.089,247.075,136.196,247.075z M136.196,9.558
				c-65.03,0-117.936,52.924-117.936,117.977c0,65.056,52.906,117.981,117.936,117.981c65.032,0,117.94-52.926,117.94-117.981
				C254.137,62.482,201.229,9.558,136.196,9.558z"/>
		</g>
		<g>
			<path fill="#FF5A29" d="M246.004,127.535c0,60.666-49.161,109.839-109.808,109.839c-60.644,0-109.803-49.173-109.803-109.839
				c0-60.663,49.16-109.833,109.803-109.833C196.843,17.702,246.004,66.872,246.004,127.535z"/>
		</g>
		<g>
			<path fill="#2E3035" d="M198.874,94.868l-24.4-24.418c-1.529-1.522-3.604-2.371-5.754-2.373l-85.43-0.003
				c-6.73,0-12.206,5.467-12.206,12.206l-0.003,97.667c0,6.729,5.473,12.203,12.205,12.207h105.77
				c6.73,0.004,12.202-5.475,12.202-12.207l0.003-77.326C201.258,98.464,200.403,96.401,198.874,94.868z"/>
		</g>
		<g>
			<path fill="#F1F2F2" d="M193.125,177.953c-0.004,2.244-1.823,4.055-4.069,4.059l-105.77-0.004
				c-2.251,0.004-4.069-1.815-4.069-4.062l0.004-97.667c0-2.252,1.814-4.065,4.07-4.069l81.354,0.004v16.275l-0.009,0.002
				c0.001,6.747,5.471,12.209,12.207,12.213h4.07h12.211V177.953z"/>
		</g>
		<g>
			<path fill="#FF5A29" d="M180.91,100.624h-4.066c-4.483,0-8.139-3.636-8.135-8.135l0.007,0.002V76.214l24.409,24.41H180.91z"/>
		</g>
		<g>
			<path fill="#2E3035" d="M90.324,96.561h20.338c1.121,0,2.035-0.917,2.035-2.034c0-1.12-0.915-2.033-2.038-2.033H90.326
				c-1.126,0-2.043,0.906-2.043,2.031C88.283,95.644,89.2,96.564,90.324,96.561z"/>
		</g>
		<g>
			<path fill="#2E3035" d="M90.324,108.771h20.338c1.12,0,2.035-0.921,2.035-2.042c0-1.119-0.915-2.025-2.035-2.025L90.326,104.7
				c-1.13,0.004-2.043,0.91-2.043,2.029C88.283,107.853,89.196,108.771,90.324,108.771z"/>
		</g>
		<g>
			<path fill="#2E3035" d="M87.35,118.938c0.008,1.119,0.917,2.038,2.04,2.038l48.819,0.003c1.119,0,2.036-0.918,2.036-2.041
				c0-1.127-0.917-2.029-2.036-2.029l-48.819-0.007C88.267,116.902,87.357,117.809,87.35,118.938z"/>
		</g>
		<g>
			<path fill="#2E3035" d="M182.95,141.325l-93.567-0.006c-1.118,0-2.033,0.901-2.033,2.033c-0.002,1.119,0.917,2.034,2.033,2.038
				l93.567-0.004c1.116,0,2.031-0.911,2.031-2.034C184.981,142.225,184.073,141.325,182.95,141.325z"/>
		</g>
		<g>
			<path fill="#2E3035" d="M182.95,153.534l-93.564-0.004c-1.119,0.004-2.032,0.899-2.036,2.025
				c0.004,1.121,0.915,2.038,2.036,2.038h93.564c1.119,0,2.035-0.909,2.035-2.034C184.985,154.43,184.069,153.536,182.95,153.534z"
				/>
		</g>
		<g>
			<path fill="#2E3035" d="M182.95,165.739l-93.567-0.005c-1.118,0.001-2.033,0.896-2.033,2.028
				c-0.002,1.123,0.912,2.042,2.036,2.038l93.562,0.004c1.122,0.004,2.034-0.913,2.034-2.036
				C184.985,166.637,184.069,165.741,182.95,165.739z"/>
		</g>
		<g>
			<path fill="#2E3035" d="M182.95,129.12l-93.561-0.006c-1.123,0-2.036,0.901-2.04,2.031c0,1.126,0.917,2.034,2.04,2.034
				l93.561,0.004c1.125,0,2.035-0.913,2.038-2.034C184.988,130.024,184.073,129.12,182.95,129.12z"/>
		</g>
		<g>
			<g>
				<polygon fill="#FF5A29" points="160.202,94.656 150.728,118.408 174.838,109.289 				"/>
				<path fill="#FF5A29" d="M150.728,119.544c-0.299,0-0.593-0.118-0.81-0.34c-0.316-0.321-0.412-0.799-0.245-1.217l9.474-23.752
					c0.142-0.354,0.452-0.614,0.826-0.69c0.376-0.078,0.761,0.038,1.031,0.309l14.636,14.632c0.274,0.273,0.389,0.665,0.309,1.042
					c-0.081,0.378-0.348,0.688-0.71,0.823l-24.109,9.119C150.998,119.52,150.862,119.544,150.728,119.544z M160.617,96.679
					l-7.878,19.755l20.051-7.585L160.617,96.679z"/>
			</g>
			<g>
				<path fill="#2E3035" d="M176.51,107.621c-4.04,4.05-10.593,4.05-14.632,0l0,0c-4.038-4.046-4.038-10.607-0.002-14.647
					l74.507-74.518c4.041-4.046,10.59-4.046,14.633,0l0,0c4.04,4.044,4.047,10.588,0,14.641L176.51,107.621z"/>
				<path fill="#E6E7E8" d="M169.194,112.621c-3.29,0-6.381-1.283-8.706-3.613c-4.796-4.806-4.796-12.621,0-17.422l74.507-74.519
					c2.325-2.327,5.416-3.608,8.704-3.608c3.286,0,6.379,1.281,8.704,3.609c4.796,4.801,4.796,12.613,0,17.415l-74.505,74.526
					C175.575,111.338,172.482,112.621,169.194,112.621z M243.699,17.384c-2.238,0-4.345,0.873-5.928,2.459l-74.507,74.519
					c-3.269,3.271-3.267,8.598,0.003,11.874c1.582,1.587,3.688,2.461,5.927,2.461c2.238,0,4.343-0.874,5.926-2.461l74.507-74.527
					c3.268-3.271,3.268-8.595,0-11.866C248.042,18.257,245.938,17.384,243.699,17.384z"/>
			</g>
		</g>
		<g>
			<path fill="#FFAA2C" d="M126,157.594h20.342c1.119,0,2.027-0.909,2.027-2.032c0-1.118-0.91-2.031-2.027-2.031L126,153.534
				c-1.125-0.004-2.036,0.897-2.036,2.027C123.964,156.685,124.875,157.594,126,157.594z"/>
		</g>
		<g>
			<path fill="#FF5A29" d="M117.869,120.977h20.34c1.123,0,2.036-0.919,2.036-2.038c0-1.121-0.917-2.029-2.036-2.029h-20.336
				c-1.125,0-2.04,0.899-2.04,2.025C115.829,120.062,116.748,120.977,117.869,120.977z"/>
		</g>
		<g>
			<path fill="#FF5A29" d="M157.483,157.594h20.34c1.117,0,2.032-0.909,2.032-2.032c0-1.118-0.915-2.031-2.032-2.031l-20.34,0.004
				c-1.119-0.004-2.035,0.897-2.035,2.027C155.445,156.685,156.358,157.594,157.483,157.594z"/>
		</g>
		<g>
			<path fill="#FF5A29" d="M89.39,169.801h20.338c1.117,0,2.033-0.909,2.033-2.028c0-1.118-0.916-2.033-2.037-2.033l-20.334,0.002
				c-1.123-0.002-2.04,0.898-2.04,2.027C87.35,168.895,88.265,169.801,89.39,169.801z"/>
		</g>
		<g>
			<path fill="#FFAA2C" d="M112.045,145.387h20.342c1.121,0,2.029-0.911,2.029-2.032c0-1.118-0.912-2.033-2.033-2.033l-20.338,0.004
				c-1.119-0.004-2.036,0.899-2.036,2.027C110.009,144.478,110.926,145.387,112.045,145.387z"/>
		</g>
		<g opacity="0.6">
			<path fill="#FFFFFF" d="M171.193,100.273c-0.496,0-0.992-0.189-1.37-0.567c-0.758-0.758-0.758-1.984,0-2.741l39.819-39.83
				c0.756-0.758,1.984-0.757,2.74-0.001c0.758,0.757,0.758,1.984,0,2.741l-39.82,39.831
				C172.186,100.084,171.689,100.273,171.193,100.273z"/>
		</g>
	</g>
	<g>
		<g>
			<circle fill="#2E3035" cx="30.26" cy="209.548" r="30.26"/>
		</g>
		<g>
			<path fill="#E6E7E8" d="M27.836,195.823h-0.11l-6.216,3.356l-0.936-3.688l7.813-4.18h4.125v35.76h-4.676V195.823z"/>
		</g>
	</g>
</g>
</svg>
