<?xml version="1.0" encoding="utf-8"?>
<!-- Generator: Adobe Illustrator 16.0.3, SVG Export Plug-In . SVG Version: 6.00 Build 0)  -->
<!DOCTYPE svg PUBLIC "-//W3C//DTD SVG 1.1//EN" "http://www.w3.org/Graphics/SVG/1.1/DTD/svg11.dtd">
<svg version="1.1" id="Layer_1" xmlns="http://www.w3.org/2000/svg" xmlns:xlink="http://www.w3.org/1999/xlink" x="0px" y="0px"
	 width="128px" height="114px" viewBox="0 0 128 114" enable-background="new 0 0 128 114" xml:space="preserve">
<g>
	<path fill-rule="evenodd" clip-rule="evenodd" fill="#FFAA2C" d="M39.108,48.08c-0.921,2.342-1.957,4.584-2.696,6.92
		c-4.425,13.985-3.591,27.574,3.343,40.625c0.961,1.81,2.26,3.439,3.29,5.215c0.302,0.524,0.222,1.271,0.316,1.912
		c-0.694,0.069-1.536,0.429-2.056,0.162c-15.214-7.813-25.765-19.449-29.499-36.513c-2.171-9.93-1.231-19.711,2.027-29.288
		c0.356-1.052,0.204-1.518-0.817-1.991c-3.39-1.567-6.725-3.25-10.092-4.868c-1.097-0.527-1.94-1.25-1.926-2.55
		c0.015-1.32,0.925-1.945,2.042-2.43C15.431,19.88,27.81,14.46,40.196,9.062c3.227-1.405,3.733-1.251,4.619,2.069
		c2.826,10.621,5.559,21.265,8.312,31.905c0.672,2.601,1.27,5.219,1.903,7.829c0.267,1.095,0.447,2.212-0.548,3.029
		c-1.033,0.849-2.126,0.473-3.19-0.038c-3.782-1.821-7.565-3.635-11.349-5.45C39.762,48.32,39.569,48.259,39.108,48.08z"/>
	<path fill-rule="evenodd" clip-rule="evenodd" fill="#FFAA2C" d="M53.875,12.78c-0.907-2.7-1.787-5.31-2.669-7.927
		c17.833-7.576,45.181-4.904,62.934,16.362c17.234,20.646,17.094,50.917-0.096,71.23c-18.332,21.662-46.261,24.149-65.016,15.529
		c2.284-2.24,2.948-4.977,2.417-8.176c12.085,5.168,24.243,5.666,36.479,1.065c9.317-3.507,16.767-9.48,22.345-17.721
		c10.911-16.117,10.626-37.637-0.294-53.331C99.626,14.941,77.683,3.988,53.875,12.78z"/>
	<path fill-rule="evenodd" clip-rule="evenodd" fill="#FFAA2C" d="M64.115,58.444c0.059-2.432,0.832-4.482,2.409-6.181
		c6.144-6.625,12.29-13.246,18.473-19.83c0.549-0.584,1.339-1.013,2.095-1.319c1.315-0.53,2.601-0.272,3.62,0.712
		c0.951,0.917,1.198,2.104,0.813,3.369c-0.196,0.636-0.436,1.272-0.752,1.854c-3.521,6.541-7.04,13.083-10.614,19.595
		c-0.498,0.911-0.444,1.5,0.214,2.297c6.494,7.875,12.954,15.78,19.413,23.684c1.339,1.636,1.037,3.768-0.661,4.937
		c-1.234,0.851-2.484,0.718-3.902-0.44c-5.556-4.551-11.108-9.105-16.662-13.662c-3.964-3.251-7.913-6.518-11.896-9.744
		C64.936,62.313,64.203,60.485,64.115,58.444z"/>
	<path fill-rule="evenodd" clip-rule="evenodd" fill="#FFAA2C" d="M104.153,51.612c2.844,0.022,5.223,2.438,5.187,5.262
		c-0.039,2.848-2.475,5.217-5.293,5.149c-2.818-0.065-5.111-2.395-5.118-5.197C98.923,53.974,101.311,51.592,104.153,51.612z"/>
	<path fill-rule="evenodd" clip-rule="evenodd" fill="#FFAA2C" d="M71.112,86.087c2.863,0.004,5.212,2.372,5.186,5.228
		c-0.023,2.786-2.375,5.11-5.175,5.112c-2.897,0.002-5.245-2.313-5.231-5.162C65.902,88.379,68.22,86.083,71.112,86.087z"/>
	<path fill-rule="evenodd" clip-rule="evenodd" fill="#FFAA2C" d="M70.958,26.289c-2.853-0.057-5.171-2.422-5.068-5.179
		c0.101-2.886,2.489-5.175,5.328-5.104c2.765,0.069,5.099,2.472,5.082,5.235C76.283,24.069,73.874,26.346,70.958,26.289z"/>
</g>
</svg>
