<?xml version="1.0" encoding="utf-8"?>
<!-- Generator: Adobe Illustrator 16.0.3, SVG Export Plug-In . SVG Version: 6.00 Build 0)  -->
<!DOCTYPE svg PUBLIC "-//W3C//DTD SVG 1.1//EN" "http://www.w3.org/Graphics/SVG/1.1/DTD/svg11.dtd">
<svg version="1.1" id="Layer_1" xmlns="http://www.w3.org/2000/svg" xmlns:xlink="http://www.w3.org/1999/xlink" x="0px" y="0px"
	 width="83px" height="48px" viewBox="0 0 83 48" enable-background="new 0 0 83 48" xml:space="preserve">
<g>
	<path fill-rule="evenodd" clip-rule="evenodd" fill="#F1F2F2" d="M79.614,8.987c1.664-0.006,1.684,0.008,2.324,1.584
		c0.109,0.268,0.219,0.535,0.314,0.805c0.693,1.969,0.678,2.016-0.926,3.34c-1.414,1.166-1.373,2.383,0.119,3.457
		c1.699,1.225,1.701,1.225,1.168,3.242c-0.053,0.193-0.104,0.387-0.168,0.578c-0.613,1.816-0.57,1.992-2.533,2.012
		c-1.969,0.021-2.666,1.105-2.033,2.977c0.1,0.301,0.178,0.609,0.303,0.898c0.268,0.625,0.1,1.129-0.408,1.533
		c-0.74,0.596-1.484,1.186-2.242,1.76c-0.551,0.414-1.117,0.377-1.68-0.012c-0.402-0.277-0.807-0.563-1.24-0.785
		c-1.104-0.574-2.125-0.199-2.625,0.938c-0.047,0.105-0.1,0.211-0.129,0.32c-0.666,2.498-0.768,2.088-2.949,2.289
		c-0.428,0.041-0.863-0.008-1.295,0.004c-0.869,0.027-1.334-0.379-1.635-1.211c-0.979-2.691-1.883-2.947-4.135-1.188
		c-0.719,0.563-1.352,0.676-2.1,0.137c-0.723-0.52-1.473-1.006-2.199-1.523c-0.504-0.359-0.65-0.84-0.457-1.443
		c0.158-0.492,0.299-0.994,0.395-1.502c0.225-1.193-0.49-2.111-1.701-2.211c-0.258-0.02-0.518-0.016-0.777-0.01
		c-1.758,0.033-1.838-0.018-2.484-1.621c-0.076-0.186-0.139-0.377-0.207-0.568c-0.771-2.156-0.771-2.156,0.93-3.617
		c1.311-1.125,1.252-2.305-0.162-3.34c-1.777-1.297-1.777-1.297-1.182-3.391c0.057-0.195,0.109-0.391,0.172-0.58
		c0.607-1.801,0.619-1.818,2.359-1.893c2.227-0.09,2.832-1.07,2.094-3.197c-0.551-1.586-0.537-1.637,0.732-2.709
		c0.133-0.109,0.266-0.221,0.4-0.328c1.871-1.492,1.871-1.492,3.932-0.293c1.4,0.814,2.537,0.404,3.031-1.145
		c0.746-2.332,0.375-2.012,3.061-2.277c0.344-0.035,0.693,0,1.037-0.012c0.922-0.035,1.563,0.314,1.777,1.27
		c0.018,0.082,0.07,0.156,0.102,0.238c0.893,2.301,1.879,2.574,3.877,1.074c1.191-0.895,1.271-0.898,2.521-0.143
		c0.148,0.09,0.291,0.186,0.438,0.279c2.152,1.395,2.152,1.395,1.625,3.84c-0.314,1.449,0.404,2.381,1.865,2.422
		C79.153,8.993,79.383,8.987,79.614,8.987z M56.477,16.985c0.021,5.441,4.371,9.805,9.766,9.801
		c5.375-0.006,9.811-4.445,9.793-9.805c-0.016-5.473-4.434-9.809-9.969-9.785C60.792,7.219,56.456,11.645,56.477,16.985z"/>
	<path fill-rule="evenodd" clip-rule="evenodd" fill="#F1F2F2" d="M20.047,19.247c-0.037,5.6-4.496,9.982-10.115,9.941
		C4.389,29.149-0.044,24.61,0,19.024c0.043-5.461,4.617-9.908,10.152-9.869C15.667,9.194,20.084,13.7,20.047,19.247z"/>
	<path fill-rule="evenodd" clip-rule="evenodd" fill="#F1F2F2" d="M18.096,28.59c2.602-2.434,4.014-5.307,4.25-8.857
		c0.854,0.395,1.652,0.764,2.451,1.135c7.197,3.352,14.398,6.691,21.588,10.059c3.322,1.559,4.031,5.645,1.439,8.1
		c-1.498,1.42-3.58,1.738-5.609,0.799c-4.672-2.16-9.336-4.344-14.002-6.52C24.877,31.75,21.542,30.196,18.096,28.59z"/>
	<path fill-rule="evenodd" clip-rule="evenodd" fill="#F1F2F2" d="M32.389,37.829c2.469,1.094,4.857,2.154,7.252,3.203
		c0.922,0.406,1.875,0.742,2.779,1.184c1.273,0.625,2.555,0.59,3.867,0.203c2.93-0.861,5.176-3.529,5.41-6.416
		c0.234-2.9-1.549-5.857-4.348-7.166c-2.738-1.281-5.484-2.543-8.227-3.813c-0.205-0.094-0.406-0.195-0.623-0.301
		c1.027-0.961,1.523-0.984,2.48-0.141c1.287,1.137,2.123,1.023,2.793-0.52c0.416-0.957,1.035-1.211,1.969-1.033
		c0.283,0.055,0.566,0.113,0.854,0.129c0.867,0.049,1.32,0.428,1.475,1.348c0.295,1.762,1.092,2.127,2.666,1.236
		c0.756-0.426,1.336-0.395,1.916,0.227c0.197,0.209,0.426,0.387,0.631,0.59c1.02,0.992,1.021,1.002,0.473,2.301
		c-0.588,1.393-0.193,2.236,1.305,2.355c1.129,0.09,1.59,0.6,1.695,1.629c0.035,0.344,0.092,0.688,0.184,1.02
		c0.201,0.703-0.057,1.168-0.691,1.477c-0.232,0.113-0.457,0.246-0.67,0.395c-0.92,0.635-1.008,1.422-0.254,2.252
		c0.193,0.213,0.398,0.42,0.617,0.605c0.436,0.369,0.516,0.803,0.289,1.314c-0.164,0.367-0.305,0.746-0.48,1.109
		c-0.639,1.314-0.643,1.313-2.096,1.16c-1.379-0.146-1.967,0.471-1.84,1.869c0.047,0.52,0.199,1.307-0.066,1.525
		c-0.736,0.602-1.641,1.031-2.535,1.391c-0.238,0.096-0.729-0.25-1.012-0.494c-1.449-1.252-2.176-1.154-2.947,0.553
		c-0.381,0.844-0.916,1.117-1.775,0.918c-0.25-0.059-0.514-0.059-0.771-0.09c-1.355-0.166-1.438-0.242-1.715-1.594
		c-0.297-1.438-1.055-1.797-2.377-1.189c-0.469,0.217-1.188,0.568-1.469,0.377c-0.814-0.551-1.514-1.305-2.143-2.074
		c-0.145-0.178,0.125-0.75,0.279-1.105c0.689-1.602,0.283-2.34-1.426-2.543C32.672,39.577,32.446,39.305,32.389,37.829z"/>
	<path fill-rule="evenodd" clip-rule="evenodd" fill="#F1F2F2" d="M66.276,11.194c3.24,0.025,5.828,2.643,5.787,5.85
		c-0.041,3.219-2.646,5.748-5.904,5.729c-3.164-0.018-5.746-2.627-5.748-5.805C60.409,13.77,63.049,11.168,66.276,11.194z"/>
</g>
</svg>
