<?xml version="1.0" encoding="utf-8"?>
<!-- Generator: Adobe Illustrator 16.0.3, SVG Export Plug-In . SVG Version: 6.00 Build 0)  -->
<!DOCTYPE svg PUBLIC "-//W3C//DTD SVG 1.1//EN" "http://www.w3.org/Graphics/SVG/1.1/DTD/svg11.dtd">
<svg version="1.1" id="Layer_1" xmlns="http://www.w3.org/2000/svg" xmlns:xlink="http://www.w3.org/1999/xlink" x="0px" y="0px"
	 width="28px" height="22px" viewBox="0 0 28 22" enable-background="new 0 0 28 22" xml:space="preserve">
<g>
	<g>
		<path fill="#F1F2F2" d="M27,22H1c-0.552,0-1-0.447-1-1V5c0-0.552,0.448-1,1-1s1,0.448,1,1v15h24V2H1C0.448,2,0,1.552,0,1
			s0.448-1,1-1h26c0.553,0,1,0.448,1,1v20C28,21.553,27.553,22,27,22z"/>
	</g>
	<g>
		<path fill="#F1F2F2" d="M14,14c-0.256,0-0.512-0.098-0.707-0.293l-8-8c-0.391-0.391-0.391-1.023,0-1.414s1.023-0.391,1.414,0
			L14,11.586l7.293-7.293c0.391-0.391,1.023-0.391,1.414,0s0.391,1.023,0,1.414l-8,8C14.512,13.902,14.256,14,14,14z"/>
	</g>
	<g>
		<path fill="#F1F2F2" d="M22.001,18c-0.256,0-0.512-0.098-0.707-0.293l-3.002-3.002c-0.391-0.391-0.391-1.023,0-1.414
			s1.023-0.391,1.414,0l3.002,3.002c0.391,0.391,0.391,1.023,0,1.414C22.513,17.902,22.257,18,22.001,18z"/>
	</g>
	<g>
		<path fill="#F1F2F2" d="M6.001,18c-0.256,0-0.512-0.098-0.707-0.293c-0.391-0.391-0.391-1.023,0-1.414l2.999-2.999
			c0.391-0.391,1.023-0.391,1.414,0c0.391,0.392,0.391,1.023,0,1.414l-2.999,2.999C6.513,17.902,6.257,18,6.001,18z"/>
	</g>
</g>
</svg>
