<?xml version="1.0" encoding="utf-8"?>
<!-- Generator: Adobe Illustrator 16.0.3, SVG Export Plug-In . SVG Version: 6.00 Build 0)  -->
<!DOCTYPE svg PUBLIC "-//W3C//DTD SVG 1.1//EN" "http://www.w3.org/Graphics/SVG/1.1/DTD/svg11.dtd">
<svg version="1.1" id="Layer_1" xmlns="http://www.w3.org/2000/svg" xmlns:xlink="http://www.w3.org/1999/xlink" x="0px" y="0px"
	 width="256px" height="256px" viewBox="0 0 256 256" enable-background="new 0 0 256 256" xml:space="preserve">
<g>
	<g>
		<path fill-rule="evenodd" clip-rule="evenodd" fill="#25282D" d="M132.769,244.319c-2.003-4.895-4-9.78-5.951-14.685
			c-4.028-0.183-8.033-0.468-11.912-0.848c-1.162,2.021-2.334,4.021-3.507,6.022l-1.395,2.383c-1.748,2.969-3.489,5.937-5.21,8.942
			c-1.551,2.716-3.707,4.359-6.409,4.884c-0.556,0.108-1.126,0.162-1.693,0.162c-1.197,0-2.416-0.232-3.727-0.711
			c-4.395-1.622-8.561-3.051-12.737-4.372c-5.014-1.555-7.543-5.628-6.765-10.895c0.511-3.417,0.97-6.891,1.414-10.25
			c0.42-3.175,0.846-6.355,1.305-9.524c-3.231-2.067-6.559-4.317-9.898-6.693c-2.869,1.653-5.752,3.292-8.646,4.92
			c-2.979,1.678-5.958,3.377-8.92,5.081c-1.109,0.644-2.21,1.075-3.364,1.317c-0.543,0.103-1.101,0.154-1.665,0.154
			c-1.937,0-4.759-0.616-7.204-3.553c-3.071-3.699-5.964-7.031-8.842-10.185c-3.618-3.937-3.748-8.814-0.348-13.046
			c2.556-3.221,5.042-6.448,6.923-8.9l0.805-1.044c1.454-1.885,2.913-3.778,4.387-5.653c-1.757-3.411-3.474-6.93-5.242-10.743
			c-5.612-0.014-27.672-0.113-27.672-0.113l-0.312-0.002l-5.75-29.628l13.313-5.425c4.187-1.707,8.373-3.413,12.58-5.112
			c0.227-4.444,0.508-8.353,0.859-11.934c-2.263-1.304-4.513-2.622-6.752-3.933l-3.717-2.181c-2.287-1.344-4.576-2.689-6.879-4.015
			c-4.488-2.567-6.092-6.998-4.292-11.853c1.652-4.501,3.061-8.599,4.307-12.526c1.602-5.079,5.211-6.503,7.221-6.9
			c0.64-0.117,1.295-0.176,1.955-0.176c0.604,0,1.234,0.049,1.871,0.147c3.672,0.563,7.373,1.048,11.157,1.537
			c2.849,0.382,5.701,0.774,8.537,1.167c2.409-3.714,4.531-6.856,6.653-9.852c-1.54-2.659-3.03-5.292-4.526-7.937l-1.189-2.096
			c-1.388-2.448-2.774-4.893-4.191-7.316c-2.681-4.564-1.868-9.29,2.176-12.639c3.752-3.098,7.085-5.989,10.188-8.84
			c1.529-1.39,3.117-2.23,4.858-2.573c0.563-0.108,1.129-0.164,1.685-0.164c2.097,0,4.138,0.775,6.067,2.305
			c2.654,2.103,5.342,4.18,8.029,6.256l7.875,6.077c3.376-1.706,6.873-3.411,10.675-5.205c0.018-6.334,0.118-27.67,0.118-27.67
			l0.001-0.312l29.636-5.739l5.521,13.59c1.676,4.112,3.352,8.226,5.074,12.316c1.606,0.132,3.208,0.239,4.815,0.346l1.603,0.109
			c1.807,0.125,3.609,0.249,5.403,0.403c1.516-2.62,3.046-5.218,4.577-7.807c1.854-3.166,3.714-6.349,5.537-9.526
			c1.569-2.741,3.735-4.39,6.438-4.902c0.553-0.108,1.127-0.163,1.704-0.163c1.189,0,2.428,0.233,3.682,0.691
			c3.96,1.443,8.215,2.959,12.49,4.263c5.271,1.588,7.819,5.689,6.99,11.251c-0.378,2.592-0.726,5.188-1.074,7.786l-0.355,2.643
			c-0.395,3.044-0.797,6.069-1.221,9.119c3.331,2.132,6.577,4.324,9.912,6.692c2.98-1.723,5.977-3.432,8.971-5.135
			c2.85-1.612,5.707-3.23,8.544-4.87c1.165-0.67,2.279-1.108,3.406-1.34c0.56-0.106,1.127-0.159,1.691-0.159
			c1.901,0,4.68,0.618,7.12,3.564c3.117,3.775,5.955,7.035,8.678,9.966c3.817,4.112,3.976,9.011,0.438,13.442
			c-2.631,3.283-5.245,6.666-7.771,9.938l-0.982,1.271c-1.081,1.419-2.162,2.832-3.258,4.243c0.908,1.812,1.785,3.615,2.67,5.438
			c0.848,1.757,1.711,3.51,2.58,5.253c5.745,0.077,11.488,0.087,16.36,0.087l11.619,0.04l5.75,29.651l-14.016,5.692
			c-3.972,1.615-7.938,3.226-11.885,4.881c-0.153,1.847-0.276,3.673-0.4,5.53c-0.145,2.102-0.295,4.223-0.464,6.334
			c2.243,1.305,4.477,2.615,6.715,3.931c3.939,2.338,7.165,4.21,10.15,5.891c4.98,2.813,6.686,7.422,4.68,12.644
			c-1.555,4.041-2.947,8.061-4.138,11.947c-1.593,5.145-5.253,6.571-7.294,6.964c-0.634,0.122-1.305,0.184-1.996,0.184
			c-0.632,0-1.304-0.052-1.999-0.154c-3.374-0.501-6.78-0.955-10.189-1.408l-0.208-0.028c-3.027-0.398-6.056-0.797-9.059-1.233
			c-2.086,3.309-4.339,6.641-6.703,9.909c1.746,3,3.446,6,5.142,8.991l0.458,0.809c1.462,2.587,2.93,5.182,4.425,7.748
			c2.53,4.421,1.731,8.99-2.134,12.224c-3.628,3.028-6.997,5.97-10.012,8.744c-1.643,1.48-3.321,2.373-5.133,2.729
			c-0.583,0.112-1.169,0.169-1.744,0.169c-2.199,0-4.333-0.818-6.344-2.429c-3.676-2.93-7.37-5.767-10.814-8.395
			c-0.938-0.73-1.878-1.451-2.816-2.171l-2.027-1.56c-1.77,0.869-3.54,1.729-5.319,2.586c-1.779,0.869-3.554,1.738-5.323,2.617
			c-0.061,4.436-0.074,8.878-0.087,13.332l-0.04,14.701l-29.634,5.756L132.769,244.319z M128.418,63.111
			c-3.978,0-7.984,0.387-11.909,1.15l-1.175,0.222c-34.302,6.653-57.313,40.032-51.292,74.408
			c3.039,17.326,12.728,32.379,27.282,42.388c10.966,7.559,23.658,11.554,36.704,11.555c0,0,0.002,0,0.003,0
			c4.086,0,8.211-0.397,12.263-1.18c34.721-6.849,57.792-40.691,51.427-75.438c-3.112-17.075-12.793-31.913-27.26-41.782
			C153.611,67.026,141.147,63.111,128.418,63.111z"/>
		<path fill="#00C6F2" d="M118.41,0.864l4.152,10.23c2.125,5.206,4.234,10.423,6.417,15.603c1.927,0.162,3.846,0.284,5.777,0.414
			c2.179,0.151,4.352,0.295,6.513,0.484c1.555-2.689,3.125-5.356,4.696-8.013c1.856-3.168,3.716-6.352,5.54-9.53
			c1.506-2.631,3.598-4.229,6.179-4.718c0.535-0.105,1.08-0.157,1.633-0.157c1.151,0,2.339,0.225,3.552,0.668
			c3.938,1.435,8.175,2.948,12.51,4.27c5.073,1.528,7.52,5.496,6.724,10.833c-0.506,3.474-0.958,6.949-1.43,10.434
			c-0.405,3.125-0.818,6.228-1.254,9.359c3.377,2.156,6.739,4.42,10.3,6.954c3.049-1.764,6.116-3.512,9.18-5.255
			c2.851-1.613,5.708-3.232,8.547-4.872c1.14-0.656,2.216-1.075,3.293-1.296c0.447-0.085,0.997-0.152,1.615-0.152
			c1.927,0,4.527,0.65,6.828,3.428c3.126,3.787,5.964,7.046,8.692,9.982c3.674,3.958,3.83,8.676,0.419,12.947
			c-2.968,3.705-5.863,7.469-8.757,11.213c-1.13,1.484-2.258,2.958-3.404,4.431c0.946,1.884,1.856,3.755,2.776,5.648
			c0.881,1.828,1.78,3.651,2.684,5.464c5.522,0.076,11.063,0.09,16.597,0.09l11.306,0.039l5.632,29.039l-10.35,4.2
			c-5.174,2.108-10.342,4.19-15.479,6.346c-0.162,1.927-0.291,3.83-0.42,5.766c-0.15,2.179-0.307,4.379-0.483,6.568
			c2.312,1.345,4.614,2.694,6.92,4.05c3.372,2.001,6.757,3.98,10.156,5.895c4.797,2.71,6.438,7.164,4.512,12.177
			c-1.564,4.065-2.963,8.11-4.147,11.971c-1.532,4.949-5.045,6.326-7.002,6.702c-0.612,0.118-1.25,0.177-1.924,0.177
			c-0.616,0-1.263-0.05-1.943-0.15c-3.443-0.511-6.922-0.973-10.402-1.436c-3.109-0.409-6.218-0.818-9.299-1.269
			c-2.216,3.527-4.541,6.954-6.965,10.299c1.947,3.341,3.835,6.681,5.723,10.009c1.462,2.587,2.931,5.185,4.427,7.751
			c2.431,4.249,1.666,8.633-2.05,11.742c-3.48,2.904-6.857,5.84-10.025,8.755c-1.587,1.43-3.201,2.292-4.949,2.636
			c-0.56,0.107-1.117,0.162-1.67,0.162c-2.103,0-4.151-0.779-6.106-2.345c-3.576-2.851-7.185-5.626-10.822-8.4
			c-1.672-1.303-3.361-2.583-5.028-3.874c-1.84,0.904-3.679,1.798-5.528,2.689c-1.852,0.904-3.696,1.808-5.535,2.721
			c-0.081,5.691-0.081,11.393-0.102,17.115l-0.027,10.842l-29.021,5.637l-4.465-10.96c-2.034-4.97-4.06-9.93-6.04-14.91
			c-4.115-0.183-8.26-0.473-12.381-0.882c-1.663,2.894-3.346,5.745-5.023,8.615c-1.748,2.97-3.49,5.938-5.212,8.945
			c-1.501,2.63-3.577,4.2-6.152,4.701c-0.536,0.104-1.075,0.155-1.621,0.155c-1.157,0-2.344-0.231-3.596-0.688
			c-4.663-1.721-8.842-3.141-12.753-4.377c-4.82-1.495-7.25-5.422-6.503-10.478c0.512-3.42,0.964-6.841,1.416-10.262
			c0.43-3.249,0.867-6.508,1.338-9.756c-3.474-2.218-6.905-4.545-10.288-6.956c-2.938,1.694-5.89,3.372-8.854,5.04
			c-2.979,1.679-5.959,3.378-8.923,5.083c-1.113,0.646-2.178,1.049-3.253,1.275c-0.39,0.074-0.936,0.146-1.586,0.146
			c-1.854,0-4.559-0.589-6.912-3.417c-3.189-3.841-6.095-7.175-8.854-10.198c-3.474-3.781-3.603-8.482-0.333-12.552
			c2.323-2.928,4.631-5.912,6.928-8.907c1.768-2.292,3.543-4.604,5.34-6.886c-1.732-3.355-3.507-6.97-5.449-11.164
			c-5.185-0.013-27.913-0.114-27.913-0.114l-5.631-29.017l11.483-4.68c4.776-1.947,9.546-3.894,14.344-5.83
			c0.237-4.71,0.528-8.713,0.894-12.402c-2.954-1.7-5.885-3.426-8.8-5.131c-2.915-1.711-5.825-3.432-8.76-5.121
			c-4.314-2.468-5.853-6.734-4.126-11.391c1.65-4.496,3.061-8.595,4.313-12.543c1.543-4.895,4.997-6.26,6.933-6.643
			c0.604-0.11,1.228-0.168,1.881-0.168c0.58,0,1.183,0.046,1.814,0.143c3.716,0.57,7.454,1.059,11.165,1.538
			c2.926,0.393,5.858,0.796,8.773,1.2c2.581-3.985,4.781-7.233,6.917-10.241c-1.625-2.802-3.194-5.577-4.771-8.363
			c-1.748-3.077-3.479-6.153-5.259-9.198c-2.578-4.389-1.792-8.939,2.091-12.155c3.701-3.056,7.042-5.95,10.203-8.854
			c1.48-1.345,3.007-2.152,4.674-2.479c0.542-0.105,1.079-0.157,1.612-0.157c2.016,0,3.968,0.746,5.832,2.223
			c3.12,2.473,6.287,4.909,9.446,7.351c2.215,1.705,4.442,3.426,6.652,5.132c3.421-1.732,7.078-3.518,11.096-5.411
			c0.016-6.014,0.118-27.909,0.118-27.909L118.41,0.864 M128.028,193.212c4.102,0,8.228-0.393,12.338-1.187
			c35.007-6.906,58.13-40.929,51.729-75.879c-3.128-17.168-12.88-32.109-27.418-42.027c-10.968-7.486-23.519-11.388-36.258-11.388
			c-3.991,0-7.997,0.382-11.982,1.157l-1.172,0.221c-34.503,6.692-57.652,40.269-51.596,74.846
			c3.056,17.421,12.8,32.567,27.441,42.635C102.209,189.242,114.989,193.212,128.028,193.212 M118.879,0l-0.613,0.119L89.244,5.739
			l-0.612,0.119l-0.003,0.623c0,0-0.097,20.816-0.117,27.431c-3.642,1.72-7.006,3.36-10.253,4.999l-0.853-0.659
			c-1.805-1.393-3.618-2.792-5.422-4.181l-1.415-1.093c-2.641-2.041-5.373-4.151-8.022-6.251c-1.999-1.584-4.119-2.388-6.303-2.388
			c-0.58,0-1.17,0.058-1.756,0.171c-1.813,0.356-3.461,1.228-5.041,2.663c-3.102,2.85-6.43,5.737-10.177,8.83
			c-4.2,3.479-5.045,8.385-2.262,13.125c1.415,2.419,2.824,4.905,4.188,7.31l1.066,1.878l0.127,0.224
			c1.429,2.525,2.904,5.131,4.403,7.723c-2.04,2.885-4.084,5.914-6.39,9.463c-2.758-0.382-5.53-0.762-8.297-1.134
			c-3.785-0.489-7.483-0.974-11.151-1.536c-0.656-0.101-1.306-0.151-1.929-0.151c-0.683,0-1.361,0.061-2.018,0.181
			c-2.103,0.415-5.86,1.895-7.521,7.161c-1.244,3.919-2.651,8.012-4.302,12.511c-1.869,5.041-0.202,9.644,4.461,12.312
			c2.3,1.323,4.587,2.667,6.873,4.011l1.88,1.105l1.841,1.078c2.17,1.271,4.349,2.548,6.54,3.812
			c-0.334,3.455-0.604,7.216-0.824,11.466c-4.126,1.667-8.233,3.341-12.342,5.016l-1.555,0.634L0.577,136.87L0,137.106l0.119,0.612
			l5.632,29.017l0.119,0.612l0.623,0.002c0,0,21.455,0.096,27.431,0.113c1.698,3.653,3.35,7.039,5.036,10.32
			c-1.423,1.812-2.833,3.642-4.237,5.464l-0.805,1.044c-1.88,2.452-4.365,5.677-6.922,8.899c-3.525,4.387-3.388,9.449,0.368,13.538
			c2.873,3.147,5.761,6.475,8.829,10.169c2.539,3.05,5.478,3.691,7.497,3.691c0.587,0,1.168-0.054,1.728-0.159
			c1.208-0.254,2.346-0.7,3.492-1.365c3.187-1.833,6.104-3.495,8.915-5.078c2.979-1.677,5.745-3.25,8.438-4.8
			c3.207,2.277,6.401,4.437,9.509,6.43c-0.422,2.924-0.815,5.843-1.27,9.281c-0.444,3.359-0.903,6.834-1.414,10.249
			c-0.808,5.47,1.819,9.699,7.03,11.315c4.167,1.318,8.328,2.746,12.715,4.365c1.355,0.495,2.617,0.735,3.859,0.735
			c0.592,0,1.186-0.057,1.765-0.169c2.816-0.547,5.059-2.253,6.667-5.07c1.768-3.086,3.542-6.107,5.207-8.937l1.396-2.383
			c1.132-1.933,2.265-3.864,3.387-5.814c3.73,0.361,7.575,0.635,11.443,0.814c1.881,4.726,3.771,9.354,5.861,14.461l4.464,10.959
			l0.235,0.578l0.613-0.119l29.021-5.637l0.613-0.119l0.002-0.625l0.027-10.842l0.011-3.548c0.012-4.296,0.025-8.734,0.084-13.096
			c1.7-0.842,3.405-1.678,5.115-2.513c1.706-0.822,3.405-1.647,5.105-2.481c0.612,0.473,1.226,0.944,1.841,1.416
			c0.938,0.72,1.876,1.439,2.811,2.167c3.449,2.632,7.141,5.467,10.814,8.395c2.078,1.666,4.292,2.511,6.58,2.511
			c0.599,0,1.208-0.059,1.814-0.175c1.885-0.371,3.622-1.292,5.314-2.818c3.016-2.775,6.38-5.712,10.004-8.736
			c4.018-3.362,4.849-8.111,2.222-12.701c-1.518-2.604-2.996-5.219-4.425-7.748l-0.464-0.819c-1.629-2.873-3.31-5.84-5.015-8.772
			c2.266-3.142,4.429-6.341,6.44-9.521c3.017,0.437,6.092,0.841,8.821,1.2l0.193,0.025c3.354,0.446,6.823,0.908,10.195,1.409
			c0.714,0.105,1.405,0.158,2.055,0.158c0.714,0,1.41-0.064,2.068-0.191c2.123-0.408,5.933-1.89,7.583-7.223
			c1.189-3.88,2.578-7.891,4.13-11.923c2.05-5.337,0.238-10.238-4.847-13.111c-2.984-1.681-6.207-3.551-10.142-5.887
			c-2.173-1.277-4.339-2.547-6.513-3.813c0.161-2.034,0.306-4.076,0.445-6.1c0.125-1.866,0.24-3.565,0.381-5.296
			c3.877-1.624,7.833-3.232,11.665-4.789l3.382-1.376l10.349-4.2l0.579-0.234l-0.119-0.614l-5.632-29.039l-0.119-0.613l-0.624-0.002
			l-11.306-0.039c-4.807,0-10.46-0.01-16.126-0.084c-0.833-1.673-1.661-3.355-2.473-5.041c-0.853-1.755-1.696-3.489-2.567-5.23
			c1.046-1.35,2.08-2.7,3.115-4.059l0.979-1.267c2.526-3.271,5.138-6.652,7.766-9.932c3.669-4.594,3.502-9.674-0.456-13.938
			c-2.718-2.926-5.551-6.18-8.663-9.949c-2.535-3.061-5.431-3.703-7.413-3.703c-0.588,0-1.179,0.056-1.756,0.165
			c-1.179,0.242-2.33,0.694-3.53,1.384c-2.827,1.633-5.653,3.235-8.542,4.869c-2.926,1.665-5.853,3.333-8.764,5.015
			c-3.201-2.269-6.325-4.378-9.523-6.43c0.384-2.774,0.774-5.686,1.188-8.884l0.354-2.634c0.342-2.554,0.696-5.195,1.074-7.788
			c0.847-5.681-1.865-10.044-7.256-11.668c-4.264-1.301-8.514-2.815-12.469-4.256c-1.295-0.474-2.578-0.714-3.812-0.714
			c-0.602,0-1.201,0.058-1.779,0.171c-2.813,0.533-5.065,2.244-6.692,5.085c-1.904,3.319-3.856,6.657-5.536,9.524
			c-1.421,2.404-2.942,4.984-4.457,7.599c-1.723-0.146-3.471-0.266-5.167-0.383l-0.878-0.061l-0.728-0.048
			c-1.502-0.1-3.05-0.203-4.58-0.327c-1.691-4.021-3.363-8.124-4.982-12.097l-1.253-3.074l-4.151-10.229L118.879,0L118.879,0z
			 M128.028,192.453c-12.967,0-25.585-3.972-36.487-11.487c-14.471-9.951-24.103-24.917-27.124-42.141
			c-5.985-34.173,16.89-67.355,50.992-73.97l1.168-0.221c3.905-0.759,7.888-1.144,11.841-1.144c12.653,0,25.043,3.893,35.83,11.255
			c14.383,9.811,24.007,24.562,27.1,41.536c6.327,34.545-16.609,68.189-51.129,74.998
			C136.194,192.058,132.092,192.453,128.028,192.453L128.028,192.453z"/>
	</g>
	<path fill-rule="evenodd" clip-rule="evenodd" fill="#00C6F2" d="M95.933,11.912c6.138-1.188,12.279-2.383,18.417-3.571
		c3.156,7.745,6.255,15.5,9.53,23.175c0.338,0.78,1.721,1.475,2.685,1.56c5.269,0.506,10.583,0.71,15.85,1.231
		c1.743,0.173,2.727-0.22,3.587-1.735c3.69-6.449,7.525-12.807,11.215-19.25c0.849-1.484,1.731-1.915,3.387-1.308
		c4.239,1.555,8.531,3.072,12.86,4.396c2.024,0.602,2.426,1.602,2.136,3.565c-1.054,7.191-1.882,14.41-2.953,21.583
		c-0.291,1.964,0.387,2.926,1.984,3.932c4.293,2.705,8.482,5.566,12.607,8.513c1.47,1.038,2.573,1.249,4.191,0.323
		c6.399-3.764,12.886-7.357,19.309-11.08c1.366-0.785,2.274-0.827,3.382,0.501c2.888,3.49,5.84,6.932,8.928,10.241
		c1.464,1.586,1.446,2.694,0.103,4.377c-4.539,5.669-8.912,11.472-13.372,17.206c-0.872,1.13-1.301,2.049-0.517,3.561
		c2.555,4.904,4.825,9.959,7.38,14.886c0.43,0.829,1.698,1.743,2.597,1.743c8.278,0.161,16.545,0.14,24.821,0.161
		c1.189,6.153,2.378,12.284,3.572,18.416c-7.745,3.152-15.496,6.239-23.181,9.509c-0.775,0.344-1.453,1.732-1.55,2.699
		c-0.499,5.282-0.71,10.581-1.22,15.851c-0.168,1.716,0.188,2.728,1.716,3.604c6.319,3.603,12.516,7.395,18.835,10.966
		c1.839,1.038,2.388,2.043,1.613,4.077c-1.581,4.087-3.017,8.229-4.297,12.392c-0.623,2.011-1.641,2.452-3.603,2.162
		c-7.101-1.048-14.248-1.903-21.353-2.953c-1.98-0.286-3.062,0.253-4.132,2.001c-2.57,4.189-5.324,8.276-8.244,12.225
		c-1.249,1.678-1.512,2.915-0.415,4.776c3.732,6.326,7.277,12.747,10.951,19.104c0.796,1.404,0.699,2.324-0.586,3.39
		c-3.469,2.915-6.896,5.884-10.235,8.949c-1.463,1.333-2.555,1.467-4.19,0.161c-5.803-4.626-11.751-9.078-17.614-13.64
		c-1.103-0.86-2.001-1.033-3.357-0.333c-4.92,2.505-9.965,4.812-14.891,7.346c-0.792,0.403-1.679,1.561-1.69,2.377
		c-0.15,8.354-0.113,16.705-0.129,25.063c-6.147,1.188-12.279,2.388-18.431,3.577c-3.018-7.45-6.1-14.883-9.054-22.37
		c-0.71-1.787-1.661-2.452-3.624-2.517c-5.062-0.184-10.123-0.549-15.162-1.087c-1.926-0.208-2.986,0.258-3.942,1.937
		c-3.63,6.389-7.434,12.672-11.08,19.061c-0.867,1.496-1.738,1.895-3.395,1.271c-4.318-1.593-8.676-3.12-13.075-4.486
		c-1.796-0.559-2.216-1.42-1.953-3.227c1.065-7.197,1.9-14.403,2.98-21.589c0.295-2.017-0.231-3.098-1.947-4.163
		c-4.297-2.7-8.502-5.54-12.602-8.531c-1.511-1.091-2.62-1.161-4.194-0.246c-6.417,3.695-12.898,7.293-19.336,11.002
		c-1.366,0.786-2.319,0.818-3.404-0.504c-2.959-3.546-5.959-7.036-9.08-10.434c-1.34-1.458-1.232-2.496-0.043-4.003
		c4.529-5.679,8.886-11.488,13.393-17.201c1.103-1.393,1.27-2.505,0.382-4.189c-2.469-4.673-4.76-9.46-6.965-14.28
		c-0.607-1.343-1.345-1.968-2.781-1.957c-8.272-0.022-16.539-0.06-24.821-0.087c-1.183-6.131-2.377-12.274-3.572-18.421
		c7.596-3.082,15.173-6.202,22.784-9.256c1.554-0.623,1.953-1.646,2.032-3.254c0.249-5.126,0.576-10.279,1.114-15.399
		c0.21-1.925-0.279-2.958-1.953-3.916c-6.389-3.635-12.666-7.443-19.033-11.1c-1.522-0.862-1.84-1.775-1.238-3.399
		c1.571-4.255,3.061-8.531,4.412-12.855c0.581-1.818,1.44-2.431,3.387-2.131c7.348,1.093,14.71,1.964,22.053,3.056
		c1.688,0.258,2.512-0.322,3.382-1.677c2.831-4.4,5.719-8.778,8.778-13.005c1.109-1.517,1.13-2.587,0.205-4.153
		c-3.711-6.329-7.229-12.773-10.939-19.115c-0.925-1.581-0.807-2.586,0.618-3.753c3.55-2.947,7.04-5.959,10.439-9.068
		c1.307-1.188,2.237-1.188,3.604-0.113c5.884,4.641,11.871,9.17,17.771,13.806c1.194,0.926,2.141,1.065,3.561,0.334
		c4.775-2.484,9.627-4.83,14.505-7.094c1.308-0.607,2.006-1.35,2.013-2.792C95.858,28.461,95.907,20.195,95.933,11.912z
		 M114.397,57.586c-38.353,7.217-63.852,44.539-57.205,82.504c6.954,39.737,45.475,66.059,84.619,58.351
		c38.424-7.572,63.837-44.84,56.759-83.478C191.326,75.415,152.618,49.712,114.397,57.586z"/>
	<g>
		<path fill-rule="evenodd" clip-rule="evenodd" fill="#FFAA2C" d="M128.098,199.418c-34.856,0-64.525-24.977-70.547-59.391
			c-6.671-38.101,18.86-74.923,56.914-82.084c4.551-0.938,9.205-1.413,13.84-1.413c34.299,0,63.7,24.603,69.909,58.498
			c7.012,38.278-18.321,75.537-56.472,83.055C137.245,198.97,132.655,199.418,128.098,199.418z"/>
		<path fill="#25282D" d="M128.306,56.167v0.728c16.134,0,32.029,5.755,44.757,16.206c12.979,10.657,21.783,25.571,24.792,41.994
			c3.387,18.488-0.591,37.256-11.202,52.848c-10.603,15.58-26.578,26.158-44.981,29.785c-4.473,0.881-9.04,1.327-13.573,1.327
			c-16.465,0-32.607-5.869-45.453-16.526c-13.041-10.818-21.825-25.935-24.736-42.564c-6.637-37.905,18.765-74.54,56.635-81.666
			c4.52-0.931,9.15-1.404,13.76-1.404L128.306,56.167 M128.304,56.167c-4.604,0-9.26,0.461-13.907,1.418
			c-38.353,7.217-63.852,44.539-57.205,82.504c6.138,35.073,36.861,59.692,70.905,59.692c4.526,0,9.119-0.437,13.713-1.341
			c38.424-7.572,63.837-44.84,56.759-83.478C192.207,80.224,161.567,56.167,128.304,56.167L128.304,56.167z"/>
	</g>
	<path fill-rule="evenodd" clip-rule="evenodd" fill="#FFFFFF" d="M189.449,122.589c-0.483-3.151-0.985-3.598-3.776-3.162
		c-3.313,0.532-6.587,1.248-9.88,1.893c-1.458,0.291-1.845,1.259-1.716,2.603c0.894,9.133-0.946,17.722-5.194,25.796
		c-0.786,1.462-0.625,2.431,0.769,3.329c3.083,2.006,6.132,4.04,9.149,6.132c1.28,0.893,2.076,0.662,2.813-0.667
		C187.878,147.202,190.54,135.11,189.449,122.589z"/>
	<path fill-rule="evenodd" clip-rule="evenodd" fill="#FFFFFF" d="M180.214,115.016c1.603-0.3,3.217-0.655,4.831-0.909
		c2.178-0.343,2.65-1.564,2.069-3.522c-3.721-12.516-10.708-22.842-20.889-30.968c-1.222-0.963-2.018-0.797-2.846,0.472
		c-1.877,2.878-3.738,5.793-5.798,8.531c-1.345,1.796-1.006,2.872,0.629,4.26c5.663,4.755,9.853,10.65,12.671,17.463
		C173.539,116.791,173.496,116.802,180.214,115.016z"/>
	<path fill-rule="evenodd" clip-rule="evenodd" fill="#FFFFFF" d="M114.925,75.512c-0.011,0-0.016,0-0.021,0.005
		c-0.237-1.214-0.489-2.452-0.715-3.667c-0.587-3.27-1.232-3.727-4.428-2.533c-3.42,1.264-6.841,2.592-10.144,4.147
		c-7.767,3.69-13.967,9.32-19.421,15.859c-0.979,1.173-1.193,2.131,0.237,3.094c3.04,2.027,6.071,4.082,9.083,6.153
		c1.125,0.763,1.904,0.569,2.813-0.442c1.667-1.85,3.367-3.69,5.271-5.281c4.683-3.948,9.74-7.309,15.737-8.967
		c2.231-0.612,2.991-1.994,2.41-4.221C115.398,78.293,115.2,76.895,114.925,75.512z"/>
	<path fill-rule="evenodd" clip-rule="evenodd" fill="#FFFFFF" d="M74.419,135.454c0,0,0,0,0.006,0.018
		c1.463-0.275,2.904-0.62,4.373-0.834c2.069-0.291,3.006-1.43,2.83-3.496c-0.818-8.917,1.365-17.189,5.335-25.075
		c0.592-1.188,0.542-1.989-0.62-2.753c-3.064-2-6.087-4.065-9.121-6.131c-1.238-0.862-2.153-0.656-2.836,0.699
		c-0.923,1.903-1.941,3.753-2.801,5.658c-4.287,9.617-5.793,19.696-4.809,30.153c0.242,2.607,0.903,3.054,3.518,2.581
		C71.661,135.993,73.037,135.735,74.419,135.454z"/>
	<path fill-rule="evenodd" clip-rule="evenodd" fill="#FFFFFF" d="M120.594,74.464c0,0-0.006,0-0.016,0
		c0.285,1.451,0.641,2.915,0.822,4.373c0.281,2.108,1.334,2.909,3.491,2.754c8.794-0.668,17.077,1.251,24.849,5.329
		c1.458,0.765,2.242,0.479,3.077-0.796c1.877-2.872,3.792-5.728,5.766-8.531c1.103-1.569,1.065-2.603-0.867-3.442
		c-3.296-1.393-6.454-3.173-9.821-4.356c-8.444-2.969-17.163-3.921-26.075-2.985c-1.753,0.178-2.528,1.049-2.172,2.812
		C119.981,71.236,120.282,72.85,120.594,74.464z"/>
	<path fill-rule="evenodd" clip-rule="evenodd" fill="#FFFFFF" d="M68.934,145.082c3.685,12.5,10.553,22.859,20.739,31.034
		c1.189,0.948,1.974,0.549,2.694-0.526c2.098-3.109,4.261-6.175,6.245-9.359c0.333-0.538,0.194-1.957-0.253-2.334
		c-7.051-5.948-12.003-13.285-14.812-22.063c-0.462-1.43-1.383-1.989-2.861-1.688c-3.303,0.634-6.6,1.269-9.892,1.892
		C69.041,142.372,68.375,143.346,68.934,145.082z"/>
	<path fill-rule="evenodd" clip-rule="evenodd" fill="#FFFFFF" d="M114.72,130.629c1.269,5.138,4.41,9.063,10.079,10.408
		c5.659,1.345,10.44-0.376,13.893-4.98c3.496-4.681,3.878-9.853,0.828-14.904c-1.14-1.862-1.022-3.104,0.167-4.782
		c3.206-4.534,6.206-9.191,9.358-13.742c0.968-1.393,0.979-2.361-0.607-3.183c-0.41-0.221-0.818-0.484-1.157-0.786
		c-1.591-1.382-2.704-1.178-3.883,0.662c-2.851,4.475-5.997,8.767-8.836,13.248c-1.21,1.924-2.469,2.468-4.76,2.146
		C120.728,113.424,113.042,121.427,114.72,130.629z"/>
	<path fill-rule="evenodd" clip-rule="evenodd" fill="#FF5A29" d="M189.449,122.589c1.091,12.521-1.571,24.613-7.835,35.923
		c-0.738,1.329-1.534,1.559-2.813,0.667c-3.017-2.092-6.066-4.125-9.149-6.132c-1.393-0.898-1.555-1.866-0.769-3.329
		c4.249-8.074,6.088-16.663,5.194-25.796c-0.129-1.344,0.258-2.312,1.716-2.603c3.293-0.646,6.568-1.361,9.88-1.893
		C188.464,118.991,188.966,119.438,189.449,122.589z"/>
	<path fill-rule="evenodd" clip-rule="evenodd" fill="#FF5A29" d="M180.214,115.016c-6.718,1.787-6.675,1.775-9.332-4.673
		c-2.818-6.813-7.009-12.708-12.671-17.463c-1.635-1.388-1.974-2.463-0.629-4.26c2.06-2.738,3.921-5.653,5.798-8.531
		c0.828-1.269,1.624-1.436,2.846-0.472c10.181,8.126,17.168,18.452,20.889,30.968c0.581,1.958,0.108,3.18-2.069,3.522
		C183.431,114.36,181.817,114.715,180.214,115.016z"/>
	<path fill-rule="evenodd" clip-rule="evenodd" fill="#FF835F" d="M114.925,75.512c0.274,1.383,0.473,2.781,0.823,4.147
		c0.581,2.227-0.179,3.609-2.41,4.221c-5.997,1.658-11.054,5.019-15.737,8.967c-1.904,1.591-3.604,3.432-5.271,5.281
		c-0.909,1.011-1.688,1.205-2.813,0.442c-3.012-2.071-6.044-4.125-9.083-6.153c-1.43-0.963-1.216-1.921-0.237-3.094
		c5.454-6.539,11.654-12.169,19.421-15.859c3.303-1.555,6.723-2.883,10.144-4.147c3.196-1.194,3.84-0.737,4.428,2.533
		c0.226,1.215,0.478,2.453,0.715,3.667C114.909,75.512,114.914,75.512,114.925,75.512z"/>
	<path fill-rule="evenodd" clip-rule="evenodd" fill="#FF5A29" d="M74.419,135.454c-1.382,0.281-2.758,0.539-4.124,0.818
		c-2.615,0.473-3.275,0.026-3.518-2.581c-0.984-10.457,0.521-20.536,4.809-30.153c0.859-1.904,1.877-3.754,2.801-5.658
		c0.683-1.354,1.598-1.561,2.836-0.699c3.033,2.066,6.056,4.13,9.121,6.131c1.162,0.765,1.211,1.565,0.62,2.753
		c-3.97,7.885-6.153,16.158-5.335,25.075c0.176,2.066-0.76,3.206-2.83,3.496c-1.469,0.215-2.91,0.559-4.373,0.834
		C74.419,135.454,74.419,135.454,74.419,135.454z"/>
	<path opacity="0.5" fill-rule="evenodd" clip-rule="evenodd" fill="#FFEAE4" d="M120.594,74.464
		c-0.312-1.614-0.613-3.228-0.947-4.842c-0.355-1.763,0.419-2.634,2.172-2.812c8.912-0.936,17.631,0.016,26.075,2.985
		c3.367,1.183,6.524,2.963,9.821,4.356c1.932,0.839,1.969,1.873,0.867,3.442c-1.974,2.803-3.889,5.659-5.766,8.531
		c-0.834,1.275-1.619,1.561-3.077,0.796c-7.772-4.078-16.055-5.997-24.849-5.329c-2.157,0.155-3.21-0.646-3.491-2.754
		c-0.181-1.458-0.537-2.921-0.822-4.373C120.588,74.464,120.588,74.464,120.594,74.464z"/>
	<path fill-rule="evenodd" clip-rule="evenodd" fill="#FF5A29" d="M68.934,145.082c-0.559-1.736,0.106-2.709,1.861-3.044
		c3.292-0.623,6.589-1.258,9.892-1.892c1.478-0.3,2.399,0.258,2.861,1.688c2.808,8.778,7.761,16.114,14.812,22.063
		c0.447,0.377,0.586,1.796,0.253,2.334c-1.984,3.184-4.147,6.25-6.245,9.359c-0.72,1.075-1.505,1.474-2.694,0.526
		C79.487,167.941,72.619,157.582,68.934,145.082z"/>
	<path fill-rule="evenodd" clip-rule="evenodd" fill="#2E3035" d="M114.72,130.629c-1.679-9.202,6.008-17.206,15.081-15.914
		c2.291,0.323,3.55-0.221,4.76-2.146c2.839-4.481,5.986-8.773,8.836-13.248c1.179-1.84,2.292-2.043,3.883-0.662
		c0.339,0.302,0.748,0.565,1.157,0.786c1.587,0.822,1.576,1.79,0.607,3.183c-3.152,4.55-6.152,9.208-9.358,13.742
		c-1.189,1.679-1.307,2.92-0.167,4.782c3.05,5.051,2.668,10.223-0.828,14.904c-3.453,4.604-8.234,6.325-13.893,4.98
		C119.13,139.693,115.989,135.767,114.72,130.629z M121.109,129.194c0.824,4.087,4.244,6.412,8.284,5.614
		c3.889-0.785,6.245-4.302,5.465-8.186c-0.802-3.979-4.308-6.271-8.391-5.464C122.746,121.884,120.362,125.462,121.109,129.194z"/>
	<path fill-rule="evenodd" clip-rule="evenodd" fill="#FFFFFF" d="M121.109,129.194c-0.748-3.732,1.636-7.31,5.358-8.035
		c4.083-0.807,7.588,1.485,8.391,5.464c0.78,3.884-1.577,7.401-5.465,8.186C125.353,135.606,121.934,133.282,121.109,129.194z
		 M131.178,127.414c-0.3-1.684-2.13-2.92-3.829-2.598c-1.721,0.333-2.97,2.15-2.5,3.852c0.504,1.818,1.822,2.677,3.677,2.505
		C130.216,130.996,131.506,129.098,131.178,127.414z"/>
	<path fill-rule="evenodd" clip-rule="evenodd" d="M131.178,127.414c0.328,1.684-0.962,3.582-2.652,3.759
		c-1.855,0.171-3.173-0.688-3.677-2.505c-0.47-1.701,0.779-3.519,2.5-3.852C129.048,124.494,130.878,125.73,131.178,127.414z"/>
	
		<path opacity="0.4" fill="none" stroke="#FFFFFF" stroke-width="1.8444" stroke-linecap="round" stroke-linejoin="round" stroke-miterlimit="10" d="
		M54.266,170.576c21.01,39.263,70.657,53.591,111.007,31.98"/>
	
		<path opacity="0.7" fill="none" stroke="#FFFFFF" stroke-width="3.2276" stroke-linecap="round" stroke-linejoin="round" stroke-miterlimit="10" d="
		M209.23,149.079c11.859-44.201-15.291-89.827-60.7-102.03"/>
	
		<path opacity="0.8" fill="none" stroke="#FFFFFF" stroke-width="1.8444" stroke-linecap="round" stroke-linejoin="round" stroke-miterlimit="10" d="
		M90.544,51.292c-41.22,17.47-60.066,65.859-42.128,108.209"/>
</g>
</svg>
