<?xml version="1.0" encoding="utf-8"?>
<!-- Generator: Adobe Illustrator 16.0.3, SVG Export Plug-In . SVG Version: 6.00 Build 0)  -->
<!DOCTYPE svg PUBLIC "-//W3C//DTD SVG 1.1//EN" "http://www.w3.org/Graphics/SVG/1.1/DTD/svg11.dtd">
<svg version="1.1" id="Layer_1" xmlns="http://www.w3.org/2000/svg" xmlns:xlink="http://www.w3.org/1999/xlink" x="0px" y="0px"
	 width="256px" height="256px" viewBox="0 0 256 256" enable-background="new 0 0 256 256" xml:space="preserve">
<g>
	<g>
		<g>
			<path fill="#00C6F2" d="M123.622,242.254c-62.907,0-114.086-51.195-114.086-114.122C9.536,65.199,60.715,14,123.622,14
				c62.909,0,114.089,51.199,114.089,114.132C237.711,191.059,186.531,242.254,123.622,242.254z M123.622,15.488
				c-62.087,0-112.598,50.532-112.598,112.645c0,62.107,50.511,112.634,112.598,112.634c62.089,0,112.602-50.527,112.602-112.634
				C236.224,66.02,185.711,15.488,123.622,15.488z"/>
		</g>
		<g>
			<path fill="#FF5A29" d="M228.463,128.132c0,57.916-46.934,104.861-104.841,104.861c-57.897,0-104.833-46.945-104.833-104.861
				c0-57.925,46.937-104.868,104.833-104.868C181.529,23.264,228.463,70.208,228.463,128.132z"/>
		</g>
		<g>
			<path fill="#2E3035" d="M187.569,95.44l-23.303-23.313c-1.457-1.457-3.44-2.271-5.492-2.271L77.21,69.854
				c-6.422,0-11.649,5.222-11.649,11.655l-0.007,93.239c0,6.426,5.23,11.654,11.653,11.654h100.985
				c6.426,0.003,11.647-5.225,11.647-11.654l0.003-73.816C189.839,98.867,189.025,96.891,187.569,95.44z"/>
		</g>
		<g>
			<path fill="#F1F2F2" d="M182.075,174.751c-0.001,2.147-1.735,3.883-3.883,3.883H77.207c-2.149,0-3.883-1.742-3.883-3.886
				l0.003-93.239c0-2.147,1.734-3.886,3.885-3.89l77.681,0.009l-0.003,15.536l-0.01,0.003c0.003,6.436,5.215,11.655,11.655,11.66
				h3.878h11.667L182.075,174.751z"/>
		</g>
		<g>
			<path fill="#FF5A29" d="M170.412,100.936l-3.878-0.001c-4.278,0.001-7.768-3.485-7.768-7.771l0.005,0.003V77.624l23.304,23.313
				H170.412z"/>
		</g>
		<g>
			<g>
				<g>
					<path fill="#2E3035" d="M122.634,116.823c0.003,1.069,0.747,1.949,1.662,1.951l39.881,0.003c0.917,0,1.662-0.882,1.662-1.955
						c0-1.07-0.746-1.942-1.662-1.942l-39.881-0.003C123.377,114.877,122.637,115.749,122.634,116.823z"/>
				</g>
				<g>
					<path fill="#FFAA2C" d="M90.628,121.036c-0.798,0-1.597-0.28-2.236-0.842L52.038,88.3c-1.408-1.235-1.548-3.379-0.312-4.787
						c1.234-1.408,3.379-1.548,4.787-0.312l34.115,29.931l15.939-13.98c1.409-1.234,3.552-1.094,4.787,0.314
						s1.095,3.551-0.314,4.787l-18.176,15.941C92.225,120.755,91.426,121.036,90.628,121.036z"/>
				</g>
			</g>
			<g>
				<g>
					<path fill="#2E3035" d="M122.634,138.06c0.003,1.067,0.747,1.936,1.662,1.943h39.881c0.917,0,1.662-0.875,1.662-1.943
						c0-1.072-0.746-1.954-1.662-1.954l-39.881-0.003C123.377,136.102,122.637,136.981,122.634,138.06z"/>
				</g>
				<g>
					<path fill="#FFAA2C" d="M90.628,146.626c-0.798,0-1.597-0.281-2.237-0.843l-36.353-31.901
						c-1.408-1.235-1.548-3.379-0.312-4.787c1.234-1.408,3.379-1.548,4.787-0.312l34.115,29.938l15.939-13.988
						c1.408-1.237,3.551-1.096,4.787,0.312c1.236,1.408,1.096,3.551-0.312,4.787l-18.176,15.951
						C92.226,146.345,91.426,146.626,90.628,146.626z"/>
				</g>
			</g>
			<g>
				<g>
					<path fill="#2E3035" d="M122.634,159.285c0.003,1.07,0.747,1.936,1.662,1.939l39.881,0.002c0.917,0,1.662-0.869,1.662-1.941
						c0-1.074-0.746-1.94-1.662-1.94l-39.881-0.003C123.377,157.341,122.637,158.206,122.634,159.285z"/>
				</g>
				<g>
					<path fill="#FFAA2C" d="M90.628,172.215c-0.798,0-1.598-0.281-2.237-0.843l-36.353-31.899
						c-1.408-1.236-1.548-3.379-0.313-4.788c1.235-1.407,3.379-1.548,4.788-0.313l34.115,29.937l15.938-13.991
						c1.411-1.236,3.552-1.094,4.788,0.312c1.236,1.408,1.096,3.551-0.311,4.788l-18.176,15.955
						C92.226,171.934,91.426,172.215,90.628,172.215z"/>
				</g>
			</g>
		</g>
		<g>
			<g>
				<g>
					<path fill="#2E3035" d="M198.067,88.236c-0.172,0-0.343-0.007-0.514-0.021c-1.578-0.129-3.049-0.822-4.149-1.953l-23.024-23.73
						c-2.496-2.577-2.431-6.706,0.142-9.205c1.223-1.189,2.834-1.844,4.538-1.844c1.776,0,3.436,0.704,4.67,1.982l19.031,19.614
						l44.96-33.996c1.144-0.854,2.489-1.301,3.898-1.301c2.044,0,3.996,0.979,5.222,2.62c2.141,2.889,1.538,6.975-1.341,9.113
						L201.976,86.94C200.82,87.792,199.475,88.236,198.067,88.236z"/>
				</g>
				<g>
					<path fill="#E6E7E8" d="M247.62,39.657c1.414,0,2.808,0.645,3.721,1.867c1.523,2.055,1.098,4.96-0.958,6.487l-49.538,37.433
						c-0.833,0.614-1.805,0.917-2.779,0.917c-0.124,0-0.247-0.005-0.369-0.014c-1.083-0.089-2.137-0.556-2.951-1.392l-23.022-23.728
						c-1.782-1.84-1.73-4.776,0.103-6.556c0.902-0.877,2.068-1.314,3.232-1.314c1.209,0,2.416,0.471,3.323,1.41l20.187,20.806
						l46.282-34.995C245.686,39.957,246.657,39.657,247.62,39.657 M247.62,35.909L247.62,35.909c-1.816,0-3.549,0.577-5.01,1.667
						l-43.658,33.01l-17.88-18.428c-1.586-1.641-3.723-2.547-6.013-2.547c-2.194,0-4.27,0.843-5.845,2.374
						c-3.312,3.216-3.394,8.533-0.182,11.851l23.024,23.731c1.42,1.458,3.313,2.351,5.334,2.517
						c0.235,0.018,0.455,0.027,0.676,0.027c1.812,0,3.542-0.57,5.004-1.648l49.572-37.459c3.683-2.736,4.46-7.997,1.709-11.708
						C252.766,37.17,250.253,35.909,247.62,35.909L247.62,35.909z"/>
				</g>
			</g>
		</g>
	</g>
	<g>
		<g>
			<circle fill="#2E3035" cx="28.89" cy="212.695" r="28.89"/>
		</g>
		<g>
			<path fill="#E6E7E8" d="M20.261,224.117c1.313,0.841,4.359,2.154,7.564,2.154c5.935,0,7.774-3.782,7.721-6.619
				c-0.052-4.779-4.359-6.828-8.824-6.828h-2.574v-3.468h2.574c3.362,0,7.616-1.732,7.616-5.778c0-2.73-1.733-5.147-5.988-5.147
				c-2.732,0-5.357,1.208-6.829,2.259l-1.208-3.361c1.786-1.313,5.253-2.626,8.93-2.626c6.724,0,9.77,3.993,9.77,8.141
				c0,3.519-2.101,6.513-6.303,8.037v0.106c4.202,0.84,7.616,3.991,7.616,8.772c0,5.461-4.254,10.242-12.449,10.242
				c-3.834,0-7.196-1.209-8.877-2.312L20.261,224.117z"/>
		</g>
	</g>
</g>
</svg>
