<?xml version="1.0" encoding="utf-8"?>
<!-- Generator: Adobe Illustrator 16.0.3, SVG Export Plug-In . SVG Version: 6.00 Build 0)  -->
<!DOCTYPE svg PUBLIC "-//W3C//DTD SVG 1.1//EN" "http://www.w3.org/Graphics/SVG/1.1/DTD/svg11.dtd">
<svg version="1.1" id="Layer_1" xmlns="http://www.w3.org/2000/svg" xmlns:xlink="http://www.w3.org/1999/xlink" x="0px" y="0px"
	 width="26px" height="50px" viewBox="0 0 26 50" enable-background="new 0 0 26 50" xml:space="preserve">
<g>
	<path fill="#FFFFFF" d="M13.08,50c0.084,0,0.242-0.018,0.383-0.148c2.299-2.572,4.734-5.125,5.946-8.424
		c1.42-3.867,1.751-8.072,1.823-12.334l-1.334,1.395c-0.164,0.17-0.413,0.209-0.615,0.092l-1.915-1.121l-2.844,4.037
		c-0.108,0.15-0.283,0.232-0.461,0.215c-0.178-0.016-0.335-0.129-0.417-0.299l-2.825-5.939l-2.11,3.594
		c-0.083,0.141-0.216,0.23-0.369,0.254c-0.152,0.023-0.306-0.029-0.419-0.137l-2.662-2.551c-0.005,4.371,0.236,8.695,1.627,12.682
		c1.158,3.322,3.555,5.916,5.812,8.531C12.839,49.979,12.997,49.998,13.08,50z"/>
	<path fill="#FFFFFF" d="M2.163,23.125l5.996,6.799l2.27-3.865c0.1-0.17,0.275-0.264,0.464-0.258
		c0.185,0.008,0.354,0.123,0.439,0.301l2.863,6.018l2.614-3.707c0.153-0.217,0.438-0.283,0.665-0.152l1.972,1.154l4.979-6.09
		c0.661-0.809,1.208-2.348,1.217-3.42l0.064-7.979c0.007-1.071-0.581-1.341-1.307-0.599l-3.873,3.958
		c-1.327-1.473-4.027-2.494-7.15-2.523c-3.125-0.028-5.838,0.947-7.189,2.393L2.377,11.13c-0.713-0.757-1.305-0.498-1.314,0.574
		L1,19.686C0.991,20.756,1.514,22.305,2.163,23.125z"/>
	<path fill="#FFFFFF" d="M9.799,7.998C9.835,3.563,13.478,0,13.478,0s3.586,3.628,3.551,8.064c-0.036,4.437-1.646,3.345-3.641,3.326
		C11.392,11.372,9.764,12.434,9.799,7.998z"/>
</g>
</svg>
