<?xml version="1.0" encoding="utf-8"?>
<!-- Generator: Adobe Illustrator 16.0.3, SVG Export Plug-In . SVG Version: 6.00 Build 0)  -->
<!DOCTYPE svg PUBLIC "-//W3C//DTD SVG 1.1//EN" "http://www.w3.org/Graphics/SVG/1.1/DTD/svg11.dtd">
<svg version="1.1" id="Layer_1" xmlns="http://www.w3.org/2000/svg" xmlns:xlink="http://www.w3.org/1999/xlink" x="0px" y="0px"
	 width="62px" height="64px" viewBox="0 0 62 64" enable-background="new 0 0 62 64" xml:space="preserve">
<path class='my-color' fill-rule="evenodd" clip-rule="evenodd" d="M47.721,52.901c-0.228-0.086-0.418-0.155-0.611-0.227
	c-1.733-0.631-2.905-2.219-2.914-4.053c-0.014-5.2-0.017-10.402,0.005-15.602c0.008-2.182,1.62-3.997,3.847-4.266
	c1.067-0.128,2.17-0.128,3.236,0c1.852,0.223,3.094,1.298,3.674,3.094c0.042,0.129,0.094,0.254,0.212,0.35
	c0.083-6.313-1.886-11.916-5.871-16.861c-0.325,0.158-0.592,0.345-0.891,0.42c-0.918,0.253-1.694,0.003-2.384-0.681
	c-2.909-2.875-6.337-4.881-10.344-5.76c-7.462-1.631-13.947,0.332-19.563,5.428c-0.45,0.4-0.966,0.891-1.506,1.006
	c-0.644,0.131-1.359-0.109-2.26-0.211c-3.84,4.742-5.805,10.388-5.659,16.777c0.075-0.25,0.138-0.511,0.242-0.755
	c0.646-1.604,1.823-2.62,3.552-2.798c1.148-0.116,2.344-0.106,3.503,0.056c2.095,0.303,3.592,2.036,3.616,4.161
	c0.033,5.223,0.031,10.447,0.005,15.67c-0.025,2.211-1.621,3.964-3.874,4.241c-1.063,0.128-2.174,0.12-3.239-0.005
	C8.48,52.658,7.096,51.267,6.7,49.25c-0.034-0.223-0.077-0.44-0.12-0.651c-0.583-0.111-1.152-0.18-1.703-0.328
	c-2.764-0.744-4.739-3.155-4.861-6.021c-0.036-1.144-0.012-2.298,0.092-3.44c0.126-1.477,0.849-2.688,1.85-3.759
	c0.216-0.217,0.359-0.599,0.345-0.893c-0.495-7.891,1.689-14.94,6.563-21.159c0.239-0.303,0.344-0.5,0.069-0.881
	c-0.68-0.925-0.57-1.991,0.242-2.816c4.116-4.228,9.003-7.178,14.755-8.456c10.931-2.447,20.402,0.462,28.438,8.185
	c1.136,1.1,1.197,1.869,0.425,3.247c-0.087,0.16,0.022,0.517,0.153,0.678c1.799,2.3,3.283,4.773,4.375,7.481
	c1.764,4.375,2.531,8.909,2.189,13.626c-0.023,0.333,0.134,0.771,0.362,1.011c1.294,1.378,1.966,2.989,1.93,4.87
	c-0.023,1.172,0.026,2.369-0.209,3.5c-0.598,2.824-2.897,4.717-5.914,5.07c-0.136,0.013-0.272,0.025-0.417,0.039
	c-0.128,0.525-0.194,1.053-0.386,1.536c-0.576,1.473-1.67,2.375-3.215,2.75c-0.242,0.056-0.569,0.256-0.641,0.464
	c-1.625,4.9-5.272,7.405-10.088,8.491c-1.119,0.253-2.271,0.337-3.4,0.539c-0.261,0.045-0.56,0.188-0.727,0.381
	c-0.741,0.858-1.648,1.289-2.783,1.286c-2.07-0.013-4.141,0-6.209-0.006c-2.014-0.006-3.516-1.425-3.508-3.297
	c0.008-1.872,1.517-3.272,3.53-3.275c2.048,0,4.097,0.013,6.15,0c1.15-0.008,2.089,0.406,2.839,1.302
	c0.148,0.175,0.449,0.345,0.667,0.33c2.764-0.228,5.403-0.856,7.644-2.616C46.321,55.509,47.189,54.356,47.721,52.901z"/>
</svg>
