<?xml version="1.0" encoding="utf-8"?>
<!-- Generator: Adobe Illustrator 16.0.3, SVG Export Plug-In . SVG Version: 6.00 Build 0)  -->
<!DOCTYPE svg PUBLIC "-//W3C//DTD SVG 1.1//EN" "http://www.w3.org/Graphics/SVG/1.1/DTD/svg11.dtd">
<svg version="1.1" id="Layer_1" xmlns="http://www.w3.org/2000/svg" xmlns:xlink="http://www.w3.org/1999/xlink" x="0px" y="0px"
	 width="512px" height="191px" viewBox="0 0 512 191" enable-background="new 0 0 512 191" xml:space="preserve">
<g>
		<g>
			<g>
				<g>
					<path fill="#F15A29" d="M157.319,63.938c-5.443,0.553-10.893,1.076-16.345,1.624c-1.16,0.12-2.323,0.24-3.479,0.353
						c-1.459,0.151-2.928,0.302-4.386,0.45c-0.835,0.085-1.682,0.057-2.527,0.079c-0.04-0.111-0.075-0.222-0.117-0.33
						c1.344-0.781,2.682-1.561,4.021-2.335c0.763-0.445,1.529-0.89,2.297-1.334c0.619-0.362,1.245-0.721,1.868-1.08
						c-0.051-0.127-0.098-0.259-0.146-0.384c-1.157,0.058-2.311,0.12-3.463,0.165c-1.44,0.063-2.882,0.108-4.314,0.132
						c-6.375,0.113-12.699-0.231-18.883-1.96c-1.846,2.315-3.725,4.674-5.623,7.038c-10.911,2.382-16.4,3.586-27.266,6.024
						c-5.005,1.123-11.652,5.281-14.8,9.2c-7.705,9.532-15.46,19.012-23.27,28.451c-3.098,3.715-1.705,6.192,3.146,5.552
						c11.733-1.581,23.46-3.192,35.194-4.766c1.024-0.145,2.126-0.412,3.254-0.78c2.909,6.968,9,14.277,17.442,20.099
						c1.918,1.322,3.869,2.501,5.834,3.555c0.711,0.268,1.438,0.516,2.153,0.792c1.032,0.336,2.105,0.601,3.161,0.919
						c2.178,0.459,4.382,0.938,6.677,1.011c2.271,0.146,4.588,0.074,6.867-0.267c2.271-0.339,4.538-0.837,6.687-1.564
						c2.142-0.727,4.232-1.572,6.143-2.513c1.904-0.937,3.724-1.943,5.334-2.931c1.602-0.991,3.1-1.977,4.372-2.866
						c1.268-0.885,2.409-1.697,3.323-2.37c1.831-1.35,2.94-2.085,2.94-2.085s-0.199,0.257-0.574,0.707
						c-0.374,0.455-0.918,1.139-1.644,1.971c-0.723,0.835-1.621,1.866-2.729,2.985c-1.11,1.12-2.41,2.37-3.951,3.634
						c-1.541,1.263-3.293,2.604-5.285,3.848c-1.996,1.239-4.265,2.417-6.691,3.421c-2.424,1.009-5.107,1.761-7.804,2.268
						c-0.745,0.143-1.506,0.25-2.261,0.342c0.432,11.858,0.432,17.409,0.349,28.516c-0.034,3.928,2.769,4.361,6.261,0.994
						c8.682-8.37,17.343-16.75,25.988-25.152c3.482-3.396,6.701-9.542,7.099-13.725c0.676-7.132,0.967-10.778,1.437-18.218
						c3.057-3.122,6.134-6.238,9.166-9.344c-3.098-5.184-4.686-10.986-5.783-17.073c-0.136-0.752-0.27-1.513-0.396-2.273
						c-0.178-1.128-0.349-2.262-0.516-3.401c-0.123-0.034-0.253-0.067-0.38-0.097c-0.292,0.716-0.591,1.436-0.882,2.153
						c-0.217,0.53-0.435,1.065-0.649,1.596c-0.62,1.516-1.265,3.042-1.901,4.557c-0.103,0.023-0.207,0.043-0.309,0.063
						c-0.233-1.493-0.541-2.985-0.712-4.507c-0.086-0.792-0.16-1.589-0.241-2.384c-0.08-0.786-0.17-1.572-0.252-2.367
						c-0.142-1.453-0.287-2.917-0.445-4.381c-0.378-3.55-0.833-7.122-1.21-10.733C158.977,64.066,158.58,63.813,157.319,63.938z"/>
					<path fill="#FFFFFF" d="M194.698,38.048c-3.759,4.635-10.922,5.335-15.988,1.496c-5.056-3.834-6.174-10.819-2.521-15.523
						c3.657-4.708,10.757-5.297,15.92-1.394C197.281,26.539,198.454,33.419,194.698,38.048z"/>
					<g>
						<defs>
							<path id="SVGID_1_" d="M96.53,156.793c-10.703,10.329-38.596,19.483-40.712,17.666c-2.576-2.222,3.927-26.915,12.983-36.614
								c14.496-15.524,17.579-7.401,25.365-2.04C101.948,141.159,111.784,142.072,96.53,156.793z"/>
						</defs>
						<use xlink:href="#SVGID_1_"  overflow="visible" fill="#F15A29"/>
						<clipPath id="SVGID_2_">
							<use xlink:href="#SVGID_1_"  overflow="visible"/>
						</clipPath>
						<path clip-path="url(#SVGID_2_)" fill="#F49C11" d="M95.425,153.265c-11.753,9.881-41.864,21.226-44.21,19.215
							c-2.841-2.436,5.103-29.371,13.82-40.069c8.434-10.352,19.14-8.011,27.655-2.211
							C101.137,135.948,105.987,144.385,95.425,153.265z"/>
					</g>
					<g>
						<defs>
							<path id="SVGID_3_" d="M180.958,95.533c-0.004,0-0.01-0.003-0.016-0.006c12.926-14.43,24.053-28.758,30.384-46.042
								c5.202-14.209,2.268-31.472-1.019-46.739c-0.263-0.863-0.882-1.431-1.231-1.688c-0.36-0.265-1.077-0.688-1.994-0.688
								c-15.849,1.165-33.306,2.615-46.411,10.734c-15.818,9.8-28.483,23.732-41.102,38.581c-0.012-0.008-0.018-0.014-0.027-0.019
								c-2.389,2.962-4.884,6.113-7.447,9.34c1.342,0.088,2.688,0.185,4.018,0.077c3.269-0.273,6.537-0.57,9.803-0.875
								c1.521-0.14,3.044-0.3,4.561-0.447c1.259-0.12,2.521-0.233,3.778-0.362c3.856-0.39,7.689-1.016,11.54-1.424
								c1.683-0.179,1.906,0.14,1.746,1.749c-0.172,1.689-0.104,1.706,1.623,1.342c4.807-1.02,9.663-1.989,14.385-2.922
								c1.627-0.322,2.186,0.105,2.25,1.697c0.193,4.789,0.159,9.519,0.117,14.208c-0.004,0.257,0,0.513,0.003,1.021
								c0.699-0.177,1.195-0.296,1.682-0.433c1.525-0.428,1.966-0.236,2.243,1.195c0.211,1.104,0.291,2.239,0.367,3.356
								c0.237,3.563,0.324,7.124,0.507,10.63c0.036,0.647,0.076,1.294,0.12,1.943c0.067,1.048,0.149,2.091,0.248,3.131
								c0.361,3.708,1.313,7.292,1.989,10.86C175.755,100.997,178.403,98.26,180.958,95.533z"/>
						</defs>
						<clipPath id="SVGID_4_">
							<use xlink:href="#SVGID_3_"  overflow="visible"/>
						</clipPath>
						<path clip-path="url(#SVGID_4_)" fill="none" d="M184.888-1.152C202.503,78.169,128.57,141.07,56.119,150.991
							c-70.216,9.617-130.196-36.601-141.292-106.194C-95.667-21.017-63.189-110.201,9.492-124.375
							C83.454-138.793,169.072-72.365,184.888-1.152z"/>
					</g>
					<path fill="#19B5FE" d="M180.958,95.533c-0.004,0-0.01-0.003-0.016-0.006c12.926-14.43,24.053-28.758,30.384-46.042
						c5.202-14.209,2.268-31.472-1.019-46.739c-0.263-0.863-0.882-1.431-1.231-1.688c-0.36-0.265-1.077-0.688-1.994-0.688
						c-15.849,1.165-33.306,2.615-46.411,10.734c-15.818,9.8-28.483,23.732-41.102,38.581c-0.012-0.008-0.018-0.014-0.027-0.019
						c-2.389,2.962-4.884,6.113-7.447,9.34c1.342,0.088,2.688,0.185,4.018,0.077c3.269-0.273,6.537-0.57,9.803-0.875
						c1.521-0.14,3.044-0.3,4.561-0.447c1.259-0.12,2.521-0.233,3.778-0.362c3.856-0.39,7.689-1.016,11.54-1.424
						c1.683-0.179,1.906,0.14,1.746,1.749c-0.172,1.689-0.104,1.706,1.623,1.342c4.807-1.02,9.663-1.989,14.385-2.922
						c1.627-0.322,2.186,0.105,2.25,1.697c0.193,4.789,0.159,9.519,0.117,14.208c-0.004,0.257,0,0.513,0.003,1.021
						c0.699-0.177,1.195-0.296,1.682-0.433c1.525-0.428,1.966-0.236,2.243,1.195c0.211,1.104,0.291,2.239,0.367,3.356
						c0.237,3.563,0.324,7.124,0.507,10.63c0.036,0.647,0.076,1.294,0.12,1.943c0.067,1.048,0.149,2.091,0.248,3.131
						c0.361,3.708,1.313,7.292,1.989,10.86C175.755,100.997,178.403,98.26,180.958,95.533z"/>
					<g>
						<defs>
							<path id="SVGID_5_" d="M180.676,96.973c-0.005-0.003-0.008-0.009-0.014-0.009c12.559-13.986,23.424-27.836,29.657-44.58
								c5.123-13.764,2.403-30.506-0.635-45.348c-0.248-0.842-0.84-1.391-1.18-1.644c-0.347-0.256-1.036-0.661-1.924-0.655
								c-15.43,1.178-32.417,2.652-45.181,10.554c-15.371,9.512-27.743,23.019-40.052,37.392c-0.009-0.009-0.015-0.009-0.026-0.018
								c-2.327,2.866-4.766,5.906-7.265,9.027c1.305,0.086,2.611,0.183,3.902,0.074c3.169-0.265,6.334-0.547,9.505-0.843
								c1.476-0.14,2.945-0.294,4.42-0.438c1.223-0.118,2.448-0.223,3.671-0.349c3.732-0.375,7.451-0.991,11.185-1.384
								c1.639-0.173,1.847,0.137,1.683,1.687c-0.171,1.635-0.108,1.652,1.568,1.299c4.663-0.991,9.419-1.92,13.993-2.832
								c1.577-0.313,2.122,0.098,2.178,1.642c0.166,4.637,0.088,9.212,0.009,13.724c-0.006,0.245,0,0.496,0,0.991
								c0.675-0.177,1.159-0.29,1.633-0.425c1.482-0.412,1.911-0.23,2.171,1.16c0.201,1.064,0.271,2.156,0.338,3.238
								c0.218,3.447,0.301,6.896,0.461,10.275c0.03,0.629,0.067,1.258,0.109,1.885c0.063,1.009,0.133,2.025,0.229,3.028
								c0.346,3.589,1.258,7.05,1.905,10.503C175.62,102.262,178.191,99.607,180.676,96.973z"/>
						</defs>
						<clipPath id="SVGID_6_">
							<use xlink:href="#SVGID_5_"  overflow="visible"/>
						</clipPath>
						<path clip-path="url(#SVGID_6_)" fill="#19D4F2" d="M182.521,0.62c16.693,77.06-54.492,138.188-125.019,147.938
							c-68.628,9.491-127.146-35.466-137.975-103.5c-10.288-64.631,21.648-150.574,92.91-164.074
							C84.466-132.656,167.415-69.111,182.521,0.62z"/>
					</g>
					<g>
						<defs>
							<path id="SVGID_7_" d="M166.003,128.007c0.661-7.173,0.94-10.841,1.392-18.316c3.058-3.125,6.126-6.247,9.147-9.355
								c-3.113-5.221-4.728-11.061-5.844-17.17c-0.14-0.758-0.279-1.527-0.405-2.291c-0.186-1.124-0.36-2.268-0.532-3.409
								c-2.479-2.919-4.987,2.165-5.073,1.364c-0.085-0.789-0.177-1.583-0.261-2.376c-0.15-1.461-0.304-2.928-0.468-4.398
								c-0.395-3.56-0.861-7.15-1.26-10.767c-0.128-1.16-0.524-1.416-1.785-1.293c-5.446,0.527-10.897,1.031-16.357,1.562
								c-1.162,0.113-2.444-4.476-2.495-4.604c-1.157,0.06-2.311,0.114-3.462,0.159c-1.439,0.057-2.661,0.702-4.096,0.721
								c-6.38,0.088-16.227,2.903-22.41,1.174c-1.845,2.315-0.426,0.869-2.319,3.235c-10.914,2.362-16.413,3.556-27.297,5.993
								c-5.018,1.116-11.673,5.287-14.823,9.227c-7.723,9.597-15.492,19.145-23.327,28.647c-3.106,3.746-1.699,6.241,3.183,5.588
								c11.782-1.601,23.559-3.205,35.338-4.828c1.027-0.149,2.131-0.417,3.264-0.781c2.93,7.008,9.05,14.351,17.525,20.219
								c7.441,5.156,15.361,6.928,22.612,8.09c-0.034,0.461-0.017,2.25-0.001,2.671c0.464,12.009,0.516,17.712,0.429,28.898
								c-0.035,3.931,2.766,4.358,6.258,0.991c8.675-8.377,17.334-16.775,25.981-25.184
								C162.398,138.38,165.614,132.22,166.003,128.007z"/>
						</defs>
						<clipPath id="SVGID_8_">
							<use xlink:href="#SVGID_7_"  overflow="visible"/>
						</clipPath>
						<path clip-path="url(#SVGID_8_)" fill="#F49C11" d="M176,29.902c9.875,59.183-44.697,105.973-98.994,113.575
							c-54.719,7.66-103.123-26.362-111.647-81.253c-8.406-54.13,22.68-117.055,80.806-126.098
							C103.169-72.738,166.506-26.967,176,29.902z"/>
					</g>
					<path fill="#FFFFFF" d="M171.085,92.894c-0.099-1.04-0.181-2.083-0.248-3.131c-0.044-0.649-0.083-1.296-0.12-1.943
						c-0.186-3.506-0.27-7.066-0.507-10.63c-0.076-1.117-0.156-2.253-0.367-3.356c-0.277-1.432-0.715-1.623-2.243-1.195
						c-0.488,0.137-0.982,0.256-1.682,0.433c-0.003-0.508-0.007-0.764-0.003-1.021c0.043-4.689,0.079-9.417-0.117-14.208
						c-0.063-1.595-0.623-2.016-2.25-1.697c-4.72,0.934-9.579,1.903-14.385,2.922c-1.728,0.364-1.795,0.348-1.623-1.342
						c0.16-1.609-0.063-1.928-1.746-1.749c-3.851,0.408-7.684,1.034-11.54,1.424c-1.257,0.129-2.52,0.242-3.778,0.362
						c-1.516,0.15-3.039,0.308-4.561,0.447c-3.266,0.305-6.532,0.602-9.803,0.875c-1.332,0.108-2.676,0.012-4.018-0.077
						c-0.088,0.105-0.168,0.208-0.251,0.311c6.184,1.729,12.508,2.073,18.883,1.96c1.433-0.023,2.874-0.069,4.314-0.132
						c1.152-0.045,2.306-0.107,3.463-0.165c0.049,0.125,0.095,0.257,0.146,0.384c-0.623,0.359-1.249,0.718-1.868,1.08
						c-0.768,0.444-1.534,0.889-2.297,1.334c-1.34,0.774-2.678,1.554-4.021,2.335c0.042,0.108,0.077,0.219,0.117,0.33
						c0.846-0.022,1.692,0.006,2.527-0.079c1.458-0.148,2.927-0.299,4.386-0.45c1.156-0.113,2.32-0.233,3.479-0.353
						c5.45-0.547,10.902-1.071,16.345-1.624c1.261-0.125,1.658,0.127,1.777,1.281c0.376,3.612,0.832,7.184,1.21,10.733
						c0.158,1.464,0.303,2.928,0.445,4.381c0.082,0.795,0.172,1.581,0.252,2.367c0.081,0.795,0.155,1.592,0.241,2.384
						c0.171,1.521,0.479,3.014,0.712,4.507c0.102-0.021,0.206-0.04,0.309-0.063c0.636-1.514,1.283-3.041,1.901-4.557
						c0.215-0.53,0.433-1.065,0.649-1.596c0.291-0.718,0.59-1.438,0.882-2.153c0.127,0.029,0.257,0.063,0.38,0.097
						c0.167,1.14,0.337,2.273,0.516,3.401c0.126,0.761,0.26,1.521,0.396,2.273c1.101,6.084,2.685,11.89,5.783,17.073
						c0.099-0.107,0.202-0.213,0.302-0.313C172.398,100.186,171.446,96.602,171.085,92.894z"/>
					<g>
						<path fill="#F15A29" d="M103.226,29.5c0.602,3.919-2.217,7.519-6.266,8.069c-4.046,0.55-7.781-2.162-8.375-6.089
							c-0.597-3.924,2.165-7.576,6.205-8.117C98.836,22.818,102.628,25.585,103.226,29.5z"/>
						<path fill="#F15A29" d="M209.651,168.034c1.613,10.517-5.943,20.167-16.798,21.646c-10.853,1.473-20.868-5.799-22.458-16.331
							c-1.601-10.522,5.805-20.315,16.64-21.768C197.879,150.125,208.046,157.54,209.651,168.034z"/>
						<path fill="#F15A29" d="M11.812,143.875c0.195,2.667-2.098,5.139-5.077,5.535c-2.978,0.399-5.514-1.41-5.723-4.05
							c-0.205-2.644,2.005-5.145,4.994-5.566C9,139.367,11.618,141.206,11.812,143.875z"/>
					</g>
					<path fill="#FFFFFF" d="M189.545,43.947c-3.571,4.367-10.292,5.064-15.017,1.488c-4.719-3.567-5.713-10.125-2.229-14.562
						c3.484-4.441,10.182-5.043,14.985-1.402C192.098,33.118,193.111,39.578,189.545,43.947z"/>
				</g>
				<g>
					<path fill="#FFFFFF" d="M188.862,43.295c-3.205,3.942-9.25,4.563-13.504,1.347c-4.251-3.207-5.148-9.098-2.013-13.091
						c3.131-3.993,9.151-4.547,13.475-1.276C191.141,33.548,192.068,39.358,188.862,43.295z"/>
					<g>
						<path fill="#F15A29" d="M188.857,43.292c-3.203,3.937-9.252,4.558-13.504,1.347c-4.251-3.213-5.149-9.097-2.017-13.094
							c3.133-3.996,9.157-4.545,13.483-1.273C191.14,33.545,192.063,39.355,188.857,43.292z"/>
						<path fill="#FFFFFF" d="M187.609,42.33c-2.679,3.301-7.749,3.817-11.318,1.121c-3.565-2.694-4.317-7.619-1.688-10.965
							c2.63-3.345,7.682-3.81,11.297-1.072C189.52,34.155,190.288,39.025,187.609,42.33z"/>
					</g>
					<path fill="#28E4F7" d="M177.838,43.011c3.402,1.95,7.713,0.945,9.616-2.23c0.398-0.667,0.652-1.374,0.778-2.094
						c-2.027,2.772-6.048,3.564-9.272,1.712c-2.695-1.546-4.039-4.503-3.569-7.264c-0.115,0.168-0.227,0.334-0.33,0.51
						C173.193,36.853,174.431,41.06,177.838,43.011z"/>
				</g>
			</g>
		</g>
	</g>
</svg>