<?xml version="1.0" encoding="utf-8"?>
<!-- Generator: Adobe Illustrator 16.0.3, SVG Export Plug-In . SVG Version: 6.00 Build 0)  -->
<!DOCTYPE svg PUBLIC "-//W3C//DTD SVG 1.1//EN" "http://www.w3.org/Graphics/SVG/1.1/DTD/svg11.dtd">
<svg version="1.1" id="Layer_1" xmlns="http://www.w3.org/2000/svg" xmlns:xlink="http://www.w3.org/1999/xlink" x="0px" y="0px"
	 width="256px" height="256px" viewBox="0 0 256 256" enable-background="new 0 0 256 256" xml:space="preserve">
<g>
	<g>
		<g>
			<g>
				<g>
					<path fill="#F15A29" d="M187.268,88.746c-6.485,0.659-12.98,1.282-19.477,1.935c-1.382,0.143-2.768,0.286-4.146,0.421
						c-1.738,0.18-3.489,0.359-5.226,0.536c-0.995,0.102-2.004,0.068-3.011,0.094c-0.048-0.132-0.09-0.264-0.14-0.393
						c1.601-0.93,3.195-1.859,4.792-2.782c0.909-0.53,1.823-1.06,2.737-1.59c0.738-0.431,1.483-0.858,2.226-1.286
						c-0.061-0.152-0.117-0.309-0.175-0.458c-1.378,0.069-2.753,0.143-4.126,0.197c-1.716,0.074-3.434,0.129-5.141,0.157
						c-7.597,0.135-15.132-0.275-22.5-2.335c-2.199,2.759-4.438,5.569-6.7,8.387c-13.001,2.838-19.542,4.273-32.489,7.179
						c-5.964,1.338-13.884,6.293-17.635,10.962c-9.181,11.358-18.422,22.654-27.728,33.902c-3.692,4.427-2.032,7.379,3.749,6.616
						c13.981-1.884,27.955-3.804,41.937-5.679c1.22-0.172,2.533-0.491,3.878-0.93c3.466,8.303,10.724,17.013,20.783,23.95
						c2.286,1.575,4.61,2.98,6.952,4.236c0.847,0.319,1.713,0.614,2.566,0.943c1.229,0.4,2.509,0.716,3.767,1.096
						c2.595,0.547,5.222,1.117,7.956,1.205c2.706,0.173,5.467,0.088,8.183-0.318c2.707-0.404,5.408-0.998,7.968-1.863
						c2.552-0.867,5.043-1.874,7.319-2.994c2.269-1.117,4.437-2.315,6.356-3.493c1.908-1.181,3.693-2.355,5.209-3.415
						c1.511-1.055,2.87-2.022,3.96-2.824c2.181-1.608,3.504-2.485,3.504-2.485s-0.237,0.306-0.684,0.843
						c-0.446,0.542-1.094,1.357-1.958,2.348c-0.861,0.995-1.931,2.224-3.252,3.557c-1.323,1.335-2.872,2.824-4.708,4.331
						c-1.836,1.505-3.924,3.103-6.298,4.585c-2.378,1.477-5.082,2.879-7.974,4.077c-2.888,1.202-6.085,2.098-9.298,2.702
						c-0.888,0.17-1.794,0.298-2.694,0.408c0.514,14.13,0.514,20.745,0.415,33.979c-0.041,4.681,3.299,5.196,7.46,1.185
						c10.345-9.973,20.665-19.958,30.966-29.971c4.15-4.046,7.985-11.371,8.459-16.354c0.805-8.499,1.152-12.842,1.711-21.708
						c3.643-3.72,7.31-7.433,10.922-11.134c-3.692-6.177-5.584-13.091-6.892-20.344c-0.162-0.896-0.321-1.802-0.472-2.709
						c-0.212-1.344-0.416-2.695-0.614-4.053c-0.146-0.041-0.301-0.081-0.453-0.115c-0.348,0.853-0.704,1.71-1.051,2.566
						c-0.258,0.632-0.518,1.27-0.774,1.901c-0.738,1.806-1.507,3.625-2.265,5.43c-0.123,0.028-0.247,0.051-0.368,0.075
						c-0.278-1.779-0.645-3.557-0.848-5.37c-0.103-0.944-0.191-1.893-0.288-2.84c-0.096-0.937-0.203-1.874-0.3-2.821
						c-0.169-1.731-0.342-3.476-0.53-5.22c-0.451-4.23-0.992-8.486-1.442-12.79C189.243,88.897,188.771,88.596,187.268,88.746z"/>
					<path fill="#FFFFFF" d="M231.808,57.895c-4.479,5.523-13.015,6.357-19.051,1.783c-6.025-4.569-7.356-12.892-3.004-18.497
						c4.358-5.609,12.818-6.312,18.97-1.661C234.886,44.181,236.283,52.38,231.808,57.895z"/>
					<g>
						<defs>
							<path id="SVGID_1_" d="M114.833,199.39c-12.753,12.307-45.99,23.216-48.512,21.05c-3.069-2.647,4.68-32.071,15.471-43.629
								c17.273-18.498,20.946-8.819,30.224-2.43C121.289,180.76,133.01,181.848,114.833,199.39z"/>
						</defs>
						<use xlink:href="#SVGID_1_"  overflow="visible" fill="#F15A29"/>
						<clipPath id="SVGID_2_">
							<use xlink:href="#SVGID_1_"  overflow="visible"/>
						</clipPath>
						<path clip-path="url(#SVGID_2_)" fill="#F49C11" d="M113.516,195.185c-14.005,11.774-49.884,25.292-52.68,22.896
							c-3.386-2.902,6.081-34.998,16.467-47.746c10.05-12.335,22.807-9.545,32.953-2.635
							C120.322,174.551,126.102,184.604,113.516,195.185z"/>
					</g>
					<g>
						<defs>
							<path id="SVGID_3_" d="M215.435,126.394c-0.004,0-0.012-0.004-0.019-0.007c15.403-17.194,28.662-34.267,36.205-54.863
								c6.198-16.931,2.702-37.501-1.214-55.693c-0.313-1.028-1.052-1.705-1.467-2.011c-0.43-0.315-1.283-0.82-2.376-0.82
								c-18.885,1.388-39.687,3.116-55.302,12.791c-18.849,11.678-33.94,28.279-48.976,45.972c-0.014-0.009-0.021-0.016-0.033-0.022
								c-2.846,3.529-5.819,7.284-8.874,11.13c1.599,0.105,3.204,0.22,4.788,0.091c3.895-0.325,7.789-0.679,11.681-1.042
								c1.813-0.167,3.627-0.357,5.434-0.533c1.5-0.143,3.005-0.278,4.502-0.432c4.595-0.464,9.163-1.211,13.751-1.697
								c2.005-0.213,2.271,0.167,2.081,2.084c-0.205,2.013-0.125,2.033,1.934,1.599c5.728-1.215,11.515-2.37,17.142-3.482
								c1.939-0.383,2.604,0.125,2.681,2.022c0.23,5.706,0.189,11.343,0.139,16.93c-0.004,0.306,0,0.611,0.003,1.216
								c0.833-0.211,1.424-0.353,2.004-0.516c1.818-0.509,2.342-0.281,2.673,1.424c0.251,1.315,0.347,2.668,0.438,4
								c0.283,4.246,0.386,8.489,0.604,12.667c0.043,0.771,0.09,1.542,0.143,2.316c0.081,1.249,0.178,2.491,0.296,3.73
								c0.43,4.418,1.565,8.689,2.37,12.941C209.236,132.904,212.392,129.642,215.435,126.394z"/>
						</defs>
						<clipPath id="SVGID_4_">
							<use xlink:href="#SVGID_3_"  overflow="visible"/>
						</clipPath>
						<path clip-path="url(#SVGID_4_)" fill="none" d="M220.118,11.185c20.99,94.518-67.106,169.469-153.438,181.292
							c-83.668,11.459-155.139-43.612-168.362-126.539C-114.186-12.486-75.486-118.756,11.12-135.645
							C99.252-152.826,201.273-73.671,220.118,11.185z"/>
					</g>
					<path fill="#19B5FE" d="M215.435,126.394c-0.004,0-0.012-0.004-0.019-0.007c15.403-17.194,28.662-34.267,36.205-54.863
						c6.198-16.931,2.702-37.501-1.214-55.693c-0.313-1.028-1.052-1.705-1.467-2.011c-0.43-0.315-1.283-0.82-2.376-0.82
						c-18.885,1.388-39.687,3.116-55.302,12.791c-18.849,11.678-33.94,28.279-48.976,45.972c-0.014-0.009-0.021-0.016-0.033-0.022
						c-2.846,3.529-5.819,7.284-8.874,11.13c1.599,0.105,3.204,0.22,4.788,0.091c3.895-0.325,7.789-0.679,11.681-1.042
						c1.813-0.167,3.627-0.357,5.434-0.533c1.5-0.143,3.005-0.278,4.502-0.432c4.595-0.464,9.163-1.211,13.751-1.697
						c2.005-0.213,2.271,0.167,2.081,2.084c-0.205,2.013-0.125,2.033,1.934,1.599c5.728-1.215,11.515-2.37,17.142-3.482
						c1.939-0.383,2.604,0.125,2.681,2.022c0.23,5.706,0.189,11.343,0.139,16.93c-0.004,0.306,0,0.611,0.003,1.216
						c0.833-0.211,1.424-0.353,2.004-0.516c1.818-0.509,2.342-0.281,2.673,1.424c0.251,1.315,0.347,2.668,0.438,4
						c0.283,4.246,0.386,8.489,0.604,12.667c0.043,0.771,0.09,1.542,0.143,2.316c0.081,1.249,0.178,2.491,0.296,3.73
						c0.43,4.418,1.565,8.689,2.37,12.941C209.236,132.904,212.392,129.642,215.435,126.394z"/>
					<g>
						<defs>
							<path id="SVGID_5_" d="M215.1,128.108c-0.006-0.003-0.01-0.01-0.017-0.01c14.965-16.666,27.912-33.169,35.338-53.12
								c6.104-16.4,2.863-36.351-0.756-54.036c-0.295-1.003-1-1.658-1.406-1.958c-0.414-0.305-1.234-0.788-2.293-0.781
								c-18.386,1.404-38.628,3.161-53.837,12.576c-18.316,11.334-33.058,27.429-47.725,44.556c-0.01-0.01-0.017-0.01-0.031-0.021
								c-2.773,3.416-5.679,7.038-8.656,10.757c1.555,0.103,3.111,0.218,4.65,0.088c3.776-0.315,7.547-0.651,11.326-1.004
								c1.758-0.167,3.51-0.351,5.267-0.522c1.457-0.14,2.917-0.266,4.375-0.416c4.447-0.447,8.878-1.181,13.327-1.649
								c1.953-0.207,2.201,0.163,2.005,2.01c-0.204,1.948-0.128,1.968,1.869,1.547c5.556-1.181,11.223-2.288,16.674-3.375
								c1.879-0.373,2.529,0.116,2.595,1.956c0.198,5.525,0.105,10.977,0.011,16.353c-0.007,0.292,0,0.591,0,1.181
								c0.804-0.211,1.381-0.346,1.945-0.506c1.766-0.491,2.277-0.274,2.587,1.382c0.239,1.269,0.323,2.569,0.403,3.859
								c0.26,4.107,0.358,8.218,0.55,12.243c0.036,0.75,0.08,1.5,0.13,2.247c0.074,1.202,0.159,2.414,0.272,3.608
								c0.412,4.276,1.499,8.401,2.27,12.515C209.075,134.411,212.139,131.248,215.1,128.108z"/>
						</defs>
						<clipPath id="SVGID_6_">
							<use xlink:href="#SVGID_5_"  overflow="visible"/>
						</clipPath>
						<path clip-path="url(#SVGID_6_)" fill="#19D4F2" d="M217.298,13.297c19.891,91.823-64.932,164.663-148.971,176.28
							c-81.776,11.31-151.504-42.261-164.408-123.328c-12.259-77.013,25.796-179.422,110.71-195.507
							C100.458-145.513,199.298-69.793,217.298,13.297z"/>
					</g>
					<g>
						<defs>
							<path id="SVGID_7_" d="M197.616,165.088c0.787-8.547,1.12-12.918,1.659-21.825c3.644-3.725,7.3-7.443,10.9-11.147
								c-3.709-6.221-5.633-13.18-6.963-20.459c-0.167-0.903-0.333-1.82-0.483-2.73c-0.221-1.339-0.429-2.702-0.633-4.062
								c-2.954-3.479-5.943,2.58-6.045,1.625c-0.101-0.939-0.211-1.886-0.311-2.831c-0.179-1.741-0.362-3.489-0.558-5.241
								c-0.47-4.242-1.026-8.52-1.501-12.83c-0.152-1.382-0.625-1.687-2.127-1.541c-6.49,0.628-12.985,1.229-19.491,1.861
								c-1.385,0.135-2.913-5.333-2.973-5.485c-1.379,0.071-2.753,0.136-4.126,0.189c-1.714,0.068-3.17,0.836-4.881,0.859
								c-7.602,0.105-19.335,3.459-26.704,1.399c-2.198,2.758-0.508,1.035-2.764,3.855c-13.005,2.814-19.557,4.237-32.527,7.141
								c-5.979,1.33-13.909,6.3-17.663,10.995c-9.202,11.435-18.459,22.812-27.795,34.136c-3.701,4.464-2.025,7.437,3.793,6.659
								c14.039-1.908,28.072-3.818,42.108-5.752c1.224-0.177,2.54-0.496,3.889-0.931c3.491,8.35,10.784,17.1,20.883,24.092
								c8.867,6.144,18.304,8.255,26.944,9.64c-0.041,0.549-0.02,2.681-0.001,3.183c0.553,14.31,0.615,21.106,0.511,34.435
								c-0.042,4.684,3.295,5.192,7.457,1.181c10.336-9.982,20.655-19.989,30.959-30.008
								C193.32,177.449,197.152,170.108,197.616,165.088z"/>
						</defs>
						<clipPath id="SVGID_8_">
							<use xlink:href="#SVGID_7_"  overflow="visible"/>
						</clipPath>
						<path clip-path="url(#SVGID_8_)" fill="#F49C11" d="M209.528,48.188c11.768,70.521-53.26,126.275-117.959,135.333
							c-65.202,9.127-122.879-31.413-133.037-96.82c-10.017-64.5,27.025-139.48,96.287-150.255
							C122.744-74.116,198.215-19.576,209.528,48.188z"/>
					</g>
					<path fill="#FFFFFF" d="M203.671,123.248c-0.118-1.239-0.215-2.482-0.296-3.73c-0.052-0.774-0.099-1.544-0.143-2.316
						c-0.221-4.178-0.322-8.42-0.604-12.667c-0.091-1.331-0.186-2.685-0.438-4c-0.331-1.706-0.852-1.934-2.673-1.424
						c-0.582,0.163-1.17,0.305-2.004,0.516c-0.003-0.605-0.008-0.91-0.003-1.216c0.051-5.587,0.094-11.222-0.139-16.93
						c-0.074-1.901-0.742-2.402-2.681-2.022c-5.625,1.113-11.414,2.268-17.142,3.482c-2.058,0.434-2.139,0.414-1.934-1.599
						c0.19-1.917-0.076-2.297-2.081-2.084c-4.588,0.486-9.156,1.232-13.751,1.697c-1.498,0.153-3.002,0.289-4.502,0.432
						c-1.806,0.179-3.621,0.367-5.434,0.533c-3.892,0.363-7.784,0.717-11.681,1.042c-1.587,0.128-3.188,0.014-4.788-0.091
						c-0.104,0.125-0.201,0.248-0.299,0.37c7.368,2.06,14.904,2.471,22.5,2.335c1.707-0.028,3.424-0.083,5.141-0.157
						c1.374-0.054,2.748-0.128,4.126-0.197c0.058,0.149,0.114,0.306,0.175,0.458c-0.743,0.428-1.488,0.855-2.226,1.286
						c-0.915,0.53-1.828,1.06-2.737,1.59c-1.596,0.923-3.19,1.852-4.792,2.782c0.05,0.129,0.092,0.261,0.14,0.393
						c1.007-0.026,2.017,0.007,3.011-0.094c1.737-0.177,3.488-0.356,5.226-0.536c1.378-0.135,2.765-0.278,4.146-0.421
						c6.495-0.652,12.991-1.276,19.477-1.935c1.503-0.149,1.976,0.152,2.118,1.527c0.448,4.304,0.991,8.56,1.442,12.79
						c0.188,1.745,0.361,3.489,0.53,5.22c0.098,0.947,0.205,1.884,0.3,2.821c0.097,0.947,0.185,1.896,0.288,2.84
						c0.204,1.813,0.57,3.591,0.848,5.37c0.122-0.024,0.246-0.047,0.368-0.075c0.758-1.805,1.529-3.624,2.265-5.43
						c0.256-0.632,0.516-1.27,0.774-1.901c0.347-0.855,0.703-1.713,1.051-2.566c0.151,0.035,0.306,0.075,0.453,0.115
						c0.198,1.358,0.401,2.709,0.614,4.053c0.15,0.907,0.31,1.813,0.472,2.709c1.313,7.25,3.2,14.167,6.892,20.344
						c0.118-0.128,0.241-0.253,0.36-0.374C205.236,131.937,204.102,127.667,203.671,123.248z"/>
					<g>
						<path fill="#F15A29" d="M122.812,47.71c0.717,4.67-2.642,8.959-7.466,9.615c-4.821,0.656-9.271-2.576-9.979-7.256
							c-0.711-4.676,2.58-9.028,7.394-9.672C117.581,39.748,122.099,43.044,122.812,47.71z"/>
						<path fill="#F15A29" d="M249.625,212.784c1.922,12.531-7.082,24.031-20.017,25.792c-12.932,1.754-24.865-6.911-26.76-19.459
							c-1.908-12.538,6.917-24.207,19.827-25.938C235.599,191.444,247.713,200.279,249.625,212.784z"/>
						<path fill="#F15A29" d="M13.885,183.997c0.232,3.177-2.5,6.124-6.05,6.595c-3.548,0.475-6.57-1.681-6.819-4.826
							c-0.244-3.151,2.389-6.131,5.951-6.632C10.534,178.625,13.653,180.816,13.885,183.997z"/>
					</g>
					<path fill="#FFFFFF" d="M225.668,64.924c-4.255,5.204-12.263,6.035-17.895,1.773c-5.623-4.25-6.808-12.064-2.656-17.352
						c4.151-5.292,12.133-6.009,17.856-1.67C228.709,52.021,229.917,59.718,225.668,64.924z"/>
				</g>
				<g>
					<path fill="#FFFFFF" d="M224.854,64.147c-3.819,4.697-11.022,5.437-16.091,1.605c-5.065-3.821-6.135-10.841-2.398-15.599
						c3.731-4.758,10.904-5.419,16.056-1.521C227.57,52.533,228.675,59.457,224.854,64.147z"/>
					<g>
						<path fill="#F15A29" d="M224.849,64.144c-3.817,4.691-11.024,5.432-16.091,1.605c-5.065-3.829-6.136-10.84-2.403-15.603
							c3.734-4.762,10.911-5.416,16.067-1.517C227.568,52.529,228.667,59.453,224.849,64.144z"/>
						<path fill="#FFFFFF" d="M223.361,62.998c-3.192,3.934-9.233,4.548-13.487,1.336c-4.248-3.21-5.144-9.079-2.011-13.066
							c3.134-3.985,9.153-4.539,13.461-1.277C225.638,53.256,226.553,59.06,223.361,62.998z"/>
					</g>
					<path fill="#28E4F7" d="M211.718,63.809c4.054,2.324,9.19,1.126,11.458-2.658c0.474-0.795,0.777-1.637,0.927-2.496
						c-2.416,3.303-7.207,4.247-11.049,2.04c-3.211-1.843-4.812-5.366-4.252-8.655c-0.137,0.201-0.27,0.398-0.394,0.607
						C206.184,56.471,207.658,61.483,211.718,63.809z"/>
				</g>
			</g>
		</g>
	</g>
</g>
</svg>
