<?xml version="1.0" encoding="utf-8"?>
<!-- Generator: Adobe Illustrator 16.0.3, SVG Export Plug-In . SVG Version: 6.00 Build 0)  -->
<!DOCTYPE svg PUBLIC "-//W3C//DTD SVG 1.1//EN" "http://www.w3.org/Graphics/SVG/1.1/DTD/svg11.dtd">
<svg version="1.1" id="Layer_1" xmlns="http://www.w3.org/2000/svg" xmlns:xlink="http://www.w3.org/1999/xlink" x="0px" y="0px"
	 width="100px" height="100px" viewBox="0 0 100 100" enable-background="new 0 0 100 100" xml:space="preserve">
<g>
	<g>
		<g>
			<path fill="#00C6F2" d="M49.999,100C22.43,100,0,77.57,0,50.002C0,22.431,22.43,0,49.999,0C77.568,0,100,22.431,100,50.002
				C100,77.57,77.568,100,49.999,100z M49.999,0.842c-27.104,0-49.156,22.053-49.156,49.16c0,27.104,22.051,49.155,49.156,49.155
				c27.107,0,49.159-22.051,49.159-49.155C99.157,22.896,77.105,0.842,49.999,0.842z"/>
		</g>
		<g>
			<circle fill="#FF5A29" cx="49.999" cy="50.002" r="45.856"/>
		</g>
	</g>
	<g>
		<g>
			<rect x="31.867" y="18.653" fill="#F1F2F2" width="36.265" height="62.699"/>
		</g>
		<g>
			<path fill="#25282D" d="M65.155,18.653c1.638,0,2.977,1.339,2.977,2.975v56.749c0,1.637-1.339,2.975-2.977,2.975H34.843
				c-1.637,0-2.976-1.338-2.976-2.975V21.628c0-1.636,1.339-2.975,2.976-2.975H65.155 M65.155,14.811H34.843
				c-3.76,0-6.82,3.059-6.82,6.817v56.749c0,3.759,3.06,6.817,6.82,6.817h30.312c3.761,0,6.82-3.059,6.82-6.817V21.628
				C71.976,17.869,68.916,14.811,65.155,14.811L65.155,14.811z"/>
		</g>
	</g>
	<g>
		<rect x="34.638" y="28.089" fill="#FFAA2C" width="30.636" height="39.813"/>
		<path fill="#25282D" d="M65.273,68.861H34.638c-0.531,0-0.961-0.429-0.961-0.96V28.089c0-0.531,0.43-0.961,0.961-0.961h30.636
			c0.531,0,0.961,0.43,0.961,0.961v39.813C66.234,68.433,65.805,68.861,65.273,68.861z M35.599,66.94h28.714V29.049H35.599V66.94z"
			/>
	</g>
	<g>
		<circle fill="#FF5A29" cx="50" cy="73.858" r="2.015"/>
		<path fill="#2E3035" d="M50,76.833c-1.641,0-2.976-1.334-2.976-2.975c0-1.642,1.335-2.977,2.976-2.977s2.976,1.335,2.976,2.977
			C52.976,75.499,51.641,76.833,50,76.833z M50,72.804c-0.581,0-1.054,0.474-1.054,1.055s0.473,1.054,1.054,1.054
			s1.054-0.473,1.054-1.054S50.581,72.804,50,72.804z"/>
	</g>
	<g>
		<g>
			<path fill="#FF5A29" d="M51.087,21.53c0,0.6-0.487,1.085-1.089,1.085c-0.6,0-1.086-0.486-1.086-1.085
				c0-0.597,0.486-1.083,1.086-1.083C50.6,20.446,51.087,20.933,51.087,21.53z"/>
		</g>
		<g>
			<path fill="#2E3035" d="M44.784,25.963c-0.579,0-1.048-0.469-1.048-1.048c0-0.578,0.469-1.047,1.048-1.047l10.432-0.001
				c0.58,0,1.048,0.469,1.048,1.047c0,0.579-0.469,1.048-1.048,1.048L44.784,25.963z"/>
		</g>
	</g>
	<g>
		<g>
			<path fill-rule="evenodd" clip-rule="evenodd" fill="#2E3035" d="M45.611,53.092c0-0.129,0-0.256,0-0.384
				c0-3.393,0.017-6.787-0.01-10.178c-0.01-1.258,0.955-2.203,1.889-2.366c1.286-0.224,2.592,0.866,2.604,2.188
				c0.014,1.499,0.004,2.998,0.004,4.497c0,0.095,0,0.191,0,0.333c0.628-0.342,1.257-0.436,1.907-0.159
				c0.625,0.268,1.056,0.734,1.329,1.348c1.96-0.855,3.268-0.055,3.52,2.128c0.28-0.083,0.556-0.198,0.843-0.245
				c0.696-0.111,1.26,0.141,1.672,0.707c0.498,0.686,0.541,1.452,0.401,2.259c-0.32,1.856-0.824,3.649-1.684,5.339
				c-0.546,1.074-0.891,2.223-1.104,3.411c-0.073,0.409-0.336,0.615-0.688,0.55c-0.325-0.059-0.487-0.348-0.415-0.751
				c0.25-1.397,0.696-2.731,1.334-3.997c0.823-1.632,1.245-3.377,1.505-5.171c0.019-0.128,0.014-0.262,0.003-0.393
				c-0.046-0.549-0.252-0.813-0.649-0.847c-0.587-0.05-1.062,0.212-1.171,0.707c-0.068,0.311-0.047,0.644-0.066,0.966
				c-0.016,0.283-0.192,0.499-0.444,0.546c-0.27,0.049-0.533-0.075-0.625-0.319c-0.04-0.104-0.047-0.223-0.047-0.334
				c-0.004-0.771-0.002-1.541-0.002-2.311c0-0.123,0.001-0.245-0.003-0.368c-0.025-0.909-0.793-1.399-1.635-1.044
				c-0.435,0.184-0.602,0.543-0.609,0.988c-0.007,0.534-0.002,1.069-0.002,1.604c0,0.435-0.195,0.674-0.551,0.679
				c-0.37,0.005-0.586-0.237-0.586-0.682c0.001-0.832,0.011-1.665,0.018-2.498c0-0.052,0.001-0.105,0-0.158
				c-0.02-0.912-0.784-1.412-1.629-1.061c-0.432,0.18-0.609,0.537-0.616,0.983c-0.01,0.552-0.023,1.106,0.004,1.657
				c0.018,0.367-0.249,0.627-0.546,0.647c-0.325,0.021-0.59-0.248-0.597-0.627c-0.011-0.535-0.004-1.07-0.002-1.604
				c0.006-2.219,0.016-4.436,0.018-6.654c0-0.845-0.418-1.253-1.225-1.217c-0.628,0.029-1.017,0.436-1.021,1.099
				c-0.006,1.516-0.002,3.033-0.002,4.55c0,2.771,0,5.542-0.001,8.312c0,0.323-0.164,0.556-0.425,0.614
				c-0.275,0.063-0.507-0.06-0.671-0.34c-1.033-1.759-2.068-3.518-3.105-5.276c-0.252-0.426-0.499-0.496-0.94-0.289
				c-0.417,0.197-0.531,0.44-0.353,0.901c0.379,0.979,0.761,1.959,1.182,2.919c0.748,1.712,1.586,3.379,2.669,4.908
				c0.292,0.414,0.625,0.802,0.961,1.181c0.492,0.554,0.923,1.145,1.221,1.828c0.157,0.364,0.058,0.685-0.253,0.821
				c-0.312,0.138-0.577-0.018-0.781-0.369c-0.279-0.482-0.552-0.986-0.924-1.394c-0.69-0.755-1.287-1.572-1.815-2.442
				c-1.341-2.199-2.374-4.544-3.28-6.948c-0.179-0.474-0.195-0.964,0.003-1.439c0.284-0.677,0.784-1.098,1.537-1.136
				c0.729-0.036,1.342,0.2,1.733,0.868c0.621,1.057,1.25,2.111,1.875,3.166c0.062,0.105,0.124,0.208,0.186,0.313
				C45.569,53.099,45.59,53.095,45.611,53.092z"/>
			<path fill="#2E3035" d="M46.794,62.674c-0.182,0-0.447-0.084-0.682-0.488l-0.09-0.157c-0.243-0.423-0.495-0.861-0.816-1.213
				c-0.671-0.735-1.271-1.54-1.832-2.464c-1.184-1.942-2.23-4.158-3.292-6.972c-0.202-0.534-0.2-1.053,0.005-1.543
				c0.318-0.761,0.893-1.183,1.659-1.222c0.846-0.039,1.474,0.274,1.861,0.937c0.461,0.786,0.927,1.568,1.392,2.351l0.472,0.795
				c0-0.943,0.001-1.886,0.002-2.828c0.003-2.406,0.007-4.894-0.012-7.339c-0.01-1.348,1.012-2.332,2.005-2.505
				c0.12-0.021,0.243-0.031,0.365-0.031c1.27,0,2.393,1.101,2.404,2.356c0.01,1.059,0.008,2.117,0.006,3.176l-0.002,1.427
				c0.633-0.291,1.234-0.311,1.821-0.06c0.592,0.253,1.043,0.688,1.343,1.295c0.482-0.195,0.932-0.294,1.34-0.294
				c1.216,0,2.002,0.857,2.229,2.42c0.033-0.011,0.067-0.022,0.101-0.034c0.193-0.065,0.393-0.132,0.602-0.166
				c0.741-0.118,1.357,0.143,1.808,0.763c0.46,0.634,0.596,1.385,0.426,2.366c-0.359,2.079-0.914,3.838-1.697,5.378
				c-0.506,0.995-0.862,2.098-1.09,3.373c-0.085,0.48-0.406,0.751-0.853,0.664c-0.407-0.074-0.614-0.433-0.528-0.915
				c0.251-1.404,0.704-2.762,1.346-4.035c0.717-1.421,1.191-3.051,1.492-5.128c0.018-0.124,0.01-0.259,0.002-0.361
				c-0.051-0.598-0.292-0.699-0.521-0.718c-0.544-0.047-0.932,0.187-1.022,0.596c-0.044,0.201-0.049,0.412-0.053,0.635
				c-0.003,0.104-0.005,0.207-0.011,0.309c-0.019,0.344-0.243,0.616-0.558,0.676c-0.354,0.063-0.67-0.112-0.783-0.409
				c-0.049-0.131-0.056-0.273-0.056-0.383c-0.003-0.578-0.003-1.156-0.002-1.734v-0.639c0-0.101,0-0.201-0.003-0.302
				c-0.017-0.613-0.399-1.024-0.95-1.024c-0.16,0-0.324,0.035-0.49,0.105c-0.344,0.145-0.515,0.427-0.523,0.861
				c-0.005,0.373-0.004,0.746-0.003,1.12l0.001,0.481c0,0.507-0.258,0.813-0.689,0.819l0,0c-0.235,0-0.418-0.077-0.543-0.225
				c-0.123-0.145-0.185-0.346-0.185-0.597c0.001-0.625,0.006-1.25,0.011-1.875l0.006-0.778c-0.012-0.61-0.405-1.036-0.954-1.036
				c-0.156,0-0.318,0.034-0.481,0.102c-0.35,0.146-0.522,0.426-0.529,0.856l-0.002,0.144c-0.009,0.495-0.019,1.006,0.006,1.504
				c0.022,0.468-0.327,0.771-0.678,0.794l-0.045,0.001c-0.393,0-0.694-0.33-0.701-0.767c-0.008-0.419-0.006-0.84-0.004-1.26
				l0.008-2.566c0.004-1.478,0.009-2.956,0.011-4.435c0-0.758-0.363-1.116-1.078-1.077c-0.56,0.025-0.883,0.375-0.887,0.959
				c-0.004,1.082-0.003,2.165-0.002,3.249l0,1.3l-0.001,8.312c0,0.391-0.205,0.678-0.535,0.751
				c-0.056,0.012-0.113,0.019-0.168,0.019c-0.186,0-0.45-0.074-0.656-0.426c-1.033-1.758-2.067-3.517-3.105-5.276
				c-0.172-0.292-0.3-0.332-0.413-0.332c-0.092,0-0.205,0.033-0.347,0.1c-0.363,0.171-0.429,0.34-0.281,0.724
				c0.37,0.953,0.753,1.94,1.18,2.914c0.895,2.049,1.714,3.556,2.655,4.882c0.293,0.416,0.63,0.808,0.951,1.17
				c0.578,0.65,0.974,1.242,1.245,1.864c0.188,0.435,0.056,0.838-0.326,1.006C46.978,62.654,46.885,62.674,46.794,62.674z
				 M41.894,48.893c-0.044,0-0.089,0.001-0.134,0.003c-0.66,0.033-1.136,0.387-1.414,1.05c-0.177,0.422-0.177,0.87-0.001,1.335
				c1.055,2.797,2.094,4.998,3.269,6.924c0.552,0.909,1.141,1.7,1.799,2.421c0.342,0.376,0.602,0.827,0.853,1.263l0.09,0.156
				c0.179,0.308,0.375,0.415,0.603,0.311c0.24-0.104,0.308-0.343,0.181-0.637c-0.259-0.593-0.64-1.161-1.198-1.79
				c-0.326-0.368-0.669-0.767-0.971-1.193c-0.952-1.344-1.779-2.866-2.683-4.933c-0.429-0.98-0.813-1.969-1.184-2.925
				c-0.202-0.521-0.075-0.845,0.424-1.08c0.183-0.086,0.331-0.126,0.467-0.126c0.334,0,0.525,0.251,0.655,0.47
				c1.038,1.758,2.072,3.517,3.105,5.278c0.135,0.229,0.309,0.32,0.519,0.273c0.198-0.044,0.316-0.222,0.316-0.477l0.001-8.312
				l-0.001-1.3c0-1.084-0.001-2.167,0.003-3.25c0.004-0.731,0.446-1.206,1.155-1.239c0.895-0.04,1.372,0.432,1.372,1.358
				c-0.001,1.479-0.006,2.958-0.011,4.436L49.1,49.477c-0.002,0.418-0.005,0.836,0.003,1.253c0.005,0.285,0.182,0.491,0.42,0.491
				c0.242-0.014,0.456-0.205,0.442-0.5c-0.025-0.508-0.016-1.024-0.007-1.523l0.003-0.143c0.008-0.539,0.25-0.923,0.702-1.111
				c0.198-0.082,0.396-0.124,0.589-0.124c0.711,0,1.219,0.539,1.235,1.312l-0.005,0.786c-0.006,0.625-0.012,1.249-0.013,1.873
				c0,0.181,0.041,0.324,0.118,0.414c0.072,0.084,0.178,0.127,0.317,0.127c0.11-0.002,0.421-0.006,0.421-0.538l-0.001-0.48
				c-0.001-0.375-0.003-0.75,0.003-1.125c0.01-0.549,0.243-0.924,0.694-1.115c0.201-0.085,0.402-0.128,0.6-0.128
				c0.704,0,1.21,0.533,1.231,1.297c0.003,0.104,0.003,0.207,0.003,0.311v0.638c0,0.578-0.001,1.155,0.002,1.733
				c0,0.087,0.005,0.197,0.039,0.284c0.065,0.174,0.254,0.271,0.468,0.232c0.187-0.035,0.317-0.199,0.329-0.416
				c0.006-0.099,0.008-0.198,0.01-0.298c0.005-0.227,0.01-0.462,0.06-0.689c0.122-0.55,0.637-0.868,1.32-0.817
				c0.471,0.041,0.726,0.359,0.778,0.976c0.01,0.118,0.018,0.273-0.004,0.425c-0.307,2.109-0.79,3.766-1.519,5.214
				c-0.63,1.25-1.075,2.582-1.321,3.959c-0.058,0.323,0.054,0.543,0.301,0.587c0.365,0.07,0.493-0.253,0.525-0.436
				c0.233-1.302,0.598-2.431,1.117-3.451c0.77-1.514,1.316-3.247,1.67-5.299c0.158-0.913,0.042-1.576-0.376-2.153
				c-0.386-0.531-0.906-0.751-1.536-0.65c-0.185,0.03-0.365,0.09-0.557,0.155c-0.089,0.029-0.178,0.06-0.268,0.085l-0.16,0.048
				l-0.019-0.166c-0.175-1.509-0.875-2.34-1.972-2.34c-0.404,0-0.859,0.109-1.353,0.325l-0.128,0.056l-0.057-0.127
				c-0.27-0.605-0.692-1.035-1.255-1.276c-0.573-0.246-1.146-0.196-1.784,0.153l-0.208,0.114l0.001-1.893
				c0.002-1.058,0.004-2.115-0.005-3.172c-0.01-1.107-1.002-2.078-2.123-2.078c-0.106,0-0.212,0.009-0.316,0.027
				c-0.859,0.149-1.782,1.043-1.772,2.226c0.019,2.447,0.015,4.936,0.012,7.342c-0.001,0.945-0.002,1.891-0.002,2.837v0.507
				l-0.278,0.039l-0.717-1.207c-0.465-0.783-0.931-1.567-1.392-2.353C43.048,49.155,42.567,48.893,41.894,48.893z"/>
		</g>
		<g>
			<path fill-rule="evenodd" clip-rule="evenodd" fill="#2E3035" d="M42.674,37.679c0-0.323,0.104-0.497,0.308-0.603
				c0.206-0.107,0.423-0.097,0.59,0.058c0.714,0.661,1.422,1.327,2.119,2.006c0.215,0.21,0.18,0.549-0.033,0.757
				c-0.219,0.213-0.54,0.221-0.783,0.001c-0.312-0.283-0.612-0.576-0.918-0.865c-0.356-0.336-0.719-0.667-1.065-1.014
				C42.781,37.907,42.719,37.75,42.674,37.679z"/>
			<path fill="#2E3035" d="M45.271,40.201c-0.178,0-0.348-0.068-0.491-0.198c-0.219-0.198-0.432-0.402-0.645-0.605l-0.554-0.524
				c-0.266-0.248-0.533-0.497-0.79-0.755c-0.095-0.096-0.156-0.212-0.2-0.298c-0.014-0.026-0.025-0.049-0.036-0.066l-0.021-0.034
				v-0.041c0-0.36,0.122-0.591,0.384-0.728c0.263-0.135,0.549-0.106,0.75,0.08c0.817,0.756,1.491,1.394,2.121,2.008
				c0.121,0.118,0.188,0.277,0.188,0.447c0,0.188-0.081,0.374-0.221,0.511C45.622,40.129,45.45,40.201,45.271,40.201z
				 M42.815,37.642c0.008,0.015,0.017,0.031,0.026,0.048c0.038,0.074,0.085,0.165,0.15,0.23c0.255,0.255,0.519,0.502,0.782,0.748
				l0.557,0.526c0.212,0.202,0.423,0.403,0.64,0.6c0.181,0.163,0.424,0.163,0.59,0.002c0.085-0.084,0.135-0.197,0.135-0.31
				c0-0.067-0.018-0.163-0.103-0.246c-0.627-0.612-1.3-1.249-2.116-2.003c-0.118-0.108-0.27-0.119-0.429-0.037
				C42.931,37.261,42.824,37.357,42.815,37.642z"/>
		</g>
		<g>
			<path fill-rule="evenodd" clip-rule="evenodd" fill="#2E3035" d="M49.88,39.396c0.04-0.067,0.092-0.224,0.198-0.325
				c0.654-0.634,1.318-1.259,1.985-1.88c0.265-0.247,0.597-0.238,0.82,0.001c0.216,0.23,0.21,0.562-0.039,0.8
				c-0.664,0.636-1.334,1.266-2.004,1.896c-0.184,0.172-0.397,0.223-0.629,0.117C49.991,39.905,49.882,39.726,49.88,39.396z"/>
			<path fill="#2E3035" d="M50.449,40.201c-0.098,0-0.197-0.022-0.296-0.067c-0.279-0.128-0.411-0.362-0.413-0.736l0-0.039
				l0.02-0.033c0.009-0.015,0.019-0.036,0.03-0.06c0.04-0.086,0.096-0.204,0.191-0.296c0.71-0.689,1.435-1.367,1.986-1.881
				c0.31-0.29,0.746-0.283,1.019,0.008c0.274,0.291,0.256,0.71-0.044,0.998c-0.618,0.593-1.242,1.18-1.867,1.767l-0.138,0.13
				C50.788,40.131,50.624,40.201,50.449,40.201z M50.022,39.43c0.009,0.298,0.125,0.392,0.248,0.448
				c0.171,0.078,0.326,0.047,0.475-0.092l0.137-0.13c0.624-0.586,1.248-1.172,1.866-1.764c0.189-0.181,0.203-0.423,0.033-0.603
				c-0.17-0.184-0.419-0.181-0.622,0.005c-0.551,0.513-1.274,1.19-1.983,1.877c-0.059,0.058-0.1,0.144-0.133,0.213
				C50.035,39.401,50.029,39.416,50.022,39.43z"/>
		</g>
		<g>
			<path fill-rule="evenodd" clip-rule="evenodd" fill="#2E3035" d="M52.654,42.325c-0.394,0-0.788,0.004-1.182-0.001
				c-0.367-0.004-0.601-0.22-0.604-0.549c-0.006-0.336,0.237-0.563,0.615-0.564c0.797-0.003,1.595-0.003,2.392,0
				c0.364,0.002,0.599,0.22,0.603,0.551c0.006,0.342-0.229,0.56-0.614,0.563C53.461,42.328,53.057,42.325,52.654,42.325z"/>
			<path fill="#2E3035" d="M51.926,42.467c-0.152,0-0.304,0-0.456-0.002c-0.439-0.004-0.738-0.281-0.743-0.688
				c-0.003-0.192,0.061-0.362,0.185-0.489c0.136-0.139,0.338-0.216,0.569-0.217c0.798-0.003,1.595-0.003,2.394,0
				c0.438,0.002,0.737,0.279,0.742,0.69c0.004,0.194-0.059,0.364-0.181,0.489c-0.135,0.139-0.333,0.213-0.572,0.215
				c-0.161,0.001-0.323,0.002-0.483,0.002l-0.727-0.001L51.926,42.467z M52.679,41.349c-0.399,0-0.797,0-1.196,0.002
				c-0.158,0.001-0.286,0.047-0.37,0.133c-0.071,0.073-0.107,0.172-0.105,0.289c0.003,0.254,0.177,0.408,0.466,0.411
				c0.151,0.002,0.301,0.002,0.452,0.002l0.728-0.001l0.727,0.001c0.161,0,0.321,0,0.481-0.002c0.162-0.001,0.291-0.046,0.373-0.129
				c0.07-0.072,0.104-0.169,0.102-0.29c-0.003-0.257-0.176-0.412-0.463-0.413C53.475,41.349,53.077,41.349,52.679,41.349z"/>
		</g>
		<g>
			<path fill-rule="evenodd" clip-rule="evenodd" fill="#2E3035" d="M43.022,42.325c-0.404,0-0.807,0.004-1.209-0.002
				c-0.352-0.005-0.599-0.247-0.592-0.566c0.006-0.31,0.248-0.543,0.586-0.545c0.814-0.004,1.629-0.004,2.444,0
				c0.356,0.002,0.593,0.238,0.587,0.566c-0.004,0.318-0.236,0.541-0.582,0.545C43.845,42.329,43.434,42.325,43.022,42.325z"/>
			<path fill="#2E3035" d="M43.728,42.467l-0.706-0.001l-0.692,0.001c-0.173,0-0.346-0.001-0.519-0.003
				c-0.215-0.003-0.408-0.082-0.543-0.221c-0.125-0.129-0.191-0.303-0.188-0.488c0.007-0.394,0.313-0.681,0.726-0.683
				c0.815-0.004,1.631-0.004,2.445,0c0.215,0.001,0.406,0.077,0.538,0.212c0.125,0.128,0.192,0.305,0.189,0.498
				c-0.005,0.397-0.301,0.679-0.72,0.683C44.082,42.466,43.905,42.467,43.728,42.467z M43.022,42.184l0.706,0.001
				c0.175,0,0.351,0,0.527-0.002c0.266-0.003,0.44-0.163,0.443-0.407c0.002-0.119-0.036-0.221-0.109-0.297
				c-0.081-0.082-0.198-0.126-0.339-0.127c-0.813-0.004-1.628-0.004-2.442,0c-0.258,0.001-0.442,0.169-0.446,0.408
				c-0.002,0.112,0.036,0.211,0.109,0.287c0.083,0.085,0.205,0.134,0.345,0.136c0.171,0.002,0.343,0.002,0.515,0.002L43.022,42.184z
				"/>
		</g>
		<g>
			<path fill-rule="evenodd" clip-rule="evenodd" fill="#2E3035" d="M47.297,37.471c0-0.377-0.006-0.753,0-1.131
				c0.007-0.361,0.234-0.6,0.56-0.598c0.319,0.003,0.555,0.249,0.557,0.604c0.005,0.746,0.005,1.492,0.001,2.236
				c-0.002,0.368-0.25,0.624-0.577,0.614c-0.318-0.011-0.539-0.259-0.542-0.621c-0.003-0.368-0.001-0.735-0.001-1.104H47.297z"/>
			<path fill="#2E3035" d="M47.855,39.337l-0.022,0c-0.396-0.013-0.674-0.326-0.678-0.761c-0.002-0.263-0.002-0.525-0.001-0.789
				l0.002-0.457l-0.001-0.235c-0.001-0.252-0.002-0.504,0.001-0.757c0.008-0.434,0.294-0.736,0.697-0.736
				c0.406,0.003,0.699,0.316,0.701,0.743c0.005,0.746,0.005,1.493,0.001,2.238C48.553,39.02,48.259,39.337,47.855,39.337z
				 M47.436,37.611v0.176c0,0.263-0.001,0.525,0.001,0.787c0.002,0.285,0.162,0.474,0.406,0.481l0.013,0.141v-0.141
				c0.245,0,0.417-0.195,0.419-0.475c0.004-0.743,0.004-1.489-0.001-2.234c-0.001-0.276-0.17-0.462-0.418-0.465
				c-0.25,0-0.413,0.181-0.418,0.459c-0.004,0.251-0.002,0.501-0.001,0.751l0.001,0.518H47.436z"/>
		</g>
	</g>
	<g>
		<g>
			<g>
				<path fill="#FF5A29" d="M62.581,43.706c-0.268,0-0.537-0.102-0.741-0.307L50.949,32.514c-0.409-0.409-0.41-1.072,0-1.481
					c0.409-0.41,1.073-0.41,1.482,0l10.891,10.885c0.41,0.409,0.41,1.073,0,1.481C63.118,43.604,62.85,43.706,62.581,43.706z"/>
			</g>
		</g>
		<g>
			<g>
				<path fill="#FF5A29" d="M62.581,38.341c-0.268,0-0.537-0.102-0.741-0.306l-6.293-6.287c-0.41-0.409-0.41-1.073,0-1.482
					c0.409-0.41,1.073-0.409,1.482,0l6.294,6.288c0.41,0.409,0.41,1.072,0,1.482C63.118,38.239,62.85,38.341,62.581,38.341z"/>
			</g>
		</g>
	</g>
</g>
</svg>
