<?xml version="1.0" encoding="utf-8"?>
<!-- Generator: Adobe Illustrator 16.0.3, SVG Export Plug-In . SVG Version: 6.00 Build 0)  -->
<!DOCTYPE svg PUBLIC "-//W3C//DTD SVG 1.1//EN" "http://www.w3.org/Graphics/SVG/1.1/DTD/svg11.dtd">
<svg version="1.1" id="Layer_1" xmlns="http://www.w3.org/2000/svg" xmlns:xlink="http://www.w3.org/1999/xlink" x="0px" y="0px"
	 width="100px" height="100px" viewBox="0 0 100 100" enable-background="new 0 0 100 100" xml:space="preserve">
<g>
	<g>
		<g>
			<path fill="#00C6F2" d="M49.999,100C22.43,100,0,77.57,0,50.002C0,22.431,22.43,0,49.999,0C77.568,0,100,22.431,100,50.002
				C100,77.57,77.568,100,49.999,100z M49.999,0.842c-27.104,0-49.156,22.053-49.156,49.16c0,27.104,22.051,49.155,49.156,49.155
				c27.107,0,49.159-22.051,49.159-49.155C99.157,22.896,77.105,0.842,49.999,0.842z"/>
		</g>
		<g>
			<circle fill="#FF5A29" cx="49.999" cy="50.002" r="45.856"/>
		</g>
	</g>
	<g>
		<polygon fill="#F1F2F2" points="57.811,65.233 57.811,74.56 63.982,81.494 36.017,81.494 41.882,74.864 41.882,65.718 		"/>
		<path fill="#25282D" d="M64.001,83.416c-0.004,0-0.012,0-0.02,0H36.017c-0.756,0-1.441-0.443-1.752-1.132
			c-0.311-0.689-0.188-1.496,0.313-2.062l5.383-6.086v-8.419c0-1.038,0.825-1.888,1.863-1.92l15.929-0.484
			c0.518-0.026,1.024,0.179,1.396,0.542c0.373,0.362,0.584,0.858,0.584,1.378v8.595l5.535,6.222
			c0.401,0.352,0.655,0.869,0.655,1.444C65.923,82.557,65.063,83.416,64.001,83.416z M40.281,79.573H59.7l-3.325-3.737
			c-0.313-0.352-0.486-0.806-0.486-1.276v-7.346l-12.085,0.367v7.283c0,0.469-0.171,0.923-0.482,1.273L40.281,79.573z"/>
	</g>
	<g>
		<g>
			<path fill="#F1F2F2" d="M20.855,68.127c-2.153,0-3.906-1.752-3.906-3.904V28.618c0-2.153,1.752-3.904,3.906-3.904h58.288
				c2.154,0,3.906,1.751,3.906,3.904v35.604c0,2.152-1.752,3.904-3.906,3.904H20.855z"/>
		</g>
		<g>
			<path fill="#25282D" d="M79.144,26.635c1.091,0,1.984,0.892,1.984,1.983v35.604c0,1.091-0.894,1.983-1.984,1.983H20.855
				c-1.091,0-1.984-0.893-1.984-1.983V28.618c0-1.091,0.893-1.983,1.984-1.983H79.144 M79.144,22.792H20.855
				c-3.213,0-5.828,2.614-5.828,5.826v35.604c0,3.212,2.614,5.825,5.828,5.825h58.288c3.214,0,5.828-2.613,5.828-5.825V28.618
				C84.972,25.406,82.357,22.792,79.144,22.792L79.144,22.792z"/>
		</g>
	</g>
	<g>
		<rect x="22.269" y="32.918" fill="#FFAA2C" width="55.46" height="25.779"/>
		<path fill="#25282D" d="M77.729,59.658h-55.46c-0.531,0-0.961-0.43-0.961-0.96V32.918c0-0.531,0.43-0.961,0.961-0.961h55.46
			c0.53,0,0.961,0.43,0.961,0.961v25.779C78.69,59.228,78.26,59.658,77.729,59.658z M23.23,57.737h53.539V33.879H23.23V57.737z"/>
	</g>
	<g>
		<path fill="#FF5A29" d="M52.005,62.822c0,1.106-0.897,2-2.005,2c-1.105,0-2.005-0.894-2.005-2c0-1.108,0.9-2.007,2.005-2.007
			C51.107,60.815,52.005,61.714,52.005,62.822z"/>
		<path fill="#2E3035" d="M50,65.783c-1.636,0-2.966-1.329-2.966-2.961c0-1.636,1.331-2.967,2.966-2.967
			c1.635,0,2.966,1.332,2.966,2.967C52.966,64.454,51.635,65.783,50,65.783z M50,61.776c-0.576,0-1.044,0.468-1.044,1.046
			c0,0.573,0.469,1.04,1.044,1.04c0.575,0,1.044-0.467,1.044-1.04C51.044,62.244,50.575,61.776,50,61.776z"/>
	</g>
	<g>
		<g>
			<circle fill="#FF5A29" cx="49.999" cy="29.467" r="1.088"/>
		</g>
	</g>
	<g>
		<path fill="#2E3035" d="M57.503,75.913H42.497c-0.579,0-1.048-0.469-1.048-1.049c0-0.579,0.469-1.048,1.048-1.048h15.006
			c0.58,0,1.048,0.469,1.048,1.048C58.551,75.444,58.083,75.913,57.503,75.913z"/>
	</g>
	<g>
		<g>
			<g>
				<path fill="#FF5A29" d="M75.12,48.303c-0.268,0-0.537-0.102-0.74-0.307L63.488,37.111c-0.41-0.409-0.41-1.072,0-1.481
					c0.409-0.41,1.073-0.41,1.482,0l10.892,10.885c0.409,0.409,0.409,1.072,0,1.481C75.656,48.201,75.389,48.303,75.12,48.303z"/>
			</g>
		</g>
		<g>
			<g>
				<path fill="#FF5A29" d="M75.12,42.94c-0.268,0-0.537-0.102-0.74-0.307l-6.295-6.288c-0.409-0.409-0.409-1.072,0-1.482
					s1.073-0.409,1.482,0l6.294,6.288c0.409,0.409,0.409,1.072,0,1.482C75.656,42.838,75.389,42.94,75.12,42.94z"/>
			</g>
		</g>
	</g>
	<g>
		<g>
			<path fill="#2E3035" d="M48.615,45.301c0,0.849-0.192,1.529-0.577,2.037c-0.385,0.509-0.946,0.764-1.683,0.764
				c-0.369,0-0.693-0.067-0.974-0.199c-0.281-0.132-0.517-0.32-0.71-0.565c-0.192-0.244-0.336-0.538-0.432-0.882
				c-0.097-0.345-0.145-0.73-0.145-1.155c0-0.417,0.048-0.797,0.145-1.142c0.096-0.344,0.24-0.639,0.432-0.883
				c0.193-0.245,0.429-0.432,0.71-0.565c0.28-0.133,0.605-0.199,0.974-0.199c0.368,0,0.693,0.066,0.974,0.199
				c0.281,0.133,0.517,0.32,0.709,0.565c0.192,0.244,0.336,0.539,0.433,0.883C48.567,44.503,48.615,44.884,48.615,45.301z
				 M47.184,45.301c0-0.577-0.081-0.979-0.24-1.208c-0.161-0.229-0.357-0.342-0.589-0.342c-0.233,0-0.429,0.114-0.589,0.342
				c-0.16,0.229-0.24,0.631-0.24,1.208c0,0.585,0.076,0.992,0.228,1.221c0.153,0.228,0.353,0.342,0.602,0.342
				c0.232,0,0.429-0.114,0.589-0.342C47.104,46.293,47.184,45.886,47.184,45.301z M48.59,50.733
				c-0.056,0.105-0.128,0.187-0.216,0.247s-0.204,0.09-0.348,0.09c-0.089,0-0.181-0.015-0.277-0.042
				c-0.096-0.029-0.185-0.069-0.265-0.121c-0.08-0.052-0.146-0.115-0.198-0.192c-0.052-0.077-0.078-0.163-0.078-0.258
				c0-0.088,0.024-0.18,0.072-0.276l3.847-7.38c0.056-0.104,0.128-0.19,0.216-0.258c0.088-0.068,0.205-0.102,0.349-0.102
				c0.087,0,0.18,0.014,0.276,0.042c0.096,0.028,0.185,0.068,0.265,0.121c0.081,0.052,0.146,0.114,0.199,0.186
				c0.051,0.072,0.078,0.152,0.078,0.24c0,0.064-0.01,0.125-0.03,0.186c-0.021,0.061-0.042,0.111-0.067,0.15L48.59,50.733z
				 M55.6,48.269c0,0.85-0.192,1.529-0.576,2.038c-0.386,0.508-0.947,0.763-1.684,0.763c-0.368,0-0.694-0.066-0.975-0.199
				c-0.28-0.132-0.517-0.319-0.709-0.564c-0.192-0.244-0.336-0.539-0.433-0.884c-0.096-0.344-0.145-0.729-0.145-1.154
				c0-0.416,0.048-0.796,0.145-1.142c0.096-0.344,0.241-0.639,0.433-0.883c0.192-0.245,0.429-0.432,0.709-0.565
				c0.281-0.132,0.606-0.198,0.975-0.198c0.368,0,0.693,0.066,0.973,0.198c0.28,0.133,0.518,0.32,0.71,0.565
				c0.191,0.244,0.336,0.539,0.432,0.883C55.552,47.473,55.6,47.853,55.6,48.269z M54.169,48.269c0-0.577-0.08-0.979-0.24-1.208
				c-0.161-0.228-0.356-0.342-0.589-0.342c-0.233,0-0.429,0.114-0.589,0.342c-0.161,0.229-0.24,0.631-0.24,1.208
				c0,0.585,0.076,0.992,0.229,1.22c0.151,0.229,0.353,0.343,0.601,0.343c0.232,0,0.428-0.114,0.589-0.343
				C54.089,49.261,54.169,48.854,54.169,48.269z"/>
		</g>
	</g>
	<g>
		<g>
			<g>
				<path fill="#2E3035" d="M71.952,48.264H59.38c-0.531,0-0.961-0.43-0.961-0.961c0-0.53,0.43-0.96,0.961-0.96h12.572
					c0.53,0,0.961,0.43,0.961,0.96C72.913,47.834,72.482,48.264,71.952,48.264z"/>
			</g>
			<g>
				<g>
					<path fill="#2E3035" d="M68.668,49.608c-0.071-0.111-0.037-0.26,0.073-0.331l3.101-1.974l-3.101-1.973
						c-0.11-0.071-0.145-0.22-0.073-0.332c0.071-0.112,0.221-0.144,0.333-0.074l3.418,2.176c0.067,0.044,0.11,0.12,0.11,0.202
						c0,0.083-0.043,0.159-0.11,0.203l-3.418,2.176c-0.04,0.026-0.085,0.038-0.13,0.038C68.792,49.719,68.715,49.68,68.668,49.608z"
						/>
				</g>
			</g>
		</g>
		<g>
			<g>
				<path fill="#2E3035" d="M40.348,48.264H27.777c-0.531,0-0.961-0.43-0.961-0.961c0-0.53,0.43-0.96,0.961-0.96h12.571
					c0.531,0,0.961,0.43,0.961,0.96C41.309,47.834,40.878,48.264,40.348,48.264z"/>
			</g>
			<g>
				<g>
					<path fill="#2E3035" d="M31.06,44.998c0.072,0.111,0.039,0.26-0.074,0.332l-3.1,1.973l3.1,1.974
						c0.112,0.071,0.146,0.22,0.074,0.331c-0.071,0.112-0.221,0.144-0.332,0.074l-3.417-2.176c-0.069-0.044-0.112-0.12-0.112-0.203
						c0-0.082,0.042-0.158,0.112-0.202l3.417-2.176c0.041-0.026,0.085-0.038,0.129-0.038C30.937,44.887,31.014,44.926,31.06,44.998z
						"/>
				</g>
			</g>
		</g>
	</g>
</g>
</svg>
