<?xml version="1.0" encoding="utf-8"?>
<!-- Generator: Adobe Illustrator 16.0.3, SVG Export Plug-In . SVG Version: 6.00 Build 0)  -->
<!DOCTYPE svg PUBLIC "-//W3C//DTD SVG 1.1//EN" "http://www.w3.org/Graphics/SVG/1.1/DTD/svg11.dtd">
<svg version="1.1" id="Layer_1" xmlns="http://www.w3.org/2000/svg" xmlns:xlink="http://www.w3.org/1999/xlink" x="0px" y="0px"
	 width="128px" height="128px" viewBox="0 0 128 128" enable-background="new 0 0 128 128" xml:space="preserve">
<g>
	<path fill="#FFFFFF" d="M127.389,0.632C127.174,0.41,126.72,0.047,126.034,0c-12.267,0.309-24.828,0.218-36.047,5.127
		C76.851,10.882,65.709,20.3,55.109,30.53l6.877,0.054c0.84,0.014,1.583,0.571,1.821,1.381l2.241,7.714l17.252-2.466
		c0.652-0.094,1.308,0.162,1.73,0.666c0.42,0.5,0.555,1.186,0.35,1.817l-7.166,21.855l14.266-3.296
		c0.554-0.124,1.125-0.003,1.579,0.339c0.453,0.339,0.722,0.86,0.752,1.424l0.692,13.154c10.691-10.667,20.629-21.862,26.758-35.224
		c5.11-11.127,5.214-23.693,5.738-35.953C127.963,1.313,127.604,0.85,127.389,0.632z"/>
	<path fill="#FFFFFF" d="M90.095,94.688l1.028-32.207l-15.348,3.544c-0.672,0.158-1.36-0.067-1.834-0.571
		c-0.461-0.504-0.622-1.223-0.407-1.878l7.264-22.154l-15.854,2.268c-0.931,0.131-1.831-0.444-2.103-1.357l-2.305-7.943
		L32.713,36.33c-3.696,0.258-8.876,2.594-11.521,5.191L1.524,60.856c-2.634,2.597-1.767,4.785,1.932,4.858l19.739,0.396
		c-0.148,7.046,4.377,16.558,12.424,24.752c8.053,8.191,17.495,12.864,24.54,12.838l0.067,19.742
		c0.007,3.705,2.174,4.609,4.818,2.016l19.668-19.339C87.356,103.521,89.775,98.381,90.095,94.688z"/>
	<path fill="#FFFFFF" d="M33.277,111.801c-10.929,10.747-29.106,9.985-29.106,9.985s-0.457-18.19,10.476-28.938
		s12.451-3.894,17.592,1.337C37.386,99.416,44.21,101.053,33.277,111.801z"/>
</g>
</svg>
