<?xml version="1.0" encoding="utf-8"?>
<!-- Generator: Adobe Illustrator 16.0.3, SVG Export Plug-In . SVG Version: 6.00 Build 0)  -->
<!DOCTYPE svg PUBLIC "-//W3C//DTD SVG 1.1//EN" "http://www.w3.org/Graphics/SVG/1.1/DTD/svg11.dtd">
<svg version="1.1" id="Layer_1" xmlns="http://www.w3.org/2000/svg" xmlns:xlink="http://www.w3.org/1999/xlink" x="0px" y="0px"
	 width="34px" height="34px" viewBox="0 0 34 34" enable-background="new 0 0 34 34" xml:space="preserve">
<g>
	<circle fill="#E02F2F" cx="17" cy="17" r="16"/>
	<g>
		<path fill="#FFFFFF" d="M20,6.998c0,0-4.593,0-6.164,0c-2.82,0-5.476,1.979-5.476,4.453c0,2.528,1.922,4.494,4.791,4.494
			c0.2,0,0.395-0.045,0.584-0.059c-0.188,0.354-0.317,0.736-0.317,1.153c0,0.703,0.377,1.265,0.854,1.729
			c-0.357,0-0.709,0.005-1.09,0.005C9.688,18.775,7,20.998,7,23.305C7,25.577,9.947,27,13.44,27c3.983,0,6.184-2.262,6.184-4.534
			c0-1.821-0.538-2.913-2.199-4.091c-0.569-0.4-1.656-1.38-1.656-1.956c0-0.674,0.192-1.006,1.208-1.8
			c1.039-0.813,1.776-1.781,1.776-3.111c0-1.58-0.681-3.51-2.003-3.51H19L20,6.998z M17.931,22.072
			c0.048,0.212,0.077,0.429,0.077,0.648c0,1.836-1.186,3.271-4.58,3.271c-2.415,0-4.158-1.528-4.158-3.364
			c0-1.799,2.163-3.298,4.579-3.271c0.563,0.006,1.088,0.097,1.564,0.249C16.724,20.52,17.664,21.034,17.931,22.072z M14.063,15.223
			c-1.621-0.047-3.162-1.813-3.44-3.939c-0.279-2.13,0.808-3.759,2.428-3.711c1.62,0.05,3.162,1.758,3.44,3.886
			C16.771,13.586,15.684,15.271,14.063,15.223z"/>
		<polygon fill="#FFFFFF" points="25,14.991 25,11.991 23,11.991 23,14.991 20,14.991 20,16.991 23,16.991 23,19.991 25,19.991 
			25,16.991 28,16.991 28,14.991 		"/>
	</g>
</g>
</svg>
