<?xml version="1.0" encoding="utf-8"?>
<!-- Generator: Adobe Illustrator 16.0.3, SVG Export Plug-In . SVG Version: 6.00 Build 0)  -->
<!DOCTYPE svg PUBLIC "-//W3C//DTD SVG 1.1//EN" "http://www.w3.org/Graphics/SVG/1.1/DTD/svg11.dtd">
<svg version="1.1" id="Layer_1" xmlns="http://www.w3.org/2000/svg" xmlns:xlink="http://www.w3.org/1999/xlink" x="0px" y="0px"
	 width="100px" height="100px" viewBox="0 0 100 100" enable-background="new 0 0 100 100" xml:space="preserve">
<g>
	<g>
		<g>
			<path fill="#00C6F2" d="M49.999,100C22.43,100,0,77.569,0,50.002C0,22.431,22.43,0,49.999,0C77.57,0,100,22.431,100,50.002
				C100,77.569,77.57,100,49.999,100z M49.999,0.842c-27.105,0-49.156,22.053-49.156,49.16c0,27.104,22.051,49.155,49.156,49.155
				c27.106,0,49.158-22.051,49.158-49.155C99.157,22.896,77.105,0.842,49.999,0.842z"/>
		</g>
		<g>
			<ellipse fill="#FF5A29" cx="50" cy="50.002" rx="45.857" ry="45.852"/>
		</g>
	</g>
	<g>
		<g>
			<g>
				<rect x="17.944" y="27.951" fill="#F1F2F2" width="63.538" height="42.621"/>
			</g>
			<g>
				<path fill="#25282D" d="M79.498,27.951c1.091,0,1.983,0.892,1.983,1.983V68.59c0,1.091-0.893,1.982-1.983,1.982h-59.57
					c-1.091,0-1.984-0.892-1.984-1.982V29.934c0-1.091,0.893-1.983,1.984-1.983H79.498 M79.498,24.109h-59.57
					c-3.213,0-5.828,2.613-5.828,5.825V68.59c0,3.212,2.614,5.826,5.828,5.826h59.57c3.213,0,5.828-2.614,5.828-5.826V29.934
					C85.326,26.722,82.711,24.109,79.498,24.109L79.498,24.109z"/>
			</g>
		</g>
		<g>
			<path fill="#2E3035" d="M81.017,37.614H18.502c-0.579,0-1.048-0.469-1.048-1.048c0-0.578,0.469-1.047,1.048-1.047h62.515
				c0.579,0,1.049,0.469,1.049,1.047C82.065,37.145,81.596,37.614,81.017,37.614z"/>
		</g>
		<g>
			<g>
				<path fill="#FFAA2C" d="M58.25,63.667c-0.531,0-0.961-0.43-0.961-0.961V44.154c0-0.531,0.43-0.961,0.961-0.961h17.58
					c0.531,0,0.961,0.43,0.961,0.961v18.552c0,0.531-0.43,0.961-0.961,0.961H58.25z"/>
			</g>
			<g>
				<path fill="#25282D" d="M75.83,44.154v18.552H58.25V44.154H75.83 M75.83,42.233H58.25c-1.062,0-1.922,0.86-1.922,1.921v18.552
					c0,1.062,0.86,1.921,1.922,1.921h17.58c1.062,0,1.922-0.86,1.922-1.921V44.154C77.752,43.093,76.892,42.233,75.83,42.233
					L75.83,42.233z"/>
			</g>
		</g>
		<g>
			<g>
				<circle fill="#FFAA2C" cx="23.403" cy="32.351" r="1.072"/>
			</g>
		</g>
		<g>
			<g>
				<circle fill="#FF5A29" cx="27.934" cy="32.351" r="1.071"/>
			</g>
		</g>
		<g>
			<g>
				<circle fill="#2E3035" cx="32.465" cy="32.351" r="1.071"/>
			</g>
		</g>
		<g>
			<g>
				<path fill="#2E3035" d="M52.278,52.48l-29.157-0.002c-0.434,0-0.789,0.369-0.789,0.833c0,0.459,0.354,0.837,0.789,0.838
					l29.157-0.001c0.433,0,0.788-0.376,0.788-0.837C53.066,52.849,52.714,52.48,52.278,52.48z"/>
			</g>
			<g>
				<path fill="#2E3035" d="M52.278,57.491L23.123,57.49c-0.435,0.001-0.788,0.367-0.79,0.831c0.002,0.459,0.354,0.835,0.79,0.835
					h29.156c0.434,0,0.789-0.374,0.789-0.835C53.067,57.857,52.712,57.491,52.278,57.491z"/>
			</g>
			<g>
				<path fill="#2E3035" d="M52.278,62.5l-29.157-0.002c-0.434,0-0.789,0.368-0.789,0.833c0,0.46,0.353,0.837,0.79,0.835
					l29.155,0.002c0.435,0.001,0.789-0.374,0.789-0.835C53.067,62.868,52.712,62.5,52.278,62.5z"/>
			</g>
			<g>
				<path fill="#2E3035" d="M52.278,47.471l-29.154-0.002c-0.437,0-0.79,0.37-0.792,0.833c0,0.462,0.354,0.835,0.792,0.835
					l29.154,0.002c0.438,0,0.789-0.376,0.791-0.836C53.069,47.842,52.714,47.471,52.278,47.471z"/>
			</g>
			<g>
				<path fill="#FFAA2C" d="M31.623,59.156h7.888c0.434,0,0.785-0.374,0.785-0.833c0-0.459-0.353-0.833-0.785-0.833l-7.888,0.001
					c-0.436-0.001-0.789,0.367-0.789,0.832C30.834,58.783,31.188,59.156,31.623,59.156z"/>
			</g>
			<g>
				<path fill="#FF5A29" d="M44.54,59.156h7.888c0.432,0,0.787-0.374,0.787-0.833c0-0.459-0.354-0.833-0.787-0.833l-7.888,0.001
					c-0.433-0.001-0.788,0.367-0.788,0.832C43.751,58.783,44.105,59.156,44.54,59.156z"/>
			</g>
			<g>
				<path fill="#FF5A29" d="M23.125,64.166h7.883c0.434,0,0.79-0.372,0.79-0.833c0-0.458-0.356-0.833-0.79-0.833l-7.883,0
					c-0.437,0-0.792,0.37-0.792,0.832S22.688,64.166,23.125,64.166z"/>
			</g>
			<g>
				<path fill="#FFAA2C" d="M26.214,54.148h7.885c0.434,0,0.787-0.376,0.787-0.836c0-0.459-0.354-0.834-0.788-0.834l-7.884,0.002
					c-0.434-0.002-0.791,0.369-0.791,0.832S25.78,54.148,26.214,54.148z"/>
			</g>
			<g>
				<path fill="#2E3035" d="M23.123,44.238h15.004c0.434,0,0.788-0.375,0.788-0.834c0-0.459-0.355-0.835-0.789-0.835l-15.003,0.002
					c-0.433-0.002-0.788,0.369-0.788,0.832C22.335,43.864,22.689,44.238,23.123,44.238z"/>
			</g>
		</g>
	</g>
</g>
</svg>
