<?xml version="1.0" encoding="utf-8"?>
<!-- Generator: Adobe Illustrator 16.0.3, SVG Export Plug-In . SVG Version: 6.00 Build 0)  -->
<!DOCTYPE svg PUBLIC "-//W3C//DTD SVG 1.1//EN" "http://www.w3.org/Graphics/SVG/1.1/DTD/svg11.dtd">
<svg version="1.1" id="Layer_1" xmlns="http://www.w3.org/2000/svg" xmlns:xlink="http://www.w3.org/1999/xlink" x="0px" y="0px"
	 width="34px" height="34px" viewBox="0 0 34 34" enable-background="new 0 0 34 34" xml:space="preserve">
<g>
	<circle fill="#55ACEE" cx="17" cy="17" r="16"/>
	<path fill="#FFFFFF" d="M27.013,10.896c-0.737,0.322-1.527,0.537-2.358,0.636c0.85-0.498,1.5-1.289,1.807-2.232
		c-0.793,0.462-1.672,0.798-2.608,0.979c-0.748-0.784-1.815-1.275-2.996-1.275c-2.269,0-4.104,1.807-4.104,4.039
		c0,0.315,0.036,0.625,0.104,0.923c-3.412-0.172-6.436-1.78-8.461-4.222c-0.354,0.597-0.559,1.29-0.559,2.031
		c0,1.399,0.728,2.636,1.828,3.363c-0.672-0.023-1.307-0.205-1.858-0.508c-0.001,0.018-0.001,0.033-0.001,0.051
		c0,1.958,1.415,3.592,3.293,3.963c-0.343,0.091-0.706,0.142-1.082,0.142c-0.264,0-0.52-0.024-0.771-0.071
		c0.521,1.604,2.038,2.771,3.834,2.807c-1.402,1.082-3.174,1.729-5.1,1.729c-0.33,0-0.658-0.019-0.979-0.058
		c1.815,1.146,3.976,1.813,6.295,1.813c7.552,0,11.682-6.155,11.682-11.495c0-0.173-0.006-0.351-0.014-0.521
		C25.766,12.417,26.462,11.706,27.013,10.896z"/>
</g>
</svg>
