<?xml version="1.0" encoding="utf-8"?>
<!-- Generator: Adobe Illustrator 16.0.3, SVG Export Plug-In . SVG Version: 6.00 Build 0)  -->
<!DOCTYPE svg PUBLIC "-//W3C//DTD SVG 1.1//EN" "http://www.w3.org/Graphics/SVG/1.1/DTD/svg11.dtd">
<svg version="1.1" id="Layer_1" xmlns="http://www.w3.org/2000/svg" xmlns:xlink="http://www.w3.org/1999/xlink" x="0px" y="0px"
	 width="34px" height="34px" viewBox="0 0 34 34" enable-background="new 0 0 34 34" xml:space="preserve">
<g>
	<path fill="#00AAF1" d="M32.097,20.397c0.232-1.041,0.356-2.121,0.356-3.229c0-8.312-6.837-15.049-15.272-15.049
		c-0.893,0-1.764,0.075-2.613,0.22C13.204,1.491,11.588,1,9.856,1C4.964,1,1,4.907,1,9.727c0,1.611,0.446,3.12,1.217,4.415
		c-0.202,0.978-0.308,1.99-0.308,3.027c0,8.311,6.836,15.047,15.272,15.047c0.954,0,1.889-0.086,2.793-0.252
		C21.223,32.623,22.649,33,24.164,33c4.891,0,8.855-3.907,8.855-8.728C33.02,22.879,32.688,21.564,32.097,20.397z"/>
	<path fill="#FFFFFF" d="M12.952,7.7L12.952,7.7c-1.146,0.469-2.039,1.154-2.649,2.035c-0.616,0.887-0.928,1.916-0.928,3.057
		c0,1.197,0.297,2.217,0.883,3.027c0.578,0.8,1.367,1.438,2.345,1.899c0.957,0.449,2.159,0.848,3.579,1.184
		c1.042,0.242,1.884,0.473,2.503,0.688c0.597,0.205,1.087,0.504,1.458,0.889c0.354,0.367,0.526,0.836,0.526,1.434
		c0,0.754-0.33,1.37-1.011,1.883c-0.695,0.525-1.619,0.793-2.75,0.793c-0.819,0-1.486-0.133-1.982-0.391
		c-0.493-0.258-0.877-0.588-1.145-0.979c-0.277-0.409-0.542-0.926-0.784-1.54c-0.217-0.563-0.485-0.998-0.801-1.292
		c-0.328-0.308-0.734-0.464-1.204-0.464c-0.569,0-1.049,0.195-1.424,0.587c-0.376,0.392-0.568,0.872-0.568,1.426
		c0,0.885,0.294,1.804,0.874,2.728c0.573,0.918,1.331,1.66,2.247,2.207c1.284,0.754,2.928,1.136,4.888,1.136
		c1.632,0,3.067-0.279,4.268-0.829c1.209-0.557,2.142-1.34,2.771-2.33c0.635-0.992,0.955-2.126,0.955-3.371
		c0-1.04-0.186-1.934-0.555-2.66c-0.367-0.722-0.887-1.327-1.538-1.798c-0.642-0.462-1.428-0.859-2.338-1.18
		c-0.896-0.319-1.91-0.612-3.018-0.875c-0.873-0.225-1.51-0.396-1.889-0.512c-0.369-0.113-0.74-0.272-1.098-0.471
		c-0.347-0.191-0.621-0.424-0.814-0.685c-0.184-0.248-0.272-0.535-0.272-0.88c0-0.563,0.276-1.033,0.847-1.448
		c0.591-0.43,1.388-0.646,2.366-0.646c1.054,0,1.819,0.195,2.278,0.581c0.475,0.397,0.886,0.962,1.226,1.677
		c0.294,0.562,0.561,0.95,0.815,1.2c0.275,0.27,0.669,0.405,1.178,0.405c0.555,0,1.024-0.218,1.397-0.646s0.563-0.918,0.563-1.459
		c0-0.561-0.145-1.141-0.428-1.723c-0.279-0.574-0.728-1.132-1.328-1.65c-0.597-0.515-1.354-0.935-2.254-1.243
		c-0.896-0.309-1.968-0.464-3.186-0.464C15.431,7.001,14.084,7.236,12.952,7.7z"/>
</g>
</svg>
