<?xml version="1.0" encoding="utf-8"?>
<!-- Generator: Adobe Illustrator 16.0.3, SVG Export Plug-In . SVG Version: 6.00 Build 0)  -->
<!DOCTYPE svg PUBLIC "-//W3C//DTD SVG 1.1//EN" "http://www.w3.org/Graphics/SVG/1.1/DTD/svg11.dtd">
<svg version="1.1" id="Layer_1" xmlns="http://www.w3.org/2000/svg" xmlns:xlink="http://www.w3.org/1999/xlink" x="0px" y="0px"
	 width="68px" height="68px" viewBox="0 0 68 68" enable-background="new 0 0 68 68" xml:space="preserve">
<image display="none" overflow="visible" enable-background="new    " width="245" height="206" xlink:href="images.jpg"  transform="matrix(2.2507 0 0 2.2507 -203.998 -293.6445)">
</image>
<g>
	<path d="M65,19c0-3.75-10.75-19-31-19S3,15.25,3,19c-2.5,0-3,0-3,0l1,17l2,1c0,0,7,17.666,31,17.666S65,37,65,37l2-1l1-17
		C68,19,67.5,19,65,19z M53,38.5c0,0-0.977,9.15-19,9.5c-18.023-0.35-19-9.5-19-9.5L12,21c0,0,3.977-9.651,22-10
		c18.023,0.349,22,10,22,10L53,38.5z"/>
	<path d="M34,59c-21,0-24-8-24-8c0,0.75,0,5,0,7c0,8,10,10,24,10s24-2,24-10c0-2,0-6.25,0-7C58,51,55,59,34,59z"/>
</g>
<path d="M25,16c0,0-7.797,2.725-9,5c-1.291,2.441,1,11,1,11s1-7,2-9S25,16,25,16z"/>
</svg>
