<?xml version="1.0" encoding="utf-8"?>
<!-- Generator: Adobe Illustrator 16.0.3, SVG Export Plug-In . SVG Version: 6.00 Build 0)  -->
<!DOCTYPE svg PUBLIC "-//W3C//DTD SVG 1.1//EN" "http://www.w3.org/Graphics/SVG/1.1/DTD/svg11.dtd">
<svg version="1.1" id="Layer_1" xmlns="http://www.w3.org/2000/svg" xmlns:xlink="http://www.w3.org/1999/xlink" x="0px" y="0px"
	 width="128px" height="51px" viewBox="0 0 128 51" enable-background="new 0 0 128 51" xml:space="preserve">
<g>
	<g>
		<path d="M31.878,29.97c-0.525,0.343-1.062,0.671-1.605,0.987c-0.469,0.273-0.373,0.229-0.855,0.482
			c2.882,1.438,7.652,3.005,12.226,3.064c1.314-2.292,2.533-4.678,3.348-7.24C40.921,29.023,36.54,29.749,31.878,29.97z"/>
		<path d="M46.642,11.726c-2.768,7.242-7.695,13.417-13.996,17.732c4.542-0.481,10.044-2.377,12.91-4.26
			c0.108-0.384,0.06-0.221,0.156-0.609c0.727-2.928,1.112-5.989,1.112-9.142C46.824,14.192,46.761,12.95,46.642,11.726z"/>
		<path d="M41.136,35.113c-4.879,0-9.542-0.924-13.825-2.606c-2.567-1.008-4.996-2.289-7.254-3.806
			c-0.019-0.014-0.039-0.026-0.059-0.04C10.893,22.518,4.607,12.516,3.483,1C1.88,5.194,1,9.744,1,14.501
			c0,0.663,0.018,1.322,0.051,1.977c0.024,0.464,0.059,0.924,0.1,1.383c0.163,1.851,0.459,3.663,0.879,5.429
			c0.081,0.338-0.009,0.003,0.081,0.338c2.661,2.796,6.742,5.351,10.536,6.854c-3.556-1.07-6.889-2.65-9.918-4.654
			c1.132,3.616,2.793,6.997,4.891,10.055c0.31,0.452,0.132,0.217,0.461,0.653c1.436,0.981,5.522,2.468,8.171,2.956
			c-2.375-0.231-4.701-0.688-6.953-1.35c3.952,4.931,9.111,8.851,15.031,11.311c0.226,0.095,0.453,0.188,0.682,0.278
			c1.109-0.52,2.189-1.091,3.236-1.711c5.343-3.167,9.841-7.609,13.072-12.908C41.259,35.111,41.198,35.113,41.136,35.113z"/>
	</g>
	<g>
		<path d="M55.479,36.042c-1.704-4.065-3.129-8.219-4.276-12.459h2.781c0.748,3.128,1.738,6.273,2.849,9.367
			c1.113-3.112,2.051-6.222,2.832-9.367h2.695c-1.165,4.24-2.625,8.394-4.31,12.459H55.479z"/>
		<path d="M69.31,36.269c-2.364,0-4.675-0.921-4.675-4.814c0-3.301,1.668-4.813,4.692-4.813c3.022,0,4.708,1.512,4.708,4.813
			C74.035,34.809,72.299,36.269,69.31,36.269z M69.327,28.623c-1.616,0-2.207,0.73-2.207,2.833c0,2.121,0.591,2.833,2.225,2.833
			c1.6,0,2.207-0.696,2.207-2.851C71.552,29.388,70.994,28.623,69.327,28.623z"/>
		<path d="M78.013,36.042v-9.158h2.277v1.147c0.556-0.956,1.163-1.339,2.362-1.339c0.436,0,0.625,0.053,0.625,0.053v2.311
			c0,0-0.275-0.052-0.763-0.052c-1.912,0-2.087,1.563-2.087,3.649v3.389H78.013z"/>
		<path d="M91.267,36.269c-2.362,0-4.676-0.921-4.676-4.814c0-3.301,1.67-4.813,4.693-4.813c3.024,0,4.71,1.512,4.71,4.813
			C95.994,34.809,94.256,36.269,91.267,36.269z M91.284,28.623c-1.616,0-2.207,0.73-2.207,2.833c0,2.121,0.591,2.833,2.224,2.833
			c1.6,0,2.208-0.696,2.208-2.851C93.509,29.388,92.953,28.623,91.284,28.623z"/>
		<path d="M104.911,30.778c0-1.408-0.019-2.138-1.565-2.138c-1.721,0-1.911,0.903-1.911,3.058v4.344h-2.417v-9.158h2.295v1.182
			c0.659-0.887,1.373-1.408,3.059-1.408c2.346,0,2.954,1.008,2.954,3.789v5.595h-2.414V30.778z"/>
		<path d="M124.585,30.778c0-1.408-0.018-2.138-1.565-2.138c-1.72,0-1.91,0.903-1.91,3.058v4.344h-2.415v-9.158h2.293v1.182
			c0.661-0.887,1.373-1.408,3.059-1.408c2.346,0,2.954,1.008,2.954,3.789v5.595h-2.415V30.778z"/>
		<path d="M111.717,27.721v8.321h2.417v-9.35C113.343,27.063,112.537,27.405,111.717,27.721z"/>
		<path d="M111.717,23.59c0,0.809,0,1.89,0,2.112c0.82-0.315,1.626-0.658,2.417-1.028c0-0.314,0-1.972,0-2.801
			C113.354,22.475,112.547,23.047,111.717,23.59z"/>
	</g>
	<g>
		<path d="M54.777,45.425l0.971-0.528c0.072,0.255,0.205,0.449,0.4,0.583c0.193,0.133,0.443,0.2,0.749,0.2
			c0.263,0,0.469-0.06,0.618-0.181c0.149-0.121,0.224-0.286,0.224-0.494c0-0.278-0.266-0.515-0.798-0.713
			c-0.18-0.064-0.318-0.119-0.416-0.162c-0.547-0.226-0.929-0.457-1.146-0.691c-0.217-0.233-0.327-0.517-0.327-0.852
			c0-0.457,0.18-0.828,0.538-1.111c0.357-0.283,0.831-0.426,1.421-0.426c0.395,0,0.734,0.073,1.017,0.218
			c0.282,0.146,0.488,0.354,0.618,0.624l-0.831,0.572c-0.061-0.162-0.168-0.29-0.321-0.386c-0.153-0.094-0.33-0.142-0.532-0.142
			c-0.223,0-0.401,0.052-0.537,0.159c-0.135,0.105-0.203,0.247-0.203,0.423c0,0.267,0.303,0.51,0.907,0.729
			c0.191,0.068,0.338,0.124,0.442,0.168c0.471,0.187,0.808,0.397,1.012,0.633c0.204,0.235,0.305,0.53,0.305,0.882
			c0,0.511-0.186,0.911-0.556,1.2c-0.371,0.29-0.882,0.434-1.532,0.434c-0.5,0-0.915-0.093-1.246-0.28
			C55.224,46.096,54.964,45.811,54.777,45.425z"/>
		<path d="M62.555,46.354v-4.09h-0.896v-1.025h0.896v-1.937h1.17v1.937h0.896v1.025h-0.896v4.09H62.555z"/>
		<path d="M68.974,41.239v2.881c0,0.497,0.102,0.852,0.307,1.068c0.205,0.216,0.538,0.324,0.998,0.324s0.794-0.108,0.998-0.324
			c0.205-0.216,0.308-0.572,0.308-1.068v-2.881h1.171v2.531c0,0.978-0.197,1.688-0.588,2.13c-0.392,0.442-1.019,0.663-1.878,0.663
			c-0.874,0-1.507-0.219-1.899-0.657c-0.391-0.439-0.588-1.151-0.588-2.136v-2.531H68.974z"/>
		<path d="M80.186,37.991h1.172v8.362h-1.172V45.69c-0.208,0.294-0.451,0.514-0.73,0.658c-0.277,0.144-0.598,0.215-0.958,0.215
			c-0.723,0-1.291-0.247-1.707-0.741c-0.416-0.494-0.623-1.171-0.623-2.032c0-0.815,0.212-1.476,0.637-1.976
			c0.424-0.502,0.979-0.753,1.661-0.753c0.418,0,0.774,0.086,1.072,0.262c0.296,0.174,0.514,0.425,0.648,0.751V37.991z
			 M80.219,43.78c0-0.529-0.124-0.94-0.37-1.235s-0.59-0.443-1.031-0.443c-0.444,0-0.791,0.151-1.045,0.456
			c-0.254,0.304-0.381,0.726-0.381,1.265c0,0.542,0.122,0.961,0.367,1.257c0.244,0.295,0.59,0.441,1.037,0.441
			c0.423,0,0.768-0.159,1.028-0.478C80.087,44.726,80.219,44.305,80.219,43.78z"/>
		<path d="M85.084,39.027c0-0.198,0.072-0.369,0.218-0.512s0.318-0.216,0.521-0.216c0.208,0,0.383,0.069,0.52,0.207
			c0.139,0.139,0.21,0.312,0.21,0.521s-0.072,0.384-0.213,0.525c-0.139,0.143-0.312,0.214-0.517,0.214
			c-0.202,0-0.375-0.073-0.521-0.219C85.156,39.402,85.084,39.229,85.084,39.027z M85.238,46.354v-5.115h1.173v5.115H85.238z"/>
		<path d="M89.914,43.801c0-0.374,0.072-0.728,0.214-1.06c0.143-0.333,0.346-0.628,0.612-0.888c0.264-0.255,0.564-0.452,0.905-0.588
			c0.343-0.137,0.701-0.205,1.075-0.205c0.383,0,0.747,0.068,1.087,0.205c0.34,0.136,0.645,0.337,0.913,0.604
			c0.271,0.261,0.475,0.559,0.615,0.889c0.141,0.332,0.212,0.678,0.212,1.042c0,0.377-0.071,0.732-0.21,1.063
			c-0.139,0.332-0.34,0.625-0.606,0.88c-0.279,0.269-0.591,0.474-0.932,0.612c-0.342,0.139-0.701,0.207-1.079,0.207
			c-0.37,0-0.728-0.068-1.069-0.207c-0.342-0.138-0.645-0.339-0.911-0.601c-0.27-0.266-0.474-0.564-0.614-0.896
			C89.985,44.528,89.914,44.175,89.914,43.801z M94.313,43.813c0-0.475-0.153-0.877-0.461-1.206c-0.304-0.33-0.679-0.494-1.12-0.494
			c-0.439,0-0.813,0.164-1.119,0.494c-0.309,0.328-0.463,0.731-0.463,1.206c0,0.474,0.154,0.876,0.463,1.206
			c0.307,0.329,0.68,0.494,1.119,0.494c0.438,0,0.812-0.165,1.118-0.494C94.158,44.689,94.313,44.287,94.313,43.813z"/>
	</g>
</g>
</svg>
