<?xml version="1.0" ?><!DOCTYPE svg  PUBLIC '-//W3C//DTD SVG 1.1//EN'  'http://www.w3.org/Graphics/SVG/1.1/DTD/svg11.dtd'><svg height="512px" id="形状_1_1_" style="enable-background:new 0 0 512 512;" version="1.1" viewBox="0 0 512 512" width="512px" xml:space="preserve" xmlns="http://www.w3.org/2000/svg" xmlns:xlink="http://www.w3.org/1999/xlink"><g id="形状_1"><g><path d="M138.303,275.694l0.1-0.246c0,0-0.143,0.083-0.417,0.231    L138.303,275.694z M100.074,283.638c0,0-4.589-0.772-4.589-4.946l0.267-1.479l6.439-1.519l45.92-10.82    c0,0,11.178-24.38-31.475-23.794c-42.648,0.587-48.232,27.609-48.823,33.194c-0.043,0.423-0.072,0.901-0.076,1.416l0.667,1.449    c-0.034,6.233,3.214,16.832,31.758,17.104c0,0,25.289-0.87,32.65-4.986l5.492-13.563h-0.317    C134.934,277.343,115.675,287.344,100.074,283.638z M99.667,260.489c0,0,1.862-11.162,14.449-11.342    c12.592-0.181,9.866,10.574,9.866,10.574l-27.587,13.886L99.667,260.489z M47.216,218.756l-21.178,73.727h29.716    c7.057-24.575,14.118-49.15,21.176-73.727H47.216z M380.842,242.973l-22.705,32.722l-1.196,1.725l-0.21-1.725l-4.017-32.722    H325.17l3.967,32.722l2.036,16.788h44.582l11.45-16.788l22.314-32.722H380.842z M283.18,241.341    c-43.812,1.632-46.765,28.411-46.765,28.411s-1.031,2.529-1.013,5.942c0.051,7.563,5.209,19.459,37.733,18.336    c26-0.899,38.316-10.172,44.134-18.344c4.77-6.692,5.177-12.653,5.177-12.653S326.989,239.708,283.18,241.341z M291.586,263.033    c0,0-0.516,6.729-3.621,12.661c-2.493,4.766-6.654,9.008-13.557,8.853c0,0-7.839,0.612-7.847-8.834    c0-1.743,0.267-3.831,0.896-6.323l2.951-8.719c0,0,2.362-10.39,12.771-10.21C293.587,250.645,292.313,258.676,291.586,263.033z     M226.008,244.247c0,0-13.862-3.813-33.04-2.728c-19.177,1.089-32.857,3.633-32.857,3.633l-9.063,30.542l-4.98,16.788h30.495    l5.05-16.788l7.537-25.05c0,0,18.045-2.588,15.683,6.718l-5.338,18.332l-4.89,16.788h29.947l5.014-16.788L235.143,257    C235.143,257,238.779,246.787,226.008,244.247z M446.647,241.341c-43.81,1.632-46.767,28.411-46.767,28.411    s-1.029,2.529-1.008,5.942c0.044,7.563,5.204,19.459,37.729,18.336c26.003-0.899,38.316-10.172,44.136-18.344    c4.769-6.692,5.175-12.653,5.175-12.653S490.457,239.708,446.647,241.341z M455.054,263.033c0,0-0.514,6.729-3.623,12.661    c-2.493,4.766-6.653,9.008-13.553,8.853c0,0-7.841,0.612-7.849-8.834c0-1.743,0.269-3.831,0.898-6.323l2.95-8.719    c0,0,2.362-10.39,12.77-10.21C457.055,250.645,455.786,258.676,455.054,263.033z" style="fill-rule:evenodd;clip-rule:evenodd;fill:#00387D;"/></g></g></svg>