<?xml version="1.0" ?><!DOCTYPE svg  PUBLIC '-//W3C//DTD SVG 1.1//EN'  'http://www.w3.org/Graphics/SVG/1.1/DTD/svg11.dtd'><svg height="512px" style="enable-background:new 0 0 512 512;" version="1.1" viewBox="0 0 512 512" width="512px" xml:space="preserve" xmlns="http://www.w3.org/2000/svg" xmlns:xlink="http://www.w3.org/1999/xlink"><g id="形状_2_1_" style="enable-background:new    ;"><g id="形状_2"><g><path d="M337.587,171.769c-4.808-1.918-19.319-2.662-29.721-1.364     c-7.961,1.567-4.73,5.689,3.453,8.797c6.451,2.907,15.142,3.003,21.344,0.433C339.301,177.101,341.882,173.636,337.587,171.769z      M296.871,210.588c-6.396-2.093-7.457,1.327-0.871,9.441c7.256,8.909,18.38,17.391,24.06,17.969     c4.351-0.711,2.028-7.911-3.522-14.429C311.544,217.621,303.119,212.302,296.871,210.588z M295.945,135.509     c12.791-6.753,22.174-15.824,20.94-20.252c-1.225-4.436-6.724-6.229-12.288-4.003c-5.557,2.223-14.935,11.282-20.953,20.25     C277.643,140.452,283.141,142.249,295.945,135.509z M225.101,154.137c3.939-13.451,16.313-30.513,20.531-36.52     c0.556-0.801,1.749-2.758,1.242-4.769c-0.628-2.517-4.055-3.814-6.936-4.183c-4.92-0.632-8.909,0.125-12.366,0.874     c-9.104,1.955-16.234,5.432-21.202,8.681c-3.604,2.366-7.581,5.484-11.457,9.309c-13.01,12.853-25.832,34.219-21.974,59.176     c2.209,14.932,10.043,25.908,16.756,34.081c8.799,10.199,22.787,19.578,35.111,17.399c5.686-1.115,10.084-5.773,12.137-9.596     c7.955-14.687-5.13-33.804-8.909-41.374C223.128,177.962,220.875,168.565,225.101,154.137z M296.871,169.144     c-0.688-10.363-15.346-17.677-33.843-17.172c-14.607,0.405-30.998,9.271-30.993,20.379c0.012,12.183,9.421,17.095,13.098,18.551     c0.888,0.35,1.189,0.241,1.751,1.872c1.069,3.095,4.09,10.656,13.925,10.635C274.115,203.38,297.891,184.388,296.871,169.144z      M251.278,176.302c-0.946,3.835-1.688,2.159-2.119,1.073c-0.669-1.672-0.923-3.448-0.923-5.024     c0-5.628,4.286-10.395,12.329-10.395c1.855,0,2.576,0.583,0.67,1.481c-0.66,0.322-1.369,0.769-1.98,1.156     C255.18,167.135,252.489,171.327,251.278,176.302z M272.641,194.138c-2.084,2.495-5.389,4.351-8.042,4.351     c-3.556,0-6.21-1.984-7.12-4.85c-0.228-0.716-0.316-1.477-0.352-2.284c-0.031-0.86,0.26-0.486,2.799,0.458     c1.742,0.645,3.926,1.26,6.164,1.26c0.906,0,1.787-0.087,2.627-0.245C270.158,192.553,274.689,191.7,272.641,194.138z      M269.486,183.469c-6.74,0-11.139-2.334-11.139-6.801c0-3.73,6.827-12.557,13.572-12.557c4.965,0,9.863,5.914,9.863,9.458     C281.783,178.091,276.885,183.469,269.486,183.469z" style="fill-rule:evenodd;clip-rule:evenodd;fill:#1B1B1B;"/></g></g></g><g id="形状_3_1_" style="enable-background:new    ;"><g id="形状_3"><g><path d="M211.606,325.119c-6.363-7.571-15.842-12.02-25.855-12.02     c-18.501,0-33.553,14.731-33.553,32.838v0.255c0,18.041,15.051,32.719,33.553,32.719c10.269,0,19.546-4.377,25.855-12.106v4.254     c0,15.95-9.099,25.1-24.966,25.1c-9.251,0-17.854-2.998-25.57-8.908l-1.779-1.364l-5.015,6.906l1.727,1.313     c9.286,7.021,19.308,10.433,30.637,10.433c10.036,0,18.782-3.234,24.628-9.108c5.836-5.869,8.921-14.118,8.921-23.854v-56.938     h-8.583V325.119z M211.988,346.192c0,13.416-11.602,24.332-25.861,24.332c-13.834,0-25.089-10.971-25.089-24.455v-0.259     c0-13.646,11.02-24.335,25.089-24.335c14.259,0,25.861,10.974,25.861,24.462V346.192z M112.803,313.104     c-19.956,0-35.589,15.83-35.589,36.038v0.258c0,20.066,15.581,35.785,35.471,35.785c19.886,0,35.462-15.832,35.462-36.043v-0.258     C148.147,328.821,132.622,313.104,112.803,313.104z M139.427,349.27c0,15.767-11.446,27.657-26.624,27.657     c-15.001,0-26.75-12.148-26.75-27.657v-0.251c0-15.771,11.394-27.665,26.502-27.665c15.068,0,26.872,12.151,26.872,27.665V349.27     z M80.558,376.033l-0.654-0.77H34.729v-85.748h-8.708v94.132h62.512l-4.292-3.84C82.86,378.563,81.622,377.293,80.558,376.033z      M457.271,313.1c-11.75,0-18.788,6.009-22.543,10.833v-34.417h-8.457v94.139h8.457v-38.615c0-13.281,9.68-23.686,22.036-23.686     c12.991,0,20.747,8.567,20.747,22.919v39.382h8.467v-40.026C485.979,324.798,474.978,313.1,457.271,313.1z M317.687,313.096     c-18.76,0-32.905,15.386-32.905,35.789v0.258c0,20.885,14.328,36.043,34.069,36.043c14.208,0,23.062-7.718,27.983-14.186     l1.338-1.725l-6.506-5.166l-1.352,1.762c-5.386,7.03-13.165,11.063-21.345,11.063c-13.139,0-23.585-10.056-25.168-24.056h55.532     v-3.615C349.334,331.844,339.43,313.096,317.687,313.096z M293.816,344.76c1.586-13.622,11.388-23.406,23.624-23.406     c14.062,0,21.539,11.598,22.872,23.406H293.816z M411.593,366.128c-6.583,7.371-13.397,10.806-21.445,10.806     c-14.608,0-26.491-12.47-26.491-27.798v-0.251c0-15.438,11.524-27.531,26.238-27.531c10.433,0,17.105,5.894,21.22,10.33     l1.545,1.65l6.073-6.074l-1.504-1.558c-5.958-6.233-13.849-12.606-27.207-12.606c-19.344,0-35.079,16.115-35.079,35.923v0.244     c0,19.808,15.679,35.923,34.952,35.923c11.133,0,20.005-4.315,27.92-13.58l1.43-1.668l-6.216-5.435L411.593,366.128z      M233.429,301.749h9.865v-12.235h-9.865V301.749z M234.543,383.654h8.583v-69.017h-8.583V383.654z M284.682,376.014l-0.969-1.282     l-1.512,0.558c-2.347,0.847-4.508,1.259-6.609,1.259c-7.433,0-11.201-4.048-11.201-12.029v-41.756h19.581l0.654-0.855     c0.927-1.199,1.962-2.383,3.079-3.518l3.664-3.752h-26.979v-25.122h-8.464v75.396c0,12.454,7.206,19.889,19.278,19.889     c3.865,0,7.623-0.847,11.163-2.513l2.753-1.284l-2.084-2.216C286.122,377.795,285.351,376.886,284.682,376.014z" style="fill-rule:evenodd;clip-rule:evenodd;fill:#1B1B1B;"/></g></g></g></svg>